<svg width="330" height="573" viewBox="0 0 330 573" fill="none" xmlns="http://www.w3.org/2000/svg">
<rect width="329.296" height="572.034" fill="white"/>
<path d="M94.5048 572.571C43.5858 88.0916 127.212 142.146 129.163 138.931H174.693V572.571H94.5048Z" fill="#FF5858"/>
<path d="M221.977 572.571C272.449 88.0916 189.557 142.146 187.623 138.931H142.492V572.571H221.977Z" fill="#FF5858"/>
<ellipse cx="155.627" cy="115.099" rx="35.1668" ry="35.1258" fill="#FF5858"/>
<ellipse cx="156.05" cy="71.6094" rx="22.0322" ry="21.7446" fill="#FF5858"/>
<path d="M153.203 107.153C153.203 116.801 144.908 124.807 134.442 124.807C123.976 124.807 115.681 116.801 115.681 107.153C115.681 97.5054 123.976 89.4996 134.442 89.4996C144.908 89.4996 153.203 97.5054 153.203 107.153Z" stroke="#1E2165" stroke-width="4"/>
<path d="M193.878 107.153C193.878 116.839 185.733 124.807 175.54 124.807C165.348 124.807 157.203 116.839 157.203 107.153C157.203 97.4674 165.348 89.4996 175.54 89.4996C185.733 89.4996 193.878 97.4674 193.878 107.153Z" stroke="#1E2165" stroke-width="4"/>
<ellipse cx="142.068" cy="106.735" rx="2.11848" ry="4.18165" fill="#1E2165"/>
<ellipse cx="167.067" cy="106.735" rx="2.54218" ry="4.18165" fill="#1E2165"/>
<path d="M156.898 572.571C132.18 572.571 144.378 572.571 128.934 572.571C113.49 572.571 119.82 572.571 100.97 572.571C100.97 556.867 113.49 544.136 128.934 544.136C144.378 544.136 156.898 556.867 156.898 572.571Z" fill="#1E2165"/>
<path d="M219.605 572.571C194.512 572.571 206.895 572.571 191.217 572.571C175.539 572.571 181.966 572.571 162.83 572.571C162.83 556.867 175.539 544.136 191.217 544.136C206.895 544.136 219.605 556.867 219.605 572.571Z" fill="#1E2165"/>
</svg>
