<svg width="331" height="573" viewBox="0 0 331 573" fill="none" xmlns="http://www.w3.org/2000/svg">
<rect x="0.799805" width="329.296" height="572.034" fill="white"/>
<path d="M100.261 326.306C47.9712 101.941 133.848 126.974 135.852 125.485H182.607V326.306H100.261Z" fill="#FF5858"/>
<path d="M232.62 326.306C284.446 101.941 199.329 126.974 197.343 125.485H151.002V326.306H232.62Z" fill="#FF5858"/>
<ellipse cx="162.854" cy="101.033" rx="36.4328" ry="36.3903" fill="#FF5858"/>
<ellipse cx="149.685" cy="92.3681" rx="2.19475" ry="4.33218" fill="#1E2165"/>
<ellipse cx="175.144" cy="92.3681" rx="3.07264" ry="4.33218" fill="#1E2165"/>
<path d="M98.3286 285.745L163.293 282.118L150.95 568.042H98.3286V285.745Z" fill="#FF5858"/>
<path d="M163.293 285.584H232.647V568.042H176.212L163.293 285.584Z" fill="#FF5858"/>
<path d="M163.293 114.799L193.142 116.628L163.293 100.166V114.799Z" fill="#1E2165"/>
<path d="M163.293 114.799L134.322 116.628L163.293 100.166V114.799Z" fill="#1E2165"/>
<path d="M188.752 67.3992C188.752 82.7989 177.55 70.156 163.732 70.156C149.914 70.156 138.712 82.7989 138.712 67.3992C138.712 51.9994 149.914 39.5155 163.732 39.5155C177.55 39.5155 188.752 51.9994 188.752 67.3992Z" fill="#FF5858"/>
<ellipse cx="163.293" cy="68.9743" rx="53.5518" ry="9.5308" fill="#FF5858"/>
<path d="M159.781 572.374C124.861 572.374 142.094 572.374 120.276 572.374C98.4577 572.374 107.401 572.374 80.7705 572.374C80.7705 550.841 98.4577 533.385 120.276 533.385C142.094 533.385 159.781 550.841 159.781 572.374Z" fill="#1E2165"/>
<path d="M243.181 572.374C209.425 572.374 226.084 572.374 204.993 572.374C183.902 572.374 192.547 572.374 166.804 572.374C166.804 550.841 183.902 533.385 204.993 533.385C226.084 533.385 243.181 550.841 243.181 572.374Z" fill="#1E2165"/>
</svg>
