<svg width="798" height="1310" viewBox="0 0 798 1310" fill="none" xmlns="http://www.w3.org/2000/svg">
<g clip-path="url(#clip0_105_435)">
<rect width="798" height="1310" fill="white"/>
<rect width="805" height="1330" fill="black"/>
<path d="M297.564 236.976V243.024H250.356V265.536H296.052V271.416H250.356V296.952H297.732V303H242.712V236.976H297.564ZM337.921 236.976C342.961 236.976 347.133 237.284 350.437 237.9C353.797 238.516 356.429 239.552 358.333 241.008C360.293 242.464 361.665 244.452 362.449 246.972C363.233 249.436 363.625 252.516 363.625 256.212C363.625 259.74 363.261 262.68 362.533 265.032C361.861 267.328 360.629 269.176 358.837 270.576C357.101 271.92 354.749 272.9 351.781 273.516C348.813 274.132 345.061 274.468 340.525 274.524L365.809 303H356.653L331.621 274.524H315.325V303H307.681V236.976H337.921ZM315.325 269.148L338.341 269.232C341.757 269.232 344.613 269.092 346.909 268.812C349.205 268.532 351.025 267.944 352.369 267.048C353.713 266.096 354.665 264.752 355.225 263.016C355.785 261.28 356.065 258.984 356.065 256.128C356.065 253.384 355.785 251.144 355.225 249.408C354.721 247.672 353.797 246.328 352.453 245.376C351.109 244.424 349.289 243.78 346.993 243.444C344.753 243.052 341.869 242.856 338.341 242.856L315.325 242.772V269.148ZM402.89 236.976C407.93 236.976 412.102 237.284 415.406 237.9C418.766 238.516 421.398 239.552 423.302 241.008C425.262 242.464 426.634 244.452 427.418 246.972C428.202 249.436 428.594 252.516 428.594 256.212C428.594 259.74 428.23 262.68 427.502 265.032C426.83 267.328 425.598 269.176 423.806 270.576C422.07 271.92 419.718 272.9 416.75 273.516C413.782 274.132 410.03 274.468 405.494 274.524L430.778 303H421.622L396.59 274.524H380.294V303H372.65V236.976H402.89ZM380.294 269.148L403.31 269.232C406.726 269.232 409.582 269.092 411.878 268.812C414.174 268.532 415.994 267.944 417.338 267.048C418.682 266.096 419.634 264.752 420.194 263.016C420.754 261.28 421.034 258.984 421.034 256.128C421.034 253.384 420.754 251.144 420.194 249.408C419.69 247.672 418.766 246.328 417.422 245.376C416.078 244.424 414.258 243.78 411.962 243.444C409.722 243.052 406.838 242.856 403.31 242.856L380.294 242.772V269.148ZM464.246 236.052C467.998 236.052 471.302 236.164 474.158 236.388C477.07 236.556 479.562 237.032 481.634 237.816C483.762 238.544 485.526 239.664 486.926 241.176C488.326 242.632 489.446 244.62 490.286 247.14C491.126 249.66 491.714 252.796 492.05 256.548C492.442 260.244 492.638 264.752 492.638 270.072C492.638 275.392 492.442 279.928 492.05 283.68C491.714 287.376 491.126 290.484 490.286 293.004C489.446 295.524 488.326 297.512 486.926 298.968C485.526 300.424 483.762 301.516 481.634 302.244C479.562 302.972 477.07 303.42 474.158 303.588C471.302 303.812 467.998 303.924 464.246 303.924C460.494 303.924 457.162 303.812 454.25 303.588C451.394 303.42 448.902 302.972 446.774 302.244C444.702 301.516 442.966 300.424 441.566 298.968C440.166 297.512 439.046 295.524 438.206 293.004C437.366 290.484 436.75 287.376 436.358 283.68C436.022 279.928 435.854 275.392 435.854 270.072C435.854 264.752 436.022 260.244 436.358 256.548C436.75 252.796 437.366 249.66 438.206 247.14C439.046 244.62 440.166 242.632 441.566 241.176C442.966 239.664 444.702 238.544 446.774 237.816C448.902 237.032 451.394 236.556 454.25 236.388C457.162 236.164 460.494 236.052 464.246 236.052ZM464.246 242.016C459.934 242.016 456.406 242.24 453.662 242.688C450.974 243.136 448.874 244.284 447.362 246.132C445.85 247.98 444.814 250.78 444.254 254.532C443.694 258.284 443.414 263.464 443.414 270.072C443.414 274.44 443.526 278.192 443.75 281.328C443.974 284.408 444.366 286.984 444.926 289.056C445.542 291.128 446.354 292.752 447.362 293.928C448.37 295.104 449.63 296 451.142 296.616C452.71 297.176 454.558 297.54 456.686 297.708C458.814 297.876 461.334 297.96 464.246 297.96C467.102 297.96 469.594 297.876 471.722 297.708C473.906 297.54 475.754 297.176 477.266 296.616C478.834 296 480.122 295.104 481.13 293.928C482.138 292.752 482.95 291.128 483.566 289.056C484.182 286.984 484.602 284.408 484.826 281.328C485.05 278.248 485.162 274.496 485.162 270.072C485.162 263.464 484.882 258.284 484.322 254.532C483.762 250.78 482.698 247.98 481.13 246.132C479.618 244.284 477.49 243.136 474.746 242.688C472.058 242.24 468.558 242.016 464.246 242.016ZM532.827 236.976C537.867 236.976 542.039 237.284 545.343 237.9C548.703 238.516 551.335 239.552 553.239 241.008C555.199 242.464 556.571 244.452 557.355 246.972C558.139 249.436 558.531 252.516 558.531 256.212C558.531 259.74 558.167 262.68 557.439 265.032C556.767 267.328 555.535 269.176 553.743 270.576C552.007 271.92 549.655 272.9 546.687 273.516C543.719 274.132 539.967 274.468 535.431 274.524L560.715 303H551.559L526.527 274.524H510.231V303H502.587V236.976H532.827ZM510.231 269.148L533.247 269.232C536.663 269.232 539.519 269.092 541.815 268.812C544.111 268.532 545.931 267.944 547.275 267.048C548.619 266.096 549.571 264.752 550.131 263.016C550.691 261.28 550.971 258.984 550.971 256.128C550.971 253.384 550.691 251.144 550.131 249.408C549.627 247.672 548.703 246.328 547.359 245.376C546.015 244.424 544.195 243.78 541.899 243.444C539.659 243.052 536.775 242.856 533.247 242.856L510.231 242.772V269.148Z" fill="#FF5858"/>
<path d="M184.629 390.308V391.4C184.629 392.688 184.909 393.864 185.469 394.928C186.029 395.936 186.981 396.804 188.325 397.532C189.669 398.26 191.461 398.82 193.701 399.212C195.997 399.604 198.853 399.8 202.269 399.8C208.989 399.8 214.029 399.044 217.389 397.532C220.805 395.964 222.513 393.752 222.513 390.896C222.513 389.216 221.869 387.9 220.581 386.948C219.349 385.996 217.697 385.268 215.625 384.764C213.553 384.26 211.173 383.924 208.485 383.756C205.853 383.588 203.137 383.42 200.337 383.252C197.593 383.028 194.877 382.776 192.189 382.496C189.557 382.16 187.205 381.628 185.133 380.9C183.061 380.116 181.381 379.052 180.093 377.708C178.861 376.364 178.245 374.572 178.245 372.332C178.245 369.924 178.945 367.908 180.345 366.284C181.745 364.66 183.593 363.372 185.889 362.42C188.185 361.468 190.845 360.796 193.869 360.404C196.893 360.012 200.057 359.816 203.361 359.816C208.009 359.816 212.265 360.18 216.129 360.908C220.049 361.636 223.689 362.84 227.049 364.52V373.256H220.497V367.544C218.089 366.592 215.485 365.92 212.685 365.528C209.885 365.136 206.805 364.94 203.445 364.94C200.869 364.94 198.461 365.08 196.221 365.36C193.981 365.584 192.021 365.976 190.341 366.536C188.717 367.096 187.429 367.852 186.477 368.804C185.525 369.7 185.049 370.82 185.049 372.164C185.049 373.676 185.665 374.852 186.897 375.692C188.185 376.476 189.865 377.064 191.937 377.456C194.065 377.848 196.445 378.128 199.077 378.296C201.765 378.408 204.481 378.548 207.225 378.716C210.025 378.884 212.741 379.164 215.373 379.556C218.061 379.948 220.441 380.564 222.513 381.404C224.641 382.244 226.321 383.42 227.553 384.932C228.841 386.388 229.485 388.32 229.485 390.728C229.485 395.488 227.133 399.1 222.429 401.564C217.781 403.972 211.005 405.176 202.101 405.176C197.285 405.176 193.309 404.812 190.173 404.084C187.093 403.412 184.629 402.46 182.781 401.228C180.989 399.996 179.729 398.54 179.001 396.86C178.329 395.18 177.993 393.36 177.993 391.4V390.308H184.629ZM269.17 359.816C273.762 359.816 277.71 360.236 281.014 361.076C284.318 361.86 287.006 363.148 289.078 364.94C291.15 366.732 292.662 369.084 293.614 371.996C294.622 374.852 295.126 378.352 295.126 382.496C295.126 386.696 294.622 390.252 293.614 393.164C292.662 396.02 291.15 398.344 289.078 400.136C287.006 401.928 284.318 403.216 281.014 404C277.71 404.784 273.762 405.176 269.17 405.176C264.578 405.176 260.63 404.784 257.326 404C254.078 403.216 251.39 401.928 249.262 400.136C247.19 398.344 245.65 396.02 244.642 393.164C243.69 390.252 243.214 386.696 243.214 382.496C243.214 378.352 243.69 374.852 244.642 371.996C245.65 369.084 247.19 366.732 249.262 364.94C251.39 363.148 254.078 361.86 257.326 361.076C260.63 360.236 264.578 359.816 269.17 359.816ZM269.17 365.528C265.866 365.528 263.01 365.808 260.602 366.368C258.25 366.928 256.318 367.88 254.806 369.224C253.294 370.512 252.174 372.248 251.446 374.432C250.774 376.56 250.438 379.248 250.438 382.496C250.438 385.744 250.774 388.46 251.446 390.644C252.174 392.828 253.294 394.564 254.806 395.852C256.318 397.14 258.25 398.064 260.602 398.624C263.01 399.184 265.866 399.464 269.17 399.464C272.53 399.464 275.386 399.184 277.738 398.624C280.09 398.064 282.022 397.14 283.534 395.852C285.046 394.564 286.138 392.828 286.81 390.644C287.538 388.46 287.902 385.744 287.902 382.496C287.902 379.248 287.538 376.56 286.81 374.432C286.138 372.248 285.046 370.512 283.534 369.224C282.022 367.88 280.09 366.928 277.738 366.368C275.386 365.808 272.53 365.528 269.17 365.528ZM309.863 360.908V367.46C311.431 365.5 313.363 363.82 315.659 362.42C317.955 360.964 320.923 360.236 324.563 360.236C327.811 360.236 330.499 360.852 332.627 362.084C334.811 363.316 336.239 365.08 336.911 367.376C338.591 365.248 340.607 363.54 342.959 362.252C345.367 360.908 348.363 360.236 351.947 360.236C355.979 360.236 359.143 361.076 361.439 362.756C363.791 364.436 364.967 367.012 364.967 370.484V404H357.911V371.66C357.911 369.98 357.323 368.636 356.147 367.628C354.971 366.564 352.983 366.032 350.183 366.032C347.663 366.032 345.367 366.564 343.295 367.628C341.279 368.636 339.291 370.54 337.331 373.34V404H330.779V371.66C330.779 369.98 330.163 368.636 328.931 367.628C327.755 366.564 325.907 366.032 323.387 366.032C317.731 366.032 313.307 368.748 310.115 374.18V404H303.227V360.908H309.863ZM380.04 383.84C380.096 386.864 380.516 389.384 381.3 391.4C382.14 393.416 383.344 395.04 384.912 396.272C386.48 397.448 388.44 398.316 390.792 398.876C393.2 399.38 396.056 399.632 399.36 399.632C404.736 399.632 409.048 398.988 412.296 397.7C415.544 396.412 417.168 394.508 417.168 391.988V390.896H423.888V392.072C423.888 394.312 423.3 396.272 422.124 397.952C420.948 399.576 419.268 400.92 417.084 401.984C414.9 403.048 412.268 403.832 409.188 404.336C406.164 404.896 402.776 405.176 399.024 405.176C394.488 405.176 390.568 404.784 387.264 404C384.016 403.16 381.328 401.844 379.2 400.052C377.128 398.26 375.588 395.936 374.58 393.08C373.628 390.224 373.152 386.752 373.152 382.664C373.152 378.632 373.628 375.188 374.58 372.332C375.588 369.42 377.128 367.04 379.2 365.192C381.328 363.344 384.016 362 387.264 361.16C390.568 360.264 394.544 359.816 399.192 359.816C404.008 359.816 408.012 360.264 411.204 361.16C414.452 362 417.028 363.26 418.932 364.94C420.892 366.564 422.264 368.552 423.048 370.904C423.888 373.256 424.308 375.944 424.308 378.968C424.308 379.976 424.28 380.9 424.224 381.74C424.168 382.524 424.084 383.224 423.972 383.84H380.04ZM399.276 365.36C393.284 365.36 388.748 366.368 385.668 368.384C382.588 370.4 380.768 373.9 380.208 378.884H417.504C417.56 378.66 417.588 378.296 417.588 377.792C417.532 375.832 417.196 374.096 416.58 372.584C415.964 371.016 414.956 369.7 413.556 368.636C412.156 367.572 410.28 366.76 407.928 366.2C405.632 365.64 402.748 365.36 399.276 365.36ZM464.076 359.816C468.668 359.816 472.616 360.236 475.92 361.076C479.224 361.86 481.912 363.148 483.984 364.94C486.056 366.732 487.568 369.084 488.52 371.996C489.528 374.852 490.032 378.352 490.032 382.496C490.032 386.696 489.528 390.252 488.52 393.164C487.568 396.02 486.056 398.344 483.984 400.136C481.912 401.928 479.224 403.216 475.92 404C472.616 404.784 468.668 405.176 464.076 405.176C459.484 405.176 455.536 404.784 452.232 404C448.984 403.216 446.296 401.928 444.168 400.136C442.096 398.344 440.556 396.02 439.548 393.164C438.596 390.252 438.12 386.696 438.12 382.496C438.12 378.352 438.596 374.852 439.548 371.996C440.556 369.084 442.096 366.732 444.168 364.94C446.296 363.148 448.984 361.86 452.232 361.076C455.536 360.236 459.484 359.816 464.076 359.816ZM464.076 365.528C460.772 365.528 457.916 365.808 455.508 366.368C453.156 366.928 451.224 367.88 449.712 369.224C448.2 370.512 447.08 372.248 446.352 374.432C445.68 376.56 445.344 379.248 445.344 382.496C445.344 385.744 445.68 388.46 446.352 390.644C447.08 392.828 448.2 394.564 449.712 395.852C451.224 397.14 453.156 398.064 455.508 398.624C457.916 399.184 460.772 399.464 464.076 399.464C467.436 399.464 470.292 399.184 472.644 398.624C474.996 398.064 476.928 397.14 478.44 395.852C479.952 394.564 481.044 392.828 481.716 390.644C482.444 388.46 482.808 385.744 482.808 382.496C482.808 379.248 482.444 376.56 481.716 374.432C481.044 372.248 479.952 370.512 478.44 369.224C476.928 367.88 474.996 366.928 472.644 366.368C470.292 365.808 467.436 365.528 464.076 365.528ZM511.405 360.908V369.308C513.365 366.676 516.389 364.52 520.477 362.84C524.565 361.104 529.661 360.236 535.765 360.236C538.677 360.236 541.281 360.516 543.577 361.076C545.873 361.58 547.805 362.504 549.373 363.848C550.941 365.192 552.145 367.012 552.985 369.308C553.825 371.548 554.245 374.432 554.245 377.96V404H546.853V378.212C546.853 375.748 546.573 373.732 546.013 372.164C545.453 370.54 544.613 369.28 543.493 368.384C542.373 367.488 541.001 366.872 539.377 366.536C537.753 366.2 535.849 366.032 533.665 366.032C528.177 366.032 523.669 366.872 520.141 368.552C516.669 370.176 513.841 372.416 511.657 375.272V404H504.349V360.908H511.405ZM574.946 383.84C575.002 386.864 575.422 389.384 576.206 391.4C577.046 393.416 578.25 395.04 579.818 396.272C581.386 397.448 583.346 398.316 585.698 398.876C588.106 399.38 590.962 399.632 594.266 399.632C599.642 399.632 603.954 398.988 607.202 397.7C610.45 396.412 612.074 394.508 612.074 391.988V390.896H618.794V392.072C618.794 394.312 618.206 396.272 617.03 397.952C615.854 399.576 614.174 400.92 611.99 401.984C609.806 403.048 607.174 403.832 604.094 404.336C601.07 404.896 597.682 405.176 593.93 405.176C589.394 405.176 585.474 404.784 582.17 404C578.922 403.16 576.234 401.844 574.106 400.052C572.034 398.26 570.494 395.936 569.486 393.08C568.534 390.224 568.058 386.752 568.058 382.664C568.058 378.632 568.534 375.188 569.486 372.332C570.494 369.42 572.034 367.04 574.106 365.192C576.234 363.344 578.922 362 582.17 361.16C585.474 360.264 589.45 359.816 594.098 359.816C598.914 359.816 602.918 360.264 606.11 361.16C609.358 362 611.934 363.26 613.838 364.94C615.798 366.564 617.17 368.552 617.954 370.904C618.794 373.256 619.214 375.944 619.214 378.968C619.214 379.976 619.186 380.9 619.13 381.74C619.074 382.524 618.99 383.224 618.878 383.84H574.946ZM594.182 365.36C588.19 365.36 583.654 366.368 580.574 368.384C577.494 370.4 575.674 373.9 575.114 378.884H612.41C612.466 378.66 612.494 378.296 612.494 377.792C612.438 375.832 612.102 374.096 611.486 372.584C610.87 371.016 609.862 369.7 608.462 368.636C607.062 367.572 605.186 366.76 602.834 366.2C600.538 365.64 597.654 365.36 594.182 365.36ZM81.3803 461.908L91.0403 497.02L103.724 466.864H109.352L122.204 496.852L132.032 461.908H139.088L126.404 505H119.768L106.58 475.096L93.3083 505H86.8403L74.1562 461.908H81.3803ZM188.349 476.944V475.432C188.349 472.016 186.809 469.664 183.729 468.376C180.705 467.088 176.505 466.444 171.129 466.444C168.665 466.444 166.537 466.556 164.745 466.78C162.953 466.948 161.385 467.2 160.041 467.536C158.697 467.872 157.577 468.236 156.681 468.628C155.785 469.02 155.057 469.412 154.497 469.804V475.516H147.777V467.452C150.017 465.156 153.237 463.476 157.437 462.412C161.693 461.348 166.537 460.816 171.969 460.816C175.553 460.816 178.773 461.068 181.629 461.572C184.541 462.02 187.005 462.804 189.021 463.924C191.037 465.044 192.577 466.528 193.641 468.376C194.761 470.168 195.321 472.38 195.321 475.012V497.44C195.321 498.392 195.517 499.008 195.909 499.288C196.357 499.512 197.197 499.624 198.429 499.624H200.361V505H196.161C191.009 505 188.405 503.04 188.349 499.12C186.053 500.352 183.897 501.388 181.881 502.228C179.865 503.068 177.877 503.768 175.917 504.328C174.013 504.832 172.081 505.196 170.121 505.42C168.161 505.7 166.089 505.84 163.905 505.84C157.409 505.84 152.649 504.776 149.625 502.648C146.601 500.464 145.089 497.496 145.089 493.744C145.089 491.672 145.509 489.908 146.349 488.452C147.245 486.94 148.533 485.652 150.213 484.588C151.949 483.524 154.049 482.656 156.513 481.984C159.033 481.256 161.889 480.668 165.081 480.22L188.349 476.944ZM166.089 500.548C167.097 500.548 168.273 500.492 169.617 500.38C171.017 500.268 172.585 499.988 174.321 499.54C176.113 499.092 178.129 498.42 180.369 497.524C182.609 496.628 185.101 495.424 187.845 493.912L188.349 493.66V481.732L166.005 485.008C161.301 485.624 157.801 486.576 155.505 487.864C153.209 489.096 152.061 490.916 152.061 493.324C152.061 498.14 156.737 500.548 166.089 500.548ZM217.114 491.308V492.4C217.114 493.688 217.394 494.864 217.954 495.928C218.514 496.936 219.466 497.804 220.81 498.532C222.154 499.26 223.946 499.82 226.186 500.212C228.482 500.604 231.338 500.8 234.754 500.8C241.474 500.8 246.514 500.044 249.874 498.532C253.29 496.964 254.998 494.752 254.998 491.896C254.998 490.216 254.354 488.9 253.066 487.948C251.834 486.996 250.182 486.268 248.11 485.764C246.038 485.26 243.658 484.924 240.97 484.756C238.338 484.588 235.622 484.42 232.822 484.252C230.078 484.028 227.362 483.776 224.674 483.496C222.042 483.16 219.69 482.628 217.618 481.9C215.546 481.116 213.866 480.052 212.578 478.708C211.346 477.364 210.73 475.572 210.73 473.332C210.73 470.924 211.43 468.908 212.83 467.284C214.23 465.66 216.078 464.372 218.374 463.42C220.67 462.468 223.33 461.796 226.354 461.404C229.378 461.012 232.542 460.816 235.846 460.816C240.494 460.816 244.75 461.18 248.614 461.908C252.534 462.636 256.174 463.84 259.534 465.52V474.256H252.982V468.544C250.574 467.592 247.97 466.92 245.17 466.528C242.37 466.136 239.29 465.94 235.93 465.94C233.354 465.94 230.946 466.08 228.706 466.36C226.466 466.584 224.506 466.976 222.826 467.536C221.202 468.096 219.914 468.852 218.962 469.804C218.01 470.7 217.534 471.82 217.534 473.164C217.534 474.676 218.15 475.852 219.382 476.692C220.67 477.476 222.35 478.064 224.422 478.456C226.55 478.848 228.93 479.128 231.562 479.296C234.25 479.408 236.966 479.548 239.71 479.716C242.51 479.884 245.226 480.164 247.858 480.556C250.546 480.948 252.926 481.564 254.998 482.404C257.126 483.244 258.806 484.42 260.038 485.932C261.326 487.388 261.97 489.32 261.97 491.728C261.97 496.488 259.618 500.1 254.914 502.564C250.266 504.972 243.49 506.176 234.586 506.176C229.77 506.176 225.794 505.812 222.658 505.084C219.578 504.412 217.114 503.46 215.266 502.228C213.474 500.996 212.214 499.54 211.486 497.86C210.814 496.18 210.478 494.36 210.478 492.4V491.308H217.114ZM398.039 461.908L377.207 473.668L398.039 505H390.059L371.411 477.028L349.235 489.544V505H341.927V438.976H349.235V484L387.707 461.908H398.039ZM436.632 461.908V499.708H456.372V505H410.508V499.708H429.24V467.284H412.272V461.908H436.632ZM425.964 448.468C425.964 444.38 428.204 442.336 432.684 442.336C437.164 442.336 439.404 444.38 439.404 448.468C439.404 452.724 437.164 454.852 432.684 454.852C428.204 454.852 425.964 452.724 425.964 448.468ZM502.609 438.976V499.708H521.341V505H475.477V499.708H495.217V444.268H477.241V438.976H502.609ZM567.578 438.976V499.708H586.31V505H540.446V499.708H560.186V444.268H542.21V438.976H567.578ZM607.43 484.84C607.486 487.864 607.906 490.384 608.69 492.4C609.53 494.416 610.734 496.04 612.302 497.272C613.87 498.448 615.83 499.316 618.182 499.876C620.59 500.38 623.446 500.632 626.75 500.632C632.126 500.632 636.438 499.988 639.686 498.7C642.934 497.412 644.558 495.508 644.558 492.988V491.896H651.278V493.072C651.278 495.312 650.69 497.272 649.514 498.952C648.338 500.576 646.658 501.92 644.474 502.984C642.29 504.048 639.658 504.832 636.578 505.336C633.554 505.896 630.166 506.176 626.414 506.176C621.878 506.176 617.958 505.784 614.654 505C611.406 504.16 608.718 502.844 606.59 501.052C604.518 499.26 602.978 496.936 601.97 494.08C601.018 491.224 600.542 487.752 600.542 483.664C600.542 479.632 601.018 476.188 601.97 473.332C602.978 470.42 604.518 468.04 606.59 466.192C608.718 464.344 611.406 463 614.654 462.16C617.958 461.264 621.934 460.816 626.582 460.816C631.398 460.816 635.402 461.264 638.594 462.16C641.842 463 644.418 464.26 646.322 465.94C648.282 467.564 649.654 469.552 650.438 471.904C651.278 474.256 651.698 476.944 651.698 479.968C651.698 480.976 651.67 481.9 651.614 482.74C651.558 483.524 651.474 484.224 651.362 484.84H607.43ZM626.666 466.36C620.674 466.36 616.138 467.368 613.058 469.384C609.978 471.4 608.158 474.9 607.598 479.884H644.894C644.95 479.66 644.978 479.296 644.978 478.792C644.922 476.832 644.586 475.096 643.97 473.584C643.354 472.016 642.346 470.7 640.946 469.636C639.546 468.572 637.67 467.76 635.318 467.2C633.022 466.64 630.138 466.36 626.666 466.36ZM715.995 438.976V505H708.939V496.936C706.867 499.736 703.871 501.92 699.951 503.488C696.087 505.056 691.355 505.84 685.755 505.84C682.899 505.84 680.183 505.56 677.607 505C675.087 504.44 672.875 503.376 670.971 501.808C669.067 500.184 667.555 497.916 666.435 495.004C665.315 492.036 664.755 488.2 664.755 483.496C664.755 478.792 665.287 475.012 666.351 472.156C667.471 469.244 668.983 466.976 670.887 465.352C672.791 463.728 675.003 462.636 677.523 462.076C680.099 461.516 682.815 461.236 685.671 461.236C688.583 461.236 691.243 461.46 693.651 461.908C696.059 462.356 698.215 462.972 700.119 463.756C702.023 464.54 703.675 465.464 705.075 466.528C706.475 467.536 707.651 468.656 708.603 469.888V438.976H715.995ZM708.603 476.02C706.307 473.052 703.507 470.784 700.203 469.216C696.955 467.648 692.867 466.864 687.939 466.864C685.867 466.864 683.879 467.06 681.975 467.452C680.071 467.844 678.363 468.628 676.851 469.804C675.395 470.98 674.219 472.66 673.323 474.844C672.483 477.028 672.063 479.912 672.063 483.496C672.063 487.136 672.511 490.048 673.407 492.232C674.303 494.416 675.479 496.096 676.935 497.272C678.391 498.392 680.071 499.148 681.975 499.54C683.879 499.876 685.839 500.044 687.855 500.044C692.671 500.044 696.731 499.288 700.035 497.776C703.395 496.264 706.251 493.94 708.603 490.804V476.02Z" fill="#FF5858"/>
<path d="M318.407 593.308C320.015 593.308 321.431 593.356 322.655 593.452C323.903 593.524 324.971 593.728 325.859 594.064C326.771 594.376 327.527 594.856 328.127 595.504C328.727 596.128 329.207 596.98 329.567 598.06C329.927 599.14 330.179 600.484 330.323 602.092C330.491 603.676 330.575 605.608 330.575 607.888C330.575 610.168 330.491 612.112 330.323 613.72C330.179 615.304 329.927 616.636 329.567 617.716C329.207 618.796 328.727 619.648 328.127 620.272C327.527 620.896 326.771 621.364 325.859 621.676C324.971 621.988 323.903 622.18 322.655 622.252C321.431 622.348 320.015 622.396 318.407 622.396C316.799 622.396 315.371 622.348 314.123 622.252C312.899 622.18 311.831 621.988 310.919 621.676C310.031 621.364 309.287 620.896 308.687 620.272C308.087 619.648 307.607 618.796 307.247 617.716C306.887 616.636 306.623 615.304 306.455 613.72C306.311 612.112 306.239 610.168 306.239 607.888C306.239 605.608 306.311 603.676 306.455 602.092C306.623 600.484 306.887 599.14 307.247 598.06C307.607 596.98 308.087 596.128 308.687 595.504C309.287 594.856 310.031 594.376 310.919 594.064C311.831 593.728 312.899 593.524 314.123 593.452C315.371 593.356 316.799 593.308 318.407 593.308ZM318.407 595.864C316.559 595.864 315.047 595.96 313.871 596.152C312.719 596.344 311.819 596.836 311.171 597.628C310.523 598.42 310.079 599.62 309.839 601.228C309.599 602.836 309.479 605.056 309.479 607.888C309.479 609.76 309.527 611.368 309.623 612.712C309.719 614.032 309.887 615.136 310.127 616.024C310.391 616.912 310.739 617.608 311.171 618.112C311.603 618.616 312.143 619 312.791 619.264C313.463 619.504 314.255 619.66 315.167 619.732C316.079 619.804 317.159 619.84 318.407 619.84C319.631 619.84 320.699 619.804 321.611 619.732C322.547 619.66 323.339 619.504 323.987 619.264C324.659 619 325.211 618.616 325.643 618.112C326.075 617.608 326.423 616.912 326.687 616.024C326.951 615.136 327.131 614.032 327.227 612.712C327.323 611.392 327.371 609.784 327.371 607.888C327.371 605.056 327.251 602.836 327.011 601.228C326.771 599.62 326.315 598.42 325.643 597.628C324.995 596.836 324.083 596.344 322.907 596.152C321.755 595.96 320.255 595.864 318.407 595.864ZM366.75 603.532V610.516H381.51V603.532H384.642V622H381.51V612.82H366.75V622H363.618V603.532H366.75ZM393.874 613.36C393.898 614.656 394.078 615.736 394.414 616.6C394.774 617.464 395.29 618.16 395.962 618.688C396.634 619.192 397.474 619.564 398.482 619.804C399.514 620.02 400.738 620.128 402.154 620.128C404.458 620.128 406.306 619.852 407.698 619.3C409.09 618.748 409.786 617.932 409.786 616.852V616.384H412.666V616.888C412.666 617.848 412.414 618.688 411.91 619.408C411.406 620.104 410.686 620.68 409.75 621.136C408.814 621.592 407.686 621.928 406.366 622.144C405.07 622.384 403.618 622.504 402.01 622.504C400.066 622.504 398.386 622.336 396.97 622C395.578 621.64 394.426 621.076 393.514 620.308C392.626 619.54 391.966 618.544 391.534 617.32C391.126 616.096 390.922 614.608 390.922 612.856C390.922 611.128 391.126 609.652 391.534 608.428C391.966 607.18 392.626 606.16 393.514 605.368C394.426 604.576 395.578 604 396.97 603.64C398.386 603.256 400.09 603.064 402.082 603.064C404.146 603.064 405.862 603.256 407.23 603.64C408.622 604 409.726 604.54 410.542 605.26C411.382 605.956 411.97 606.808 412.306 607.816C412.666 608.824 412.846 609.976 412.846 611.272C412.846 611.704 412.834 612.1 412.81 612.46C412.786 612.796 412.75 613.096 412.702 613.36H393.874ZM402.118 605.44C399.55 605.44 397.606 605.872 396.286 606.736C394.966 607.6 394.186 609.1 393.946 611.236H409.93C409.954 611.14 409.966 610.984 409.966 610.768C409.942 609.928 409.798 609.184 409.534 608.536C409.27 607.864 408.838 607.3 408.238 606.844C407.638 606.388 406.834 606.04 405.826 605.8C404.842 605.56 403.606 605.44 402.118 605.44ZM441.914 603.532V605.8H431.402V622H428.27V605.8H417.758V603.532H441.914ZM459.642 593.704L459.03 613.612H456.33L455.754 593.704H459.642ZM454.71 619.408C454.71 617.56 455.706 616.636 457.698 616.636C459.69 616.636 460.686 617.56 460.686 619.408C460.686 621.304 459.69 622.252 457.698 622.252C455.706 622.252 454.71 621.304 454.71 619.408ZM218.552 644.516H215.456V640.052C214.688 639.644 213.62 639.332 212.252 639.116C210.908 638.876 209.336 638.756 207.536 638.756C205.808 638.756 204.356 638.912 203.18 639.224C202.004 639.536 201.056 640.136 200.336 641.024C199.64 641.912 199.136 643.136 198.824 644.696C198.536 646.256 198.392 648.296 198.392 650.816C198.392 653.312 198.536 655.352 198.824 656.936C199.112 658.496 199.592 659.72 200.264 660.608C200.96 661.496 201.86 662.108 202.964 662.444C204.092 662.78 205.472 662.948 207.104 662.948C208.448 662.948 209.636 662.852 210.668 662.66C211.7 662.468 212.564 662.156 213.26 661.724C213.98 661.268 214.52 660.692 214.88 659.996C215.264 659.276 215.456 658.4 215.456 657.368V656.648H218.444V657.368C218.444 658.904 218.192 660.2 217.688 661.256C217.184 662.288 216.44 663.128 215.456 663.776C214.496 664.4 213.296 664.844 211.856 665.108C210.44 665.396 208.808 665.54 206.96 665.54C204.752 665.54 202.892 665.324 201.38 664.892C199.868 664.46 198.644 663.692 197.708 662.588C196.796 661.484 196.136 659.984 195.728 658.088C195.32 656.168 195.116 653.732 195.116 650.78C195.116 647.804 195.32 645.368 195.728 643.472C196.16 641.576 196.856 640.088 197.816 639.008C198.776 637.928 200.036 637.184 201.596 636.776C203.18 636.368 205.124 636.164 207.428 636.164C210.356 636.164 212.708 636.404 214.484 636.884C216.26 637.364 217.616 637.94 218.552 638.612V644.516ZM237.144 646.532C240.144 646.532 242.304 646.88 243.624 647.576C244.968 648.272 245.64 649.472 245.64 651.176C245.64 652.256 245.388 653.132 244.884 653.804C244.404 654.452 243.744 654.944 242.904 655.28C244.008 655.616 244.896 656.156 245.568 656.9C246.24 657.62 246.576 658.652 246.576 659.996C246.576 661.796 245.856 663.08 244.416 663.848C242.976 664.616 240.684 665 237.54 665H224.364V646.532H237.144ZM227.532 662.804H237.288C238.44 662.804 239.412 662.756 240.204 662.66C240.996 662.564 241.632 662.396 242.112 662.156C242.616 661.916 242.976 661.592 243.192 661.184C243.408 660.776 243.516 660.26 243.516 659.636C243.516 658.94 243.372 658.376 243.084 657.944C242.82 657.512 242.412 657.188 241.86 656.972C241.308 656.732 240.624 656.576 239.808 656.504C238.992 656.432 238.056 656.396 237 656.396H227.532V662.804ZM227.532 654.416H237.036C238.068 654.416 238.932 654.38 239.628 654.308C240.348 654.212 240.936 654.056 241.392 653.84C241.848 653.624 242.172 653.336 242.364 652.976C242.58 652.592 242.688 652.1 242.688 651.5C242.688 650.924 242.58 650.456 242.364 650.096C242.172 649.736 241.848 649.46 241.392 649.268C240.936 649.076 240.348 648.944 239.628 648.872C238.908 648.8 238.032 648.764 237 648.764H227.532V654.416ZM254.619 646.532V661.364L270.531 646.532H273.951V665H270.891V649.484L254.115 665H251.559V646.532H254.619ZM302.083 646.532V662.732H304.531V670.616H301.723V665H279.511V670.616H276.703V662.732H277.711C278.287 662.732 278.899 662.684 279.547 662.588C280.195 662.492 280.795 662.216 281.347 661.76C281.899 661.304 282.355 660.608 282.715 659.672C283.075 658.736 283.255 657.44 283.255 655.784V646.532H302.083ZM286.387 655.82C286.387 657.452 286.207 658.832 285.847 659.96C285.487 661.088 284.971 662.012 284.299 662.732H298.951V648.8H286.387V655.82ZM325.643 652.976V652.328C325.643 650.864 324.983 649.856 323.663 649.304C322.367 648.752 320.567 648.476 318.263 648.476C317.207 648.476 316.295 648.524 315.527 648.62C314.759 648.692 314.087 648.8 313.511 648.944C312.935 649.088 312.455 649.244 312.071 649.412C311.687 649.58 311.375 649.748 311.135 649.916V652.364H308.255V648.908C309.215 647.924 310.595 647.204 312.395 646.748C314.219 646.292 316.295 646.064 318.623 646.064C320.159 646.064 321.539 646.172 322.763 646.388C324.011 646.58 325.067 646.916 325.931 647.396C326.795 647.876 327.455 648.512 327.911 649.304C328.391 650.072 328.631 651.02 328.631 652.148V661.76C328.631 662.168 328.715 662.432 328.883 662.552C329.075 662.648 329.435 662.696 329.963 662.696H330.791V665H328.991C326.783 665 325.667 664.16 325.643 662.48C324.659 663.008 323.735 663.452 322.871 663.812C322.007 664.172 321.155 664.472 320.315 664.712C319.499 664.928 318.671 665.084 317.831 665.18C316.991 665.3 316.103 665.36 315.167 665.36C312.383 665.36 310.343 664.904 309.047 663.992C307.751 663.056 307.103 661.784 307.103 660.176C307.103 659.288 307.283 658.532 307.643 657.908C308.027 657.26 308.579 656.708 309.299 656.252C310.043 655.796 310.943 655.424 311.999 655.136C313.079 654.824 314.303 654.572 315.671 654.38L325.643 652.976ZM316.103 663.092C316.535 663.092 317.039 663.068 317.615 663.02C318.215 662.972 318.887 662.852 319.631 662.66C320.399 662.468 321.263 662.18 322.223 661.796C323.183 661.412 324.251 660.896 325.427 660.248L325.643 660.14V655.028L316.067 656.432C314.051 656.696 312.551 657.104 311.567 657.656C310.583 658.184 310.091 658.964 310.091 659.996C310.091 662.06 312.095 663.092 316.103 663.092ZM338.907 646.532V653.516H353.667V646.532H356.799V665H353.667V655.82H338.907V665H335.775V646.532H338.907ZM365.994 646.532V661.364L381.906 646.532H385.326V665H382.266V649.484L365.49 665H362.934V646.532H365.994ZM393.874 656.36C393.898 657.656 394.078 658.736 394.414 659.6C394.774 660.464 395.29 661.16 395.962 661.688C396.634 662.192 397.474 662.564 398.482 662.804C399.514 663.02 400.738 663.128 402.154 663.128C404.458 663.128 406.306 662.852 407.698 662.3C409.09 661.748 409.786 660.932 409.786 659.852V659.384H412.666V659.888C412.666 660.848 412.414 661.688 411.91 662.408C411.406 663.104 410.686 663.68 409.75 664.136C408.814 664.592 407.686 664.928 406.366 665.144C405.07 665.384 403.618 665.504 402.01 665.504C400.066 665.504 398.386 665.336 396.97 665C395.578 664.64 394.426 664.076 393.514 663.308C392.626 662.54 391.966 661.544 391.534 660.32C391.126 659.096 390.922 657.608 390.922 655.856C390.922 654.128 391.126 652.652 391.534 651.428C391.966 650.18 392.626 649.16 393.514 648.368C394.426 647.576 395.578 647 396.97 646.64C398.386 646.256 400.09 646.064 402.082 646.064C404.146 646.064 405.862 646.256 407.23 646.64C408.622 647 409.726 647.54 410.542 648.26C411.382 648.956 411.97 649.808 412.306 650.816C412.666 651.824 412.846 652.976 412.846 654.272C412.846 654.704 412.834 655.1 412.81 655.46C412.786 655.796 412.75 656.096 412.702 656.36H393.874ZM402.118 648.44C399.55 648.44 397.606 648.872 396.286 649.736C394.966 650.6 394.186 652.1 393.946 654.236H409.93C409.954 654.14 409.966 653.984 409.966 653.768C409.942 652.928 409.798 652.184 409.534 651.536C409.27 650.864 408.838 650.3 408.238 649.844C407.638 649.388 406.834 649.04 405.826 648.8C404.842 648.56 403.606 648.44 402.118 648.44ZM468.174 646.532V665H465.042V648.8H450.282V665H447.15V646.532H468.174ZM478.125 659.024C479.133 660.32 480.333 661.304 481.725 661.976C483.117 662.624 484.881 662.948 487.017 662.948C487.905 662.948 488.757 662.876 489.573 662.732C490.389 662.564 491.109 662.228 491.733 661.724C492.357 661.22 492.849 660.5 493.209 659.564C493.593 658.628 493.785 657.38 493.785 655.82C493.785 654.26 493.593 653.012 493.209 652.076C492.849 651.14 492.345 650.432 491.697 649.952C491.073 649.448 490.353 649.124 489.537 648.98C488.745 648.812 487.917 648.728 487.053 648.728C484.965 648.728 483.213 649.052 481.797 649.7C480.381 650.348 479.157 651.344 478.125 652.688V659.024ZM478.017 646.532V650.06C478.905 648.836 480.177 647.9 481.833 647.252C483.513 646.58 485.565 646.244 487.989 646.244C489.213 646.244 490.365 646.364 491.445 646.604C492.525 646.844 493.473 647.312 494.289 648.008C495.105 648.704 495.741 649.676 496.197 650.924C496.677 652.148 496.917 653.768 496.917 655.784C496.917 657.8 496.677 659.432 496.197 660.68C495.741 661.928 495.105 662.9 494.289 663.596C493.473 664.292 492.513 664.76 491.409 665C490.329 665.24 489.177 665.36 487.953 665.36C486.537 665.36 485.277 665.252 484.173 665.036C483.093 664.82 482.157 664.544 481.365 664.208C480.573 663.848 479.913 663.452 479.385 663.02C478.881 662.588 478.497 662.156 478.233 661.724L478.125 672.344H474.993V646.532H478.017ZM513.421 646.064C515.389 646.064 517.081 646.244 518.497 646.604C519.913 646.94 521.065 647.492 521.953 648.26C522.841 649.028 523.489 650.036 523.897 651.284C524.329 652.508 524.545 654.008 524.545 655.784C524.545 657.584 524.329 659.108 523.897 660.356C523.489 661.58 522.841 662.576 521.953 663.344C521.065 664.112 519.913 664.664 518.497 665C517.081 665.336 515.389 665.504 513.421 665.504C511.453 665.504 509.761 665.336 508.345 665C506.953 664.664 505.801 664.112 504.889 663.344C504.001 662.576 503.341 661.58 502.909 660.356C502.501 659.108 502.297 657.584 502.297 655.784C502.297 654.008 502.501 652.508 502.909 651.284C503.341 650.036 504.001 649.028 504.889 648.26C505.801 647.492 506.953 646.94 508.345 646.604C509.761 646.244 511.453 646.064 513.421 646.064ZM513.421 648.512C512.005 648.512 510.781 648.632 509.749 648.872C508.741 649.112 507.913 649.52 507.265 650.096C506.617 650.648 506.137 651.392 505.825 652.328C505.537 653.24 505.393 654.392 505.393 655.784C505.393 657.176 505.537 658.34 505.825 659.276C506.137 660.212 506.617 660.956 507.265 661.508C507.913 662.06 508.741 662.456 509.749 662.696C510.781 662.936 512.005 663.056 513.421 663.056C514.861 663.056 516.085 662.936 517.093 662.696C518.101 662.456 518.929 662.06 519.577 661.508C520.225 660.956 520.693 660.212 520.981 659.276C521.293 658.34 521.449 657.176 521.449 655.784C521.449 654.392 521.293 653.24 520.981 652.328C520.693 651.392 520.225 650.648 519.577 650.096C518.929 649.52 518.101 649.112 517.093 648.872C516.085 648.632 514.861 648.512 513.421 648.512ZM531.005 646.532V662.732H539.861V646.532H542.597V662.732H551.417V646.532H554.225V665H528.233V646.532H531.005ZM579.621 646.532V665H576.453V648.8H563.817V656.864C563.817 658.424 563.673 659.72 563.385 660.752C563.097 661.784 562.653 662.624 562.053 663.272C561.453 663.896 560.685 664.34 559.749 664.604C558.837 664.868 557.733 665 556.437 665H555.141V662.732H556.149C556.965 662.732 557.661 662.66 558.237 662.516C558.813 662.372 559.281 662.084 559.641 661.652C560.001 661.22 560.265 660.62 560.433 659.852C560.601 659.084 560.685 658.088 560.685 656.864V646.532H579.621ZM596.952 646.064C598.92 646.064 600.612 646.244 602.028 646.604C603.444 646.94 604.596 647.492 605.484 648.26C606.372 649.028 607.02 650.036 607.428 651.284C607.86 652.508 608.076 654.008 608.076 655.784C608.076 657.584 607.86 659.108 607.428 660.356C607.02 661.58 606.372 662.576 605.484 663.344C604.596 664.112 603.444 664.664 602.028 665C600.612 665.336 598.92 665.504 596.952 665.504C594.984 665.504 593.292 665.336 591.876 665C590.484 664.664 589.332 664.112 588.42 663.344C587.532 662.576 586.872 661.58 586.44 660.356C586.032 659.108 585.828 657.584 585.828 655.784C585.828 654.008 586.032 652.508 586.44 651.284C586.872 650.036 587.532 649.028 588.42 648.26C589.332 647.492 590.484 646.94 591.876 646.604C593.292 646.244 594.984 646.064 596.952 646.064ZM596.952 648.512C595.536 648.512 594.312 648.632 593.28 648.872C592.272 649.112 591.444 649.52 590.796 650.096C590.148 650.648 589.668 651.392 589.356 652.328C589.068 653.24 588.924 654.392 588.924 655.784C588.924 657.176 589.068 658.34 589.356 659.276C589.668 660.212 590.148 660.956 590.796 661.508C591.444 662.06 592.272 662.456 593.28 662.696C594.312 662.936 595.536 663.056 596.952 663.056C598.392 663.056 599.616 662.936 600.624 662.696C601.632 662.456 602.46 662.06 603.108 661.508C603.756 660.956 604.224 660.212 604.512 659.276C604.824 658.34 604.98 657.176 604.98 655.784C604.98 654.392 604.824 653.24 604.512 652.328C604.224 651.392 603.756 650.648 603.108 650.096C602.46 649.52 601.632 649.112 600.624 648.872C599.616 648.632 598.392 648.512 596.952 648.512ZM102.235 689.532V696.516H116.995V689.532H120.127V708H116.995V698.82H102.235V708H99.1028V689.532H102.235ZM129.359 699.36C129.383 700.656 129.563 701.736 129.899 702.6C130.259 703.464 130.775 704.16 131.447 704.688C132.119 705.192 132.959 705.564 133.967 705.804C134.999 706.02 136.223 706.128 137.639 706.128C139.943 706.128 141.791 705.852 143.183 705.3C144.575 704.748 145.271 703.932 145.271 702.852V702.384H148.151V702.888C148.151 703.848 147.899 704.688 147.395 705.408C146.891 706.104 146.171 706.68 145.235 707.136C144.299 707.592 143.171 707.928 141.851 708.144C140.555 708.384 139.103 708.504 137.495 708.504C135.551 708.504 133.871 708.336 132.455 708C131.063 707.64 129.911 707.076 128.999 706.308C128.111 705.54 127.451 704.544 127.019 703.32C126.611 702.096 126.407 700.608 126.407 698.856C126.407 697.128 126.611 695.652 127.019 694.428C127.451 693.18 128.111 692.16 128.999 691.368C129.911 690.576 131.063 690 132.455 689.64C133.871 689.256 135.575 689.064 137.567 689.064C139.631 689.064 141.347 689.256 142.715 689.64C144.107 690 145.211 690.54 146.027 691.26C146.867 691.956 147.455 692.808 147.791 693.816C148.151 694.824 148.331 695.976 148.331 697.272C148.331 697.704 148.319 698.1 148.295 698.46C148.271 698.796 148.235 699.096 148.187 699.36H129.359ZM137.603 691.44C135.035 691.44 133.091 691.872 131.771 692.736C130.451 693.6 129.671 695.1 129.431 697.236H145.415C145.439 697.14 145.451 696.984 145.451 696.768C145.427 695.928 145.283 695.184 145.019 694.536C144.755 693.864 144.323 693.3 143.723 692.844C143.123 692.388 142.319 692.04 141.311 691.8C140.327 691.56 139.091 691.44 137.603 691.44ZM155.87 689.532L164.906 702.096L174.806 689.532H178.262L157.922 715.344H154.43L163.214 704.22L152.414 689.532H155.87ZM204.63 689.532V705.732H207.078V713.616H204.27V708H182.058V713.616H179.25V705.732H180.258C180.834 705.732 181.446 705.684 182.094 705.588C182.742 705.492 183.342 705.216 183.894 704.76C184.446 704.304 184.902 703.608 185.262 702.672C185.622 701.736 185.802 700.44 185.802 698.784V689.532H204.63ZM188.934 698.82C188.934 700.452 188.754 701.832 188.394 702.96C188.034 704.088 187.518 705.012 186.846 705.732H201.498V691.8H188.934V698.82ZM228.19 695.976V695.328C228.19 693.864 227.53 692.856 226.21 692.304C224.914 691.752 223.114 691.476 220.81 691.476C219.754 691.476 218.842 691.524 218.074 691.62C217.306 691.692 216.634 691.8 216.058 691.944C215.482 692.088 215.002 692.244 214.618 692.412C214.234 692.58 213.922 692.748 213.682 692.916V695.364H210.802V691.908C211.762 690.924 213.142 690.204 214.942 689.748C216.766 689.292 218.842 689.064 221.17 689.064C222.706 689.064 224.086 689.172 225.31 689.388C226.558 689.58 227.614 689.916 228.478 690.396C229.342 690.876 230.002 691.512 230.458 692.304C230.938 693.072 231.178 694.02 231.178 695.148V704.76C231.178 705.168 231.262 705.432 231.43 705.552C231.622 705.648 231.982 705.696 232.51 705.696H233.338V708H231.538C229.33 708 228.214 707.16 228.19 705.48C227.206 706.008 226.282 706.452 225.418 706.812C224.554 707.172 223.702 707.472 222.862 707.712C222.046 707.928 221.218 708.084 220.378 708.18C219.538 708.3 218.65 708.36 217.714 708.36C214.93 708.36 212.89 707.904 211.594 706.992C210.298 706.056 209.65 704.784 209.65 703.176C209.65 702.288 209.83 701.532 210.19 700.908C210.574 700.26 211.126 699.708 211.846 699.252C212.59 698.796 213.49 698.424 214.546 698.136C215.626 697.824 216.85 697.572 218.218 697.38L228.19 695.976ZM218.65 706.092C219.082 706.092 219.586 706.068 220.162 706.02C220.762 705.972 221.434 705.852 222.178 705.66C222.946 705.468 223.81 705.18 224.77 704.796C225.73 704.412 226.798 703.896 227.974 703.248L228.19 703.14V698.028L218.614 699.432C216.598 699.696 215.098 700.104 214.114 700.656C213.13 701.184 212.638 701.964 212.638 702.996C212.638 705.06 214.642 706.092 218.65 706.092ZM241.202 689.532V694.752C241.202 695.808 241.322 696.684 241.562 697.38C241.802 698.052 242.15 698.58 242.606 698.964C243.086 699.348 243.674 699.612 244.37 699.756C245.09 699.9 245.918 699.972 246.854 699.972C249.182 699.972 251.102 699.624 252.614 698.928C254.126 698.208 255.338 697.236 256.25 696.012V689.532H259.418V708H256.25V698.676C255.458 699.756 254.186 700.656 252.434 701.376C250.706 702.096 248.57 702.456 246.026 702.456C244.754 702.456 243.614 702.348 242.606 702.132C241.622 701.892 240.782 701.496 240.086 700.944C239.414 700.368 238.898 699.6 238.538 698.64C238.202 697.656 238.034 696.408 238.034 694.896V689.532H241.202ZM269.297 689.532V696.516H284.057V689.532H287.189V708H284.057V698.82H269.297V708H266.165V689.532H269.297ZM304.593 689.064C306.561 689.064 308.253 689.244 309.669 689.604C311.085 689.94 312.237 690.492 313.125 691.26C314.013 692.028 314.661 693.036 315.069 694.284C315.501 695.508 315.717 697.008 315.717 698.784C315.717 700.584 315.501 702.108 315.069 703.356C314.661 704.58 314.013 705.576 313.125 706.344C312.237 707.112 311.085 707.664 309.669 708C308.253 708.336 306.561 708.504 304.593 708.504C302.625 708.504 300.933 708.336 299.517 708C298.125 707.664 296.973 707.112 296.061 706.344C295.173 705.576 294.513 704.58 294.081 703.356C293.673 702.108 293.469 700.584 293.469 698.784C293.469 697.008 293.673 695.508 294.081 694.284C294.513 693.036 295.173 692.028 296.061 691.26C296.973 690.492 298.125 689.94 299.517 689.604C300.933 689.244 302.625 689.064 304.593 689.064ZM304.593 691.512C303.177 691.512 301.953 691.632 300.921 691.872C299.913 692.112 299.085 692.52 298.437 693.096C297.789 693.648 297.309 694.392 296.997 695.328C296.709 696.24 296.565 697.392 296.565 698.784C296.565 700.176 296.709 701.34 296.997 702.276C297.309 703.212 297.789 703.956 298.437 704.508C299.085 705.06 299.913 705.456 300.921 705.696C301.953 705.936 303.177 706.056 304.593 706.056C306.033 706.056 307.257 705.936 308.265 705.696C309.273 705.456 310.101 705.06 310.749 704.508C311.397 703.956 311.865 703.212 312.153 702.276C312.465 701.34 312.621 700.176 312.621 698.784C312.621 697.392 312.465 696.24 312.153 695.328C311.865 694.392 311.397 693.648 310.749 693.096C310.101 692.52 309.273 692.112 308.265 691.872C307.257 691.632 306.033 691.512 304.593 691.512ZM329.953 713.292C330.361 712.524 330.757 711.696 331.141 710.808C331.549 709.92 331.873 709.008 332.113 708.072C331.345 708.072 330.697 707.832 330.169 707.352C329.665 706.848 329.413 706.128 329.413 705.192C329.413 704.4 329.641 703.776 330.097 703.32C330.577 702.864 331.345 702.636 332.401 702.636C333.505 702.636 334.273 702.888 334.705 703.392C335.161 703.896 335.389 704.604 335.389 705.516C335.389 706.164 335.293 706.872 335.101 707.64C334.933 708.408 334.717 709.152 334.453 709.872C334.213 710.616 333.961 711.288 333.697 711.888C333.433 712.488 333.217 712.956 333.049 713.292H329.953ZM390.284 689.532C393.284 689.532 395.444 689.88 396.764 690.576C398.108 691.272 398.78 692.472 398.78 694.176C398.78 695.256 398.528 696.132 398.024 696.804C397.544 697.452 396.884 697.944 396.044 698.28C397.148 698.616 398.036 699.156 398.708 699.9C399.38 700.62 399.716 701.652 399.716 702.996C399.716 704.796 398.996 706.08 397.556 706.848C396.116 707.616 393.824 708 390.68 708H377.504V689.532H390.284ZM380.672 705.804H390.428C391.58 705.804 392.552 705.756 393.344 705.66C394.136 705.564 394.772 705.396 395.252 705.156C395.756 704.916 396.116 704.592 396.332 704.184C396.548 703.776 396.656 703.26 396.656 702.636C396.656 701.94 396.512 701.376 396.224 700.944C395.96 700.512 395.552 700.188 395 699.972C394.448 699.732 393.764 699.576 392.948 699.504C392.132 699.432 391.196 699.396 390.14 699.396H380.672V705.804ZM380.672 697.416H390.176C391.208 697.416 392.072 697.38 392.768 697.308C393.488 697.212 394.076 697.056 394.532 696.84C394.988 696.624 395.312 696.336 395.504 695.976C395.72 695.592 395.828 695.1 395.828 694.5C395.828 693.924 395.72 693.456 395.504 693.096C395.312 692.736 394.988 692.46 394.532 692.268C394.076 692.076 393.488 691.944 392.768 691.872C392.048 691.8 391.172 691.764 390.14 691.764H380.672V697.416ZM407.796 699.36C407.82 700.656 408 701.736 408.336 702.6C408.696 703.464 409.212 704.16 409.884 704.688C410.556 705.192 411.396 705.564 412.404 705.804C413.436 706.02 414.66 706.128 416.076 706.128C418.38 706.128 420.228 705.852 421.62 705.3C423.012 704.748 423.708 703.932 423.708 702.852V702.384H426.588V702.888C426.588 703.848 426.336 704.688 425.832 705.408C425.328 706.104 424.608 706.68 423.672 707.136C422.736 707.592 421.608 707.928 420.288 708.144C418.992 708.384 417.54 708.504 415.932 708.504C413.988 708.504 412.308 708.336 410.892 708C409.5 707.64 408.348 707.076 407.436 706.308C406.548 705.54 405.888 704.544 405.456 703.32C405.048 702.096 404.844 700.608 404.844 698.856C404.844 697.128 405.048 695.652 405.456 694.428C405.888 693.18 406.548 692.16 407.436 691.368C408.348 690.576 409.5 690 410.892 689.64C412.308 689.256 414.012 689.064 416.004 689.064C418.068 689.064 419.784 689.256 421.152 689.64C422.544 690 423.648 690.54 424.464 691.26C425.304 691.956 425.892 692.808 426.228 693.816C426.588 694.824 426.768 695.976 426.768 697.272C426.768 697.704 426.756 698.1 426.732 698.46C426.708 698.796 426.672 699.096 426.624 699.36H407.796ZM416.04 691.44C413.472 691.44 411.528 691.872 410.208 692.736C408.888 693.6 408.108 695.1 407.868 697.236H423.852C423.876 697.14 423.888 696.984 423.888 696.768C423.864 695.928 423.72 695.184 423.456 694.536C423.192 693.864 422.76 693.3 422.16 692.844C421.56 692.388 420.756 692.04 419.748 691.8C418.764 691.56 417.528 691.44 416.04 691.44ZM455.224 689.532V705.732H457.672V713.616H454.864V708H432.652V713.616H429.844V705.732H430.852C431.428 705.732 432.04 705.684 432.688 705.588C433.336 705.492 433.936 705.216 434.488 704.76C435.04 704.304 435.496 703.608 435.856 702.672C436.216 701.736 436.396 700.44 436.396 698.784V689.532H455.224ZM439.528 698.82C439.528 700.452 439.348 701.832 438.988 702.96C438.628 704.088 438.112 705.012 437.44 705.732H452.092V691.8H439.528V698.82ZM464.204 689.532V695.004H472.052C474.236 695.004 476.036 695.112 477.452 695.328C478.868 695.52 479.984 695.868 480.8 696.372C481.64 696.876 482.216 697.548 482.528 698.388C482.864 699.204 483.032 700.236 483.032 701.484C483.032 702.732 482.864 703.776 482.528 704.616C482.216 705.456 481.64 706.128 480.8 706.632C479.984 707.136 478.868 707.496 477.452 707.712C476.036 707.904 474.236 708 472.052 708H461.072V689.532H464.204ZM464.204 705.732H472.232C473.744 705.732 474.992 705.672 475.976 705.552C476.984 705.408 477.776 705.18 478.352 704.868C478.952 704.556 479.36 704.136 479.576 703.608C479.816 703.056 479.936 702.36 479.936 701.52C479.936 700.704 479.816 700.032 479.576 699.504C479.36 698.952 478.952 698.52 478.352 698.208C477.776 697.872 476.984 697.644 475.976 697.524C474.992 697.404 473.744 697.344 472.232 697.344H464.204V705.732ZM519.891 689.532V698.82L528.351 691.692C528.879 691.26 529.359 690.9 529.791 690.612C530.247 690.324 530.727 690.108 531.231 689.964C531.735 689.796 532.299 689.688 532.923 689.64C533.547 689.568 534.303 689.532 535.191 689.532H538.179V691.8H535.155C534.507 691.8 533.943 691.836 533.463 691.908C533.007 691.956 532.599 692.04 532.239 692.16C531.879 692.256 531.543 692.4 531.231 692.592C530.943 692.76 530.643 692.964 530.331 693.204L527.955 695.076L540.735 708H536.955L525.867 696.732L519.891 701.412V708H516.723V689.532H519.891ZM555.187 689.064C557.155 689.064 558.847 689.244 560.263 689.604C561.679 689.94 562.831 690.492 563.719 691.26C564.607 692.028 565.255 693.036 565.663 694.284C566.095 695.508 566.311 697.008 566.311 698.784C566.311 700.584 566.095 702.108 565.663 703.356C565.255 704.58 564.607 705.576 563.719 706.344C562.831 707.112 561.679 707.664 560.263 708C558.847 708.336 557.155 708.504 555.187 708.504C553.219 708.504 551.527 708.336 550.111 708C548.719 707.664 547.567 707.112 546.655 706.344C545.767 705.576 545.107 704.58 544.675 703.356C544.267 702.108 544.063 700.584 544.063 698.784C544.063 697.008 544.267 695.508 544.675 694.284C545.107 693.036 545.767 692.028 546.655 691.26C547.567 690.492 548.719 689.94 550.111 689.604C551.527 689.244 553.219 689.064 555.187 689.064ZM555.187 691.512C553.771 691.512 552.547 691.632 551.515 691.872C550.507 692.112 549.679 692.52 549.031 693.096C548.383 693.648 547.903 694.392 547.591 695.328C547.303 696.24 547.159 697.392 547.159 698.784C547.159 700.176 547.303 701.34 547.591 702.276C547.903 703.212 548.383 703.956 549.031 704.508C549.679 705.06 550.507 705.456 551.515 705.696C552.547 705.936 553.771 706.056 555.187 706.056C556.627 706.056 557.851 705.936 558.859 705.696C559.867 705.456 560.695 705.06 561.343 704.508C561.991 703.956 562.459 703.212 562.747 702.276C563.059 701.34 563.215 700.176 563.215 698.784C563.215 697.392 563.059 696.24 562.747 695.328C562.459 694.392 561.991 693.648 561.343 693.096C560.695 692.52 559.867 692.112 558.859 691.872C557.851 691.632 556.627 691.512 555.187 691.512ZM594.407 689.532V691.8H575.579V708H572.447V689.532H594.407ZM610.874 689.064C612.842 689.064 614.534 689.244 615.95 689.604C617.366 689.94 618.518 690.492 619.406 691.26C620.294 692.028 620.942 693.036 621.35 694.284C621.782 695.508 621.998 697.008 621.998 698.784C621.998 700.584 621.782 702.108 621.35 703.356C620.942 704.58 620.294 705.576 619.406 706.344C618.518 707.112 617.366 707.664 615.95 708C614.534 708.336 612.842 708.504 610.874 708.504C608.906 708.504 607.214 708.336 605.798 708C604.406 707.664 603.254 707.112 602.342 706.344C601.454 705.576 600.794 704.58 600.362 703.356C599.954 702.108 599.75 700.584 599.75 698.784C599.75 697.008 599.954 695.508 600.362 694.284C600.794 693.036 601.454 692.028 602.342 691.26C603.254 690.492 604.406 689.94 605.798 689.604C607.214 689.244 608.906 689.064 610.874 689.064ZM610.874 691.512C609.458 691.512 608.234 691.632 607.202 691.872C606.194 692.112 605.366 692.52 604.718 693.096C604.07 693.648 603.59 694.392 603.278 695.328C602.99 696.24 602.846 697.392 602.846 698.784C602.846 700.176 602.99 701.34 603.278 702.276C603.59 703.212 604.07 703.956 604.718 704.508C605.366 705.06 606.194 705.456 607.202 705.696C608.234 705.936 609.458 706.056 610.874 706.056C612.314 706.056 613.538 705.936 614.546 705.696C615.554 705.456 616.382 705.06 617.03 704.508C617.678 703.956 618.146 703.212 618.434 702.276C618.746 701.34 618.902 700.176 618.902 698.784C618.902 697.392 618.746 696.24 618.434 695.328C618.146 694.392 617.678 693.648 617.03 693.096C616.382 692.52 615.554 692.112 614.546 691.872C613.538 691.632 612.314 691.512 610.874 691.512ZM648.114 694.824V697.308H629.25V694.824H648.114ZM678.586 689.532V691.8H668.074V708H664.942V691.8H654.43V689.532H678.586ZM694.406 689.064C696.374 689.064 698.066 689.244 699.482 689.604C700.898 689.94 702.049 690.492 702.938 691.26C703.826 692.028 704.474 693.036 704.882 694.284C705.314 695.508 705.53 697.008 705.53 698.784C705.53 700.584 705.314 702.108 704.882 703.356C704.474 704.58 703.826 705.576 702.938 706.344C702.049 707.112 700.898 707.664 699.482 708C698.066 708.336 696.374 708.504 694.406 708.504C692.438 708.504 690.746 708.336 689.33 708C687.938 707.664 686.786 707.112 685.874 706.344C684.986 705.576 684.326 704.58 683.894 703.356C683.486 702.108 683.282 700.584 683.282 698.784C683.282 697.008 683.486 695.508 683.894 694.284C684.326 693.036 684.986 692.028 685.874 691.26C686.786 690.492 687.938 689.94 689.33 689.604C690.746 689.244 692.438 689.064 694.406 689.064ZM694.406 691.512C692.99 691.512 691.766 691.632 690.734 691.872C689.726 692.112 688.898 692.52 688.25 693.096C687.602 693.648 687.122 694.392 686.81 695.328C686.522 696.24 686.378 697.392 686.378 698.784C686.378 700.176 686.522 701.34 686.81 702.276C687.122 703.212 687.602 703.956 688.25 704.508C688.898 705.06 689.726 705.456 690.734 705.696C691.766 705.936 692.99 706.056 694.406 706.056C695.846 706.056 697.07 705.936 698.078 705.696C699.086 705.456 699.914 705.06 700.562 704.508C701.21 703.956 701.678 703.212 701.966 702.276C702.278 701.34 702.434 700.176 702.434 698.784C702.434 697.392 702.278 696.24 701.966 695.328C701.678 694.392 701.21 693.648 700.562 693.096C699.914 692.52 699.086 692.112 698.078 691.872C697.07 691.632 695.846 691.512 694.406 691.512ZM295.089 732.532L304.125 745.096L314.025 732.532H317.481L297.141 758.344H293.649L302.433 747.22L291.633 732.532H295.089ZM344.461 725.044C343.477 725.716 342.205 726.052 340.645 726.052C339.877 726.052 339.121 725.992 338.377 725.872C337.633 725.728 336.877 725.584 336.109 725.44C335.341 725.272 334.561 725.128 333.769 725.008C332.977 724.864 332.149 724.792 331.285 724.792C330.133 724.792 329.137 724.96 328.297 725.296C327.457 725.608 326.749 726.172 326.173 726.988C325.621 727.78 325.189 728.848 324.877 730.192C324.589 731.536 324.409 733.228 324.337 735.268C324.793 734.788 325.321 734.332 325.921 733.9C326.545 733.468 327.265 733.084 328.081 732.748C328.897 732.412 329.821 732.148 330.853 731.956C331.909 731.764 333.109 731.668 334.453 731.668C335.917 731.668 337.213 731.824 338.341 732.136C339.493 732.424 340.453 732.94 341.221 733.684C341.989 734.428 342.565 735.436 342.949 736.708C343.357 737.956 343.561 739.528 343.561 741.424C343.561 743.296 343.357 744.88 342.949 746.176C342.541 747.448 341.881 748.48 340.969 749.272C340.081 750.064 338.929 750.64 337.513 751C336.097 751.336 334.381 751.504 332.365 751.504C330.133 751.504 328.297 751.288 326.857 750.856C325.417 750.424 324.289 749.68 323.473 748.624C322.657 747.568 322.093 746.152 321.781 744.376C321.469 742.6 321.313 740.368 321.313 737.68C321.313 734.728 321.481 732.268 321.817 730.3C322.153 728.308 322.705 726.712 323.473 725.512C324.241 724.312 325.237 723.46 326.461 722.956C327.709 722.452 329.233 722.2 331.033 722.2C332.113 722.2 333.085 722.272 333.949 722.416C334.837 722.56 335.653 722.728 336.397 722.92C337.141 723.088 337.849 723.244 338.521 723.388C339.217 723.532 339.925 723.604 340.645 723.604C341.293 723.604 341.917 723.508 342.517 723.316C343.141 723.124 343.789 722.752 344.461 722.2V725.044ZM333.985 734.008C331.753 734.008 329.881 734.368 328.369 735.088C326.857 735.808 325.501 736.732 324.301 737.86C324.301 740.14 324.421 742 324.661 743.44C324.901 744.88 325.321 746.02 325.921 746.86C326.545 747.7 327.373 748.276 328.405 748.588C329.461 748.9 330.793 749.056 332.401 749.056C333.865 749.056 335.101 748.936 336.109 748.696C337.141 748.456 337.981 748.048 338.629 747.472C339.277 746.872 339.745 746.08 340.033 745.096C340.321 744.088 340.465 742.84 340.465 741.352C340.465 739.888 340.321 738.676 340.033 737.716C339.769 736.756 339.361 736.012 338.809 735.484C338.281 734.932 337.609 734.548 336.793 734.332C336.001 734.116 335.065 734.008 333.985 734.008ZM352.073 732.532V747.364L367.985 732.532H371.405V751H368.345V735.484L351.569 751H349.013V732.532H352.073ZM398.636 732.532V751H395.468V734.8H382.832V742.864C382.832 744.424 382.688 745.72 382.4 746.752C382.112 747.784 381.668 748.624 381.068 749.272C380.468 749.896 379.7 750.34 378.764 750.604C377.852 750.868 376.748 751 375.452 751H374.156V748.732H375.164C375.98 748.732 376.676 748.66 377.252 748.516C377.828 748.372 378.296 748.084 378.656 747.652C379.016 747.22 379.28 746.62 379.448 745.852C379.616 745.084 379.7 744.088 379.7 742.864V732.532H398.636ZM407.76 732.532V747.364L423.672 732.532H427.092V751H424.032V735.484L407.256 751H404.7V732.532H407.76ZM468.632 747.256C468.632 745.408 469.628 744.484 471.62 744.484C473.612 744.484 474.608 745.408 474.608 747.256C474.608 749.152 473.612 750.1 471.62 750.1C469.628 750.1 468.632 749.152 468.632 747.256ZM468.632 733.936C468.632 732.088 469.628 731.164 471.62 731.164C473.612 731.164 474.608 732.088 474.608 733.936C474.608 735.832 473.612 736.78 471.62 736.78C469.628 736.78 468.632 735.832 468.632 733.936ZM511.235 715.684C508.523 717.052 506.171 718.564 504.179 720.22C502.211 721.876 500.579 723.628 499.283 725.476C497.987 727.3 497.015 729.196 496.367 731.164C495.743 733.108 495.431 735.052 495.431 736.996C495.431 738.964 495.743 740.932 496.367 742.9C497.015 744.844 497.987 746.74 499.283 748.588C500.579 750.412 502.211 752.152 504.179 753.808C506.171 755.464 508.523 756.976 511.235 758.344H507.239C504.863 757.168 502.727 755.788 500.831 754.204C498.935 752.644 497.327 750.952 496.007 749.128C494.711 747.28 493.703 745.336 492.983 743.296C492.287 741.232 491.939 739.132 491.939 736.996C491.939 734.86 492.287 732.772 492.983 730.732C493.703 728.692 494.711 726.76 496.007 724.936C497.327 723.088 498.935 721.384 500.831 719.824C502.727 718.24 504.863 716.86 507.239 715.684H511.235ZM124.365 765.704C126.285 765.704 127.917 765.836 129.261 766.1C130.629 766.34 131.733 766.736 132.573 767.288C133.437 767.84 134.061 768.548 134.445 769.412C134.829 770.276 135.021 771.332 135.021 772.58C135.021 774.38 134.673 775.808 133.977 776.864C133.281 777.896 132.357 778.652 131.205 779.132C131.901 779.348 132.537 779.648 133.113 780.032C133.713 780.416 134.229 780.908 134.661 781.508C135.093 782.108 135.429 782.816 135.669 783.632C135.933 784.448 136.065 785.396 136.065 786.476C136.065 787.844 135.849 789.008 135.417 789.968C135.009 790.928 134.361 791.708 133.473 792.308C132.585 792.884 131.433 793.316 130.017 793.604C128.601 793.868 126.909 794 124.941 794H112.089V765.704H124.365ZM115.365 791.516H124.725C126.213 791.516 127.473 791.42 128.505 791.228C129.537 791.036 130.365 790.724 130.989 790.292C131.637 789.86 132.105 789.296 132.393 788.6C132.681 787.88 132.825 786.992 132.825 785.936C132.825 784.784 132.645 783.848 132.285 783.128C131.925 782.384 131.397 781.82 130.701 781.436C130.029 781.028 129.189 780.752 128.181 780.608C127.173 780.464 126.021 780.392 124.725 780.392H115.365V791.516ZM115.365 778.16H124.761C126.033 778.16 127.125 778.088 128.037 777.944C128.949 777.776 129.693 777.512 130.269 777.152C130.845 776.768 131.265 776.252 131.529 775.604C131.817 774.932 131.961 774.092 131.961 773.084C131.961 772.172 131.829 771.404 131.565 770.78C131.301 770.156 130.857 769.652 130.233 769.268C129.633 768.884 128.841 768.608 127.857 768.44C126.897 768.272 125.709 768.188 124.293 768.188H115.365V778.16ZM186.964 779.06C186.412 778.676 185.548 778.328 184.372 778.016C183.196 777.68 181.612 777.512 179.62 777.512C178.108 777.512 176.824 777.632 175.768 777.872C174.712 778.088 173.848 778.472 173.176 779.024C172.528 779.576 172.048 780.32 171.736 781.256C171.424 782.192 171.268 783.356 171.268 784.748C171.268 786.164 171.412 787.34 171.7 788.276C172.012 789.212 172.492 789.968 173.14 790.544C173.812 791.096 174.664 791.492 175.696 791.732C176.728 791.948 177.964 792.056 179.404 792.056C180.532 792.056 181.564 791.996 182.5 791.876C183.436 791.732 184.24 791.516 184.912 791.228C185.584 790.94 186.1 790.568 186.46 790.112C186.844 789.632 187.036 789.056 187.036 788.384V787.844H189.916V788.456C189.916 789.56 189.664 790.496 189.16 791.264C188.656 792.032 187.936 792.656 187 793.136C186.064 793.616 184.936 793.964 183.616 794.18C182.32 794.396 180.88 794.504 179.296 794.504C177.328 794.504 175.636 794.336 174.22 794C172.828 793.664 171.676 793.112 170.764 792.344C169.876 791.576 169.216 790.58 168.784 789.356C168.376 788.108 168.172 786.584 168.172 784.784C168.172 782.984 168.376 781.472 168.784 780.248C169.216 779 169.876 777.992 170.764 777.224C171.676 776.456 172.84 775.904 174.256 775.568C175.672 775.232 177.376 775.064 179.368 775.064C180.976 775.064 182.368 775.16 183.544 775.352C184.72 775.52 185.716 775.748 186.532 776.036C187.372 776.324 188.056 776.636 188.584 776.972C189.136 777.308 189.58 777.62 189.916 777.908V781.904H186.964V779.06ZM217.652 775.532V794H214.484V777.8H201.848V785.864C201.848 787.424 201.704 788.72 201.416 789.752C201.128 790.784 200.684 791.624 200.084 792.272C199.484 792.896 198.716 793.34 197.78 793.604C196.868 793.868 195.764 794 194.468 794H193.172V791.732H194.18C194.996 791.732 195.692 791.66 196.268 791.516C196.844 791.372 197.312 791.084 197.672 790.652C198.032 790.22 198.296 789.62 198.464 788.852C198.632 788.084 198.716 787.088 198.716 785.864V775.532H217.652ZM226.812 785.36C226.836 786.656 227.016 787.736 227.352 788.6C227.712 789.464 228.228 790.16 228.9 790.688C229.572 791.192 230.412 791.564 231.42 791.804C232.452 792.02 233.676 792.128 235.092 792.128C237.396 792.128 239.244 791.852 240.636 791.3C242.028 790.748 242.724 789.932 242.724 788.852V788.384H245.604V788.888C245.604 789.848 245.352 790.688 244.848 791.408C244.344 792.104 243.624 792.68 242.688 793.136C241.752 793.592 240.624 793.928 239.304 794.144C238.008 794.384 236.556 794.504 234.948 794.504C233.004 794.504 231.324 794.336 229.908 794C228.516 793.64 227.364 793.076 226.452 792.308C225.564 791.54 224.904 790.544 224.472 789.32C224.064 788.096 223.86 786.608 223.86 784.856C223.86 783.128 224.064 781.652 224.472 780.428C224.904 779.18 225.564 778.16 226.452 777.368C227.364 776.576 228.516 776 229.908 775.64C231.324 775.256 233.028 775.064 235.02 775.064C237.084 775.064 238.8 775.256 240.168 775.64C241.56 776 242.664 776.54 243.48 777.26C244.32 777.956 244.908 778.808 245.244 779.816C245.604 780.824 245.784 781.976 245.784 783.272C245.784 783.704 245.772 784.1 245.748 784.46C245.724 784.796 245.688 785.096 245.64 785.36H226.812ZM235.056 777.44C232.488 777.44 230.544 777.872 229.224 778.736C227.904 779.6 227.124 781.1 226.884 783.236H242.868C242.892 783.14 242.904 782.984 242.904 782.768C242.88 781.928 242.736 781.184 242.472 780.536C242.208 779.864 241.776 779.3 241.176 778.844C240.576 778.388 239.772 778.04 238.764 777.8C237.78 777.56 236.544 777.44 235.056 777.44ZM274.239 775.532V791.732H276.687V799.616H273.879V794H251.667V799.616H248.859V791.732H249.867C250.443 791.732 251.055 791.684 251.703 791.588C252.351 791.492 252.951 791.216 253.503 790.76C254.055 790.304 254.511 789.608 254.871 788.672C255.231 787.736 255.411 786.44 255.411 784.784V775.532H274.239ZM258.543 784.82C258.543 786.452 258.363 787.832 258.003 788.96C257.643 790.088 257.127 791.012 256.455 791.732H271.107V777.8H258.543V784.82ZM281.167 775.532L290.203 788.096L300.103 775.532H303.559L283.219 801.344H279.727L288.511 790.22L277.711 775.532H281.167ZM321.971 775.244C323.915 775.244 325.523 775.328 326.795 775.496C328.067 775.64 329.075 776.036 329.819 776.684C330.563 777.308 331.079 778.268 331.367 779.564C331.655 780.836 331.799 782.588 331.799 784.82C331.799 787.076 331.655 788.84 331.367 790.112C331.079 791.384 330.563 792.344 329.819 792.992C329.075 793.616 328.067 794 326.795 794.144C325.523 794.312 323.915 794.396 321.971 794.396C320.051 794.396 318.467 794.324 317.219 794.18C315.971 794.036 314.975 793.676 314.231 793.1C313.487 792.5 312.959 791.612 312.647 790.436C312.335 789.236 312.167 787.592 312.143 785.504H308.363V794H305.591V775.532H308.363V783.236H312.179C312.251 781.364 312.455 779.9 312.791 778.844C313.127 777.788 313.667 776.996 314.411 776.468C315.155 775.916 316.139 775.58 317.363 775.46C318.587 775.316 320.123 775.244 321.971 775.244ZM321.971 777.656C320.459 777.656 319.235 777.716 318.299 777.836C317.387 777.932 316.679 778.22 316.175 778.7C315.671 779.18 315.323 779.9 315.131 780.86C314.963 781.82 314.879 783.14 314.879 784.82C314.879 786.524 314.963 787.856 315.131 788.816C315.323 789.776 315.671 790.496 316.175 790.976C316.679 791.432 317.387 791.72 318.299 791.84C319.235 791.936 320.459 791.984 321.971 791.984C323.459 791.984 324.659 791.936 325.571 791.84C326.483 791.72 327.191 791.432 327.695 790.976C328.199 790.496 328.535 789.776 328.703 788.816C328.895 787.856 328.991 786.524 328.991 784.82C328.991 783.14 328.895 781.82 328.703 780.86C328.535 779.9 328.199 779.18 327.695 778.7C327.191 778.22 326.483 777.932 325.571 777.836C324.659 777.716 323.459 777.656 321.971 777.656ZM336.063 775.532V791.732H344.487V775.532H347.151V791.732H355.611V775.532H358.347V791.732H360.219V799.616H357.411V794H333.327V775.532H336.063ZM365.994 775.532V790.364L381.906 775.532H385.326V794H382.266V778.484L365.49 794H362.934V775.532H365.994ZM393.55 767.144C393.55 768.56 394.222 769.556 395.566 770.132C396.91 770.708 399.058 770.996 402.01 770.996C404.962 770.996 407.098 770.72 408.418 770.168C409.762 769.592 410.434 768.584 410.434 767.144H413.17C413.17 768.176 412.918 769.04 412.414 769.736C411.91 770.432 411.178 770.996 410.218 771.428C409.258 771.836 408.082 772.136 406.69 772.328C405.322 772.496 403.762 772.58 402.01 772.58C400.258 772.58 398.686 772.496 397.294 772.328C395.902 772.136 394.726 771.836 393.766 771.428C392.806 770.996 392.074 770.432 391.57 769.736C391.066 769.04 390.814 768.176 390.814 767.144H393.55ZM393.838 775.532V790.364L409.75 775.532H413.17V794H410.11V778.484L393.334 794H390.778V775.532H393.838ZM450.282 788.024C451.29 789.32 452.49 790.304 453.882 790.976C455.274 791.624 457.038 791.948 459.174 791.948C460.062 791.948 460.914 791.876 461.73 791.732C462.546 791.564 463.266 791.228 463.89 790.724C464.514 790.22 465.006 789.5 465.366 788.564C465.75 787.628 465.942 786.38 465.942 784.82C465.942 783.26 465.75 782.012 465.366 781.076C465.006 780.14 464.502 779.432 463.854 778.952C463.23 778.448 462.51 778.124 461.694 777.98C460.902 777.812 460.074 777.728 459.21 777.728C457.122 777.728 455.37 778.052 453.954 778.7C452.538 779.348 451.314 780.344 450.282 781.688V788.024ZM450.174 775.532V779.06C451.062 777.836 452.334 776.9 453.99 776.252C455.67 775.58 457.722 775.244 460.146 775.244C461.37 775.244 462.522 775.364 463.602 775.604C464.682 775.844 465.63 776.312 466.446 777.008C467.262 777.704 467.898 778.676 468.354 779.924C468.834 781.148 469.074 782.768 469.074 784.784C469.074 786.8 468.834 788.432 468.354 789.68C467.898 790.928 467.262 791.9 466.446 792.596C465.63 793.292 464.67 793.76 463.566 794C462.486 794.24 461.334 794.36 460.11 794.36C458.694 794.36 457.434 794.252 456.33 794.036C455.25 793.82 454.314 793.544 453.522 793.208C452.73 792.848 452.07 792.452 451.542 792.02C451.038 791.588 450.654 791.156 450.39 790.724L450.282 801.344H447.15V775.532H450.174ZM492.705 781.976V781.328C492.705 779.864 492.045 778.856 490.725 778.304C489.429 777.752 487.629 777.476 485.325 777.476C484.269 777.476 483.357 777.524 482.589 777.62C481.821 777.692 481.149 777.8 480.573 777.944C479.997 778.088 479.517 778.244 479.133 778.412C478.749 778.58 478.437 778.748 478.197 778.916V781.364H475.317V777.908C476.277 776.924 477.657 776.204 479.457 775.748C481.281 775.292 483.357 775.064 485.685 775.064C487.221 775.064 488.601 775.172 489.825 775.388C491.073 775.58 492.129 775.916 492.993 776.396C493.857 776.876 494.517 777.512 494.973 778.304C495.453 779.072 495.693 780.02 495.693 781.148V790.76C495.693 791.168 495.777 791.432 495.945 791.552C496.137 791.648 496.497 791.696 497.025 791.696H497.853V794H496.053C493.845 794 492.729 793.16 492.705 791.48C491.721 792.008 490.797 792.452 489.933 792.812C489.069 793.172 488.217 793.472 487.377 793.712C486.561 793.928 485.733 794.084 484.893 794.18C484.053 794.3 483.165 794.36 482.229 794.36C479.445 794.36 477.405 793.904 476.109 792.992C474.813 792.056 474.165 790.784 474.165 789.176C474.165 788.288 474.345 787.532 474.705 786.908C475.089 786.26 475.641 785.708 476.361 785.252C477.105 784.796 478.005 784.424 479.061 784.136C480.141 783.824 481.365 783.572 482.733 783.38L492.705 781.976ZM483.165 792.092C483.597 792.092 484.101 792.068 484.677 792.02C485.277 791.972 485.949 791.852 486.693 791.66C487.461 791.468 488.325 791.18 489.285 790.796C490.245 790.412 491.313 789.896 492.489 789.248L492.705 789.14V784.028L483.129 785.432C481.113 785.696 479.613 786.104 478.629 786.656C477.645 787.184 477.153 787.964 477.153 788.996C477.153 791.06 479.157 792.092 483.165 792.092ZM502.693 776.684C503.533 776.228 504.745 775.844 506.329 775.532C507.937 775.22 510.025 775.064 512.593 775.064C516.385 775.064 519.181 775.484 520.981 776.324C522.805 777.14 523.717 778.436 523.717 780.212C523.717 781.364 523.381 782.276 522.709 782.948C522.037 783.596 521.113 784.088 519.937 784.424C521.233 784.736 522.277 785.228 523.069 785.9C523.861 786.548 524.257 787.52 524.257 788.816C524.257 789.944 523.957 790.88 523.357 791.624C522.757 792.344 521.941 792.92 520.909 793.352C519.877 793.784 518.677 794.084 517.309 794.252C515.965 794.42 514.537 794.504 513.025 794.504C509.713 794.504 507.157 794.108 505.357 793.316C503.581 792.5 502.693 791.096 502.693 789.104V788.096H505.537V788.888C505.537 789.44 505.669 789.92 505.933 790.328C506.197 790.736 506.629 791.072 507.229 791.336C507.853 791.576 508.657 791.756 509.641 791.876C510.649 791.996 511.873 792.056 513.313 792.056C514.561 792.056 515.677 792.008 516.661 791.912C517.645 791.792 518.473 791.612 519.145 791.372C519.817 791.108 520.333 790.76 520.693 790.328C521.053 789.872 521.233 789.296 521.233 788.6C521.233 788.072 521.113 787.628 520.873 787.268C520.657 786.884 520.285 786.572 519.757 786.332C519.253 786.092 518.569 785.924 517.705 785.828C516.841 785.708 515.761 785.648 514.465 785.648H509.173V783.596H514.465C516.769 783.596 518.389 783.32 519.325 782.768C520.285 782.216 520.765 781.484 520.765 780.572C520.765 779.492 520.129 778.712 518.857 778.232C517.585 777.752 515.545 777.512 512.737 777.512C511.705 777.512 510.805 777.548 510.037 777.62C509.269 777.668 508.597 777.74 508.021 777.836C507.469 777.908 507.001 778.004 506.617 778.124C506.233 778.244 505.909 778.364 505.645 778.484V781.256H502.693V776.684ZM576.777 779.06C576.225 778.676 575.361 778.328 574.185 778.016C573.009 777.68 571.425 777.512 569.433 777.512C567.921 777.512 566.637 777.632 565.581 777.872C564.525 778.088 563.661 778.472 562.989 779.024C562.341 779.576 561.861 780.32 561.549 781.256C561.237 782.192 561.081 783.356 561.081 784.748C561.081 786.164 561.225 787.34 561.513 788.276C561.825 789.212 562.305 789.968 562.953 790.544C563.625 791.096 564.477 791.492 565.509 791.732C566.541 791.948 567.777 792.056 569.217 792.056C570.345 792.056 571.377 791.996 572.313 791.876C573.249 791.732 574.053 791.516 574.725 791.228C575.397 790.94 575.913 790.568 576.273 790.112C576.657 789.632 576.849 789.056 576.849 788.384V787.844H579.729V788.456C579.729 789.56 579.477 790.496 578.973 791.264C578.469 792.032 577.749 792.656 576.813 793.136C575.877 793.616 574.749 793.964 573.429 794.18C572.133 794.396 570.693 794.504 569.109 794.504C567.141 794.504 565.449 794.336 564.033 794C562.641 793.664 561.489 793.112 560.577 792.344C559.689 791.576 559.029 790.58 558.597 789.356C558.189 788.108 557.985 786.584 557.985 784.784C557.985 782.984 558.189 781.472 558.597 780.248C559.029 779 559.689 777.992 560.577 777.224C561.489 776.456 562.653 775.904 564.069 775.568C565.485 775.232 567.189 775.064 569.181 775.064C570.789 775.064 572.181 775.16 573.357 775.352C574.533 775.52 575.529 775.748 576.345 776.036C577.185 776.324 577.869 776.636 578.397 776.972C578.949 777.308 579.393 777.62 579.729 777.908V781.904H576.777V779.06ZM608.976 775.532V777.8H598.464V794H595.332V777.8H584.82V775.532H608.976ZM624.796 775.064C626.764 775.064 628.456 775.244 629.872 775.604C631.288 775.94 632.44 776.492 633.328 777.26C634.216 778.028 634.864 779.036 635.272 780.284C635.704 781.508 635.92 783.008 635.92 784.784C635.92 786.584 635.704 788.108 635.272 789.356C634.864 790.58 634.216 791.576 633.328 792.344C632.44 793.112 631.288 793.664 629.872 794C628.456 794.336 626.764 794.504 624.796 794.504C622.828 794.504 621.136 794.336 619.72 794C618.328 793.664 617.176 793.112 616.264 792.344C615.376 791.576 614.716 790.58 614.284 789.356C613.876 788.108 613.672 786.584 613.672 784.784C613.672 783.008 613.876 781.508 614.284 780.284C614.716 779.036 615.376 778.028 616.264 777.26C617.176 776.492 618.328 775.94 619.72 775.604C621.136 775.244 622.828 775.064 624.796 775.064ZM624.796 777.512C623.38 777.512 622.156 777.632 621.124 777.872C620.116 778.112 619.288 778.52 618.64 779.096C617.992 779.648 617.512 780.392 617.2 781.328C616.912 782.24 616.768 783.392 616.768 784.784C616.768 786.176 616.912 787.34 617.2 788.276C617.512 789.212 617.992 789.956 618.64 790.508C619.288 791.06 620.116 791.456 621.124 791.696C622.156 791.936 623.38 792.056 624.796 792.056C626.236 792.056 627.46 791.936 628.468 791.696C629.476 791.456 630.304 791.06 630.952 790.508C631.6 789.956 632.068 789.212 632.356 788.276C632.668 787.34 632.824 786.176 632.824 784.784C632.824 783.392 632.668 782.24 632.356 781.328C632.068 780.392 631.6 779.648 630.952 779.096C630.304 778.52 629.476 778.112 628.468 777.872C627.46 777.632 626.236 777.512 624.796 777.512ZM644.432 775.532V790.364L660.344 775.532H663.764V794H660.704V778.484L643.928 794H641.372V775.532H644.432ZM692.508 775.532V777.8H681.996V794H678.864V777.8H668.352V775.532H692.508ZM121.711 811.044C120.727 811.716 119.455 812.052 117.895 812.052C117.127 812.052 116.371 811.992 115.627 811.872C114.883 811.728 114.127 811.584 113.359 811.44C112.591 811.272 111.811 811.128 111.019 811.008C110.227 810.864 109.399 810.792 108.535 810.792C107.383 810.792 106.387 810.96 105.547 811.296C104.707 811.608 103.999 812.172 103.423 812.988C102.871 813.78 102.439 814.848 102.127 816.192C101.839 817.536 101.659 819.228 101.587 821.268C102.043 820.788 102.571 820.332 103.171 819.9C103.795 819.468 104.515 819.084 105.331 818.748C106.147 818.412 107.071 818.148 108.103 817.956C109.159 817.764 110.359 817.668 111.703 817.668C113.167 817.668 114.463 817.824 115.591 818.136C116.743 818.424 117.703 818.94 118.471 819.684C119.239 820.428 119.815 821.436 120.199 822.708C120.607 823.956 120.811 825.528 120.811 827.424C120.811 829.296 120.607 830.88 120.199 832.176C119.791 833.448 119.131 834.48 118.219 835.272C117.331 836.064 116.179 836.64 114.763 837C113.347 837.336 111.631 837.504 109.615 837.504C107.383 837.504 105.547 837.288 104.107 836.856C102.667 836.424 101.539 835.68 100.723 834.624C99.9068 833.568 99.3428 832.152 99.0308 830.376C98.7188 828.6 98.5628 826.368 98.5628 823.68C98.5628 820.728 98.7308 818.268 99.0668 816.3C99.4028 814.308 99.9548 812.712 100.723 811.512C101.491 810.312 102.487 809.46 103.711 808.956C104.959 808.452 106.483 808.2 108.283 808.2C109.363 808.2 110.335 808.272 111.199 808.416C112.087 808.56 112.903 808.728 113.647 808.92C114.391 809.088 115.099 809.244 115.771 809.388C116.467 809.532 117.175 809.604 117.895 809.604C118.543 809.604 119.167 809.508 119.767 809.316C120.391 809.124 121.039 808.752 121.711 808.2V811.044ZM111.235 820.008C109.003 820.008 107.131 820.368 105.619 821.088C104.107 821.808 102.751 822.732 101.551 823.86C101.551 826.14 101.671 828 101.911 829.44C102.151 830.88 102.571 832.02 103.171 832.86C103.795 833.7 104.623 834.276 105.655 834.588C106.711 834.9 108.043 835.056 109.651 835.056C111.115 835.056 112.351 834.936 113.359 834.696C114.391 834.456 115.231 834.048 115.879 833.472C116.527 832.872 116.995 832.08 117.283 831.096C117.571 830.088 117.715 828.84 117.715 827.352C117.715 825.888 117.571 824.676 117.283 823.716C117.019 822.756 116.611 822.012 116.059 821.484C115.531 820.932 114.859 820.548 114.043 820.332C113.251 820.116 112.315 820.008 111.235 820.008ZM127.883 818.532V824.004H135.047C136.991 824.004 138.599 824.112 139.871 824.328C141.143 824.52 142.139 824.868 142.859 825.372C143.603 825.852 144.119 826.512 144.407 827.352C144.719 828.192 144.875 829.236 144.875 830.484C144.875 831.756 144.719 832.812 144.407 833.652C144.119 834.468 143.603 835.128 142.859 835.632C142.139 836.136 141.143 836.496 139.871 836.712C138.599 836.904 136.991 837 135.047 837H125.111V818.532H127.883ZM149.807 818.532V837H147.071V818.532H149.807ZM127.883 834.732H135.047C136.439 834.732 137.591 834.672 138.503 834.552C139.415 834.408 140.135 834.18 140.663 833.868C141.215 833.556 141.599 833.136 141.815 832.608C142.031 832.056 142.139 831.36 142.139 830.52C142.139 829.704 142.031 829.032 141.815 828.504C141.599 827.952 141.215 827.52 140.663 827.208C140.135 826.872 139.415 826.644 138.503 826.524C137.591 826.404 136.439 826.344 135.047 826.344H127.883V834.732ZM177.398 818.532V820.8H166.886V837H163.754V820.8H153.242V818.532H177.398ZM185.766 818.532V824.004H193.614C195.798 824.004 197.598 824.112 199.014 824.328C200.43 824.52 201.546 824.868 202.362 825.372C203.202 825.876 203.778 826.548 204.09 827.388C204.426 828.204 204.594 829.236 204.594 830.484C204.594 831.732 204.426 832.776 204.09 833.616C203.778 834.456 203.202 835.128 202.362 835.632C201.546 836.136 200.43 836.496 199.014 836.712C197.598 836.904 195.798 837 193.614 837H182.634V818.532H185.766ZM185.766 834.732H193.794C195.306 834.732 196.554 834.672 197.538 834.552C198.546 834.408 199.338 834.18 199.914 833.868C200.514 833.556 200.922 833.136 201.138 832.608C201.378 832.056 201.498 831.36 201.498 830.52C201.498 829.704 201.378 829.032 201.138 828.504C200.922 827.952 200.514 827.52 199.914 827.208C199.338 826.872 198.546 826.644 197.538 826.524C196.554 826.404 195.306 826.344 193.794 826.344H185.766V834.732ZM259.346 818.532V837H256.214V820.8H241.454V837H238.322V818.532H259.346ZM276.749 818.064C278.717 818.064 280.409 818.244 281.825 818.604C283.241 818.94 284.393 819.492 285.281 820.26C286.169 821.028 286.817 822.036 287.225 823.284C287.657 824.508 287.873 826.008 287.873 827.784C287.873 829.584 287.657 831.108 287.225 832.356C286.817 833.58 286.169 834.576 285.281 835.344C284.393 836.112 283.241 836.664 281.825 837C280.409 837.336 278.717 837.504 276.749 837.504C274.781 837.504 273.089 837.336 271.673 837C270.281 836.664 269.129 836.112 268.217 835.344C267.329 834.576 266.669 833.58 266.237 832.356C265.829 831.108 265.625 829.584 265.625 827.784C265.625 826.008 265.829 824.508 266.237 823.284C266.669 822.036 267.329 821.028 268.217 820.26C269.129 819.492 270.281 818.94 271.673 818.604C273.089 818.244 274.781 818.064 276.749 818.064ZM276.749 820.512C275.333 820.512 274.109 820.632 273.077 820.872C272.069 821.112 271.241 821.52 270.593 822.096C269.945 822.648 269.465 823.392 269.153 824.328C268.865 825.24 268.721 826.392 268.721 827.784C268.721 829.176 268.865 830.34 269.153 831.276C269.465 832.212 269.945 832.956 270.593 833.508C271.241 834.06 272.069 834.456 273.077 834.696C274.109 834.936 275.333 835.056 276.749 835.056C278.189 835.056 279.413 834.936 280.421 834.696C281.429 834.456 282.257 834.06 282.905 833.508C283.553 832.956 284.021 832.212 284.309 831.276C284.621 830.34 284.777 829.176 284.777 827.784C284.777 826.392 284.621 825.24 284.309 824.328C284.021 823.392 283.553 822.648 282.905 822.096C282.257 821.52 281.429 821.112 280.421 820.872C279.413 820.632 278.189 820.512 276.749 820.512ZM306.753 818.532C309.753 818.532 311.913 818.88 313.233 819.576C314.577 820.272 315.249 821.472 315.249 823.176C315.249 824.256 314.997 825.132 314.493 825.804C314.013 826.452 313.353 826.944 312.513 827.28C313.617 827.616 314.505 828.156 315.177 828.9C315.849 829.62 316.185 830.652 316.185 831.996C316.185 833.796 315.465 835.08 314.025 835.848C312.585 836.616 310.293 837 307.149 837H293.973V818.532H306.753ZM297.141 834.804H306.897C308.049 834.804 309.021 834.756 309.813 834.66C310.605 834.564 311.241 834.396 311.721 834.156C312.225 833.916 312.585 833.592 312.801 833.184C313.017 832.776 313.125 832.26 313.125 831.636C313.125 830.94 312.981 830.376 312.693 829.944C312.429 829.512 312.021 829.188 311.469 828.972C310.917 828.732 310.233 828.576 309.417 828.504C308.601 828.432 307.665 828.396 306.609 828.396H297.141V834.804ZM297.141 826.416H306.645C307.677 826.416 308.541 826.38 309.237 826.308C309.957 826.212 310.545 826.056 311.001 825.84C311.457 825.624 311.781 825.336 311.973 824.976C312.189 824.592 312.297 824.1 312.297 823.5C312.297 822.924 312.189 822.456 311.973 822.096C311.781 821.736 311.457 821.46 311.001 821.268C310.545 821.076 309.957 820.944 309.237 820.872C308.517 820.8 307.641 820.764 306.609 820.764H297.141V826.416ZM324.985 818.532V825.516H339.745V818.532H342.877V837H339.745V827.82H324.985V837H321.853V818.532H324.985ZM352.073 818.532V833.364L367.985 818.532H371.405V837H368.345V821.484L351.569 837H349.013V818.532H352.073ZM378.764 818.532L388.088 830.16L397.34 818.532H400.436V837H397.484V822.168L388.7 833.652H387.476L378.656 822.168V837H375.704V818.532H378.764ZM423.096 824.976V824.328C423.096 822.864 422.436 821.856 421.116 821.304C419.82 820.752 418.02 820.476 415.716 820.476C414.66 820.476 413.748 820.524 412.98 820.62C412.212 820.692 411.54 820.8 410.964 820.944C410.388 821.088 409.908 821.244 409.524 821.412C409.14 821.58 408.828 821.748 408.588 821.916V824.364H405.708V820.908C406.668 819.924 408.048 819.204 409.848 818.748C411.672 818.292 413.748 818.064 416.076 818.064C417.612 818.064 418.992 818.172 420.216 818.388C421.464 818.58 422.52 818.916 423.384 819.396C424.248 819.876 424.908 820.512 425.364 821.304C425.844 822.072 426.084 823.02 426.084 824.148V833.76C426.084 834.168 426.168 834.432 426.336 834.552C426.528 834.648 426.888 834.696 427.416 834.696H428.244V837H426.444C424.236 837 423.12 836.16 423.096 834.48C422.112 835.008 421.188 835.452 420.324 835.812C419.46 836.172 418.608 836.472 417.768 836.712C416.952 836.928 416.124 837.084 415.284 837.18C414.444 837.3 413.556 837.36 412.62 837.36C409.836 837.36 407.796 836.904 406.5 835.992C405.204 835.056 404.556 833.784 404.556 832.176C404.556 831.288 404.736 830.532 405.096 829.908C405.48 829.26 406.032 828.708 406.752 828.252C407.496 827.796 408.396 827.424 409.452 827.136C410.532 826.824 411.756 826.572 413.124 826.38L423.096 824.976ZM413.556 835.092C413.988 835.092 414.492 835.068 415.068 835.02C415.668 834.972 416.34 834.852 417.084 834.66C417.852 834.468 418.716 834.18 419.676 833.796C420.636 833.412 421.704 832.896 422.88 832.248L423.096 832.14V827.028L413.52 828.432C411.504 828.696 410.004 829.104 409.02 829.656C408.036 830.184 407.544 830.964 407.544 831.996C407.544 834.06 409.548 835.092 413.556 835.092ZM455.836 818.532V820.8H445.324V837H442.192V820.8H431.68V818.532H455.836ZM463.484 828.36C463.508 829.656 463.688 830.736 464.024 831.6C464.384 832.464 464.9 833.16 465.572 833.688C466.244 834.192 467.084 834.564 468.092 834.804C469.124 835.02 470.348 835.128 471.764 835.128C474.068 835.128 475.916 834.852 477.308 834.3C478.7 833.748 479.396 832.932 479.396 831.852V831.384H482.276V831.888C482.276 832.848 482.024 833.688 481.52 834.408C481.016 835.104 480.296 835.68 479.36 836.136C478.424 836.592 477.296 836.928 475.976 837.144C474.68 837.384 473.228 837.504 471.62 837.504C469.676 837.504 467.996 837.336 466.58 837C465.188 836.64 464.036 836.076 463.124 835.308C462.236 834.54 461.576 833.544 461.144 832.32C460.736 831.096 460.532 829.608 460.532 827.856C460.532 826.128 460.736 824.652 461.144 823.428C461.576 822.18 462.236 821.16 463.124 820.368C464.036 819.576 465.188 819 466.58 818.64C467.996 818.256 469.7 818.064 471.692 818.064C473.756 818.064 475.472 818.256 476.84 818.64C478.232 819 479.336 819.54 480.152 820.26C480.992 820.956 481.58 821.808 481.916 822.816C482.276 823.824 482.456 824.976 482.456 826.272C482.456 826.704 482.444 827.1 482.42 827.46C482.396 827.796 482.36 828.096 482.312 828.36H463.484ZM471.728 820.44C469.16 820.44 467.216 820.872 465.896 821.736C464.576 822.6 463.796 824.1 463.556 826.236H479.54C479.564 826.14 479.576 825.984 479.576 825.768C479.552 824.928 479.408 824.184 479.144 823.536C478.88 822.864 478.448 822.3 477.848 821.844C477.248 821.388 476.444 821.04 475.436 820.8C474.452 820.56 473.216 820.44 471.728 820.44ZM510.011 818.532V837H506.843V820.8H494.207V828.864C494.207 830.424 494.063 831.72 493.775 832.752C493.487 833.784 493.043 834.624 492.443 835.272C491.843 835.896 491.075 836.34 490.139 836.604C489.227 836.868 488.123 837 486.827 837H485.531V834.732H486.539C487.355 834.732 488.051 834.66 488.627 834.516C489.203 834.372 489.671 834.084 490.031 833.652C490.391 833.22 490.655 832.62 490.823 831.852C490.991 831.084 491.075 830.088 491.075 828.864V818.532H510.011ZM519.891 818.532V824.004H527.739C529.923 824.004 531.723 824.112 533.139 824.328C534.555 824.52 535.671 824.868 536.487 825.372C537.327 825.876 537.903 826.548 538.215 827.388C538.551 828.204 538.719 829.236 538.719 830.484C538.719 831.732 538.551 832.776 538.215 833.616C537.903 834.456 537.327 835.128 536.487 835.632C535.671 836.136 534.555 836.496 533.139 836.712C531.723 836.904 529.923 837 527.739 837H516.759V818.532H519.891ZM519.891 834.732H527.919C529.431 834.732 530.679 834.672 531.663 834.552C532.671 834.408 533.463 834.18 534.039 833.868C534.639 833.556 535.047 833.136 535.263 832.608C535.503 832.056 535.623 831.36 535.623 830.52C535.623 829.704 535.503 829.032 535.263 828.504C535.047 827.952 534.639 827.52 534.039 827.208C533.463 826.872 532.671 826.644 531.663 826.524C530.679 826.404 529.431 826.344 527.919 826.344H519.891V834.732ZM547.735 818.532V825.516H562.495V818.532H565.627V837H562.495V827.82H547.735V837H544.603V818.532H547.735ZM574.859 828.36C574.883 829.656 575.063 830.736 575.399 831.6C575.759 832.464 576.275 833.16 576.947 833.688C577.619 834.192 578.459 834.564 579.467 834.804C580.499 835.02 581.723 835.128 583.139 835.128C585.443 835.128 587.291 834.852 588.683 834.3C590.075 833.748 590.771 832.932 590.771 831.852V831.384H593.651V831.888C593.651 832.848 593.399 833.688 592.895 834.408C592.391 835.104 591.671 835.68 590.735 836.136C589.799 836.592 588.671 836.928 587.351 837.144C586.055 837.384 584.603 837.504 582.995 837.504C581.051 837.504 579.371 837.336 577.955 837C576.563 836.64 575.411 836.076 574.499 835.308C573.611 834.54 572.951 833.544 572.519 832.32C572.111 831.096 571.907 829.608 571.907 827.856C571.907 826.128 572.111 824.652 572.519 823.428C572.951 822.18 573.611 821.16 574.499 820.368C575.411 819.576 576.563 819 577.955 818.64C579.371 818.256 581.075 818.064 583.067 818.064C585.131 818.064 586.847 818.256 588.215 818.64C589.607 819 590.711 819.54 591.527 820.26C592.367 820.956 592.955 821.808 593.291 822.816C593.651 823.824 593.831 824.976 593.831 826.272C593.831 826.704 593.819 827.1 593.795 827.46C593.771 827.796 593.735 828.096 593.687 828.36H574.859ZM583.103 820.44C580.535 820.44 578.591 820.872 577.271 821.736C575.951 822.6 575.171 824.1 574.931 826.236H590.915C590.939 826.14 590.951 825.984 590.951 825.768C590.927 824.928 590.783 824.184 590.519 823.536C590.255 822.864 589.823 822.3 589.223 821.844C588.623 821.388 587.819 821.04 586.811 820.8C585.827 820.56 584.591 820.44 583.103 820.44ZM602.702 828.36C602.726 829.656 602.906 830.736 603.242 831.6C603.602 832.464 604.118 833.16 604.79 833.688C605.462 834.192 606.302 834.564 607.31 834.804C608.342 835.02 609.566 835.128 610.982 835.128C613.286 835.128 615.134 834.852 616.526 834.3C617.918 833.748 618.614 832.932 618.614 831.852V831.384H621.494V831.888C621.494 832.848 621.242 833.688 620.738 834.408C620.234 835.104 619.514 835.68 618.578 836.136C617.642 836.592 616.514 836.928 615.194 837.144C613.898 837.384 612.446 837.504 610.838 837.504C608.894 837.504 607.214 837.336 605.798 837C604.406 836.64 603.254 836.076 602.342 835.308C601.454 834.54 600.794 833.544 600.362 832.32C599.954 831.096 599.75 829.608 599.75 827.856C599.75 826.128 599.954 824.652 600.362 823.428C600.794 822.18 601.454 821.16 602.342 820.368C603.254 819.576 604.406 819 605.798 818.64C607.214 818.256 608.918 818.064 610.91 818.064C612.974 818.064 614.69 818.256 616.058 818.64C617.45 819 618.554 819.54 619.37 820.26C620.21 820.956 620.798 821.808 621.134 822.816C621.494 823.824 621.674 824.976 621.674 826.272C621.674 826.704 621.662 827.1 621.638 827.46C621.614 827.796 621.578 828.096 621.53 828.36H602.702ZM610.946 820.44C608.378 820.44 606.434 820.872 605.114 821.736C603.794 822.6 603.014 824.1 602.774 826.236H618.758C618.782 826.14 618.794 825.984 618.794 825.768C618.77 824.928 618.626 824.184 618.362 823.536C618.098 822.864 617.666 822.3 617.066 821.844C616.466 821.388 615.662 821.04 614.654 820.8C613.67 820.56 612.434 820.44 610.946 820.44ZM635.694 834.408C635.694 832.56 636.69 831.636 638.682 831.636C640.674 831.636 641.67 832.56 641.67 834.408C641.67 836.304 640.674 837.252 638.682 837.252C636.69 837.252 635.694 836.304 635.694 834.408ZM663.538 834.408C663.538 832.56 664.534 831.636 666.526 831.636C668.518 831.636 669.514 832.56 669.514 834.408C669.514 836.304 668.518 837.252 666.526 837.252C664.534 837.252 663.538 836.304 663.538 834.408ZM691.382 834.408C691.382 832.56 692.378 831.636 694.37 831.636C696.362 831.636 697.358 832.56 697.358 834.408C697.358 836.304 696.362 837.252 694.37 837.252C692.378 837.252 691.382 836.304 691.382 834.408Z" fill="white"/>
</g>
<defs>
<clipPath id="clip0_105_435">
<rect width="798" height="1310" fill="white"/>
</clipPath>
</defs>
</svg>
