<svg width="798" height="1481" viewBox="0 0 798 1481" fill="none" xmlns="http://www.w3.org/2000/svg">
<rect width="805" height="1481" fill="white"/>
<path d="M69.68 206H78.32V155.6L77.744 145.52H103.856L103.28 155.6V206H111.92V138.8H69.68V206ZM161.131 180.176C161.227 194.192 155.371 199.76 148.363 199.76C141.355 199.76 135.499 194.192 135.595 180.176C135.595 166.256 141.355 159.92 148.363 159.92C155.371 159.92 161.131 166.256 161.131 180.176ZM126.763 180.176C126.763 198.896 136.555 206.96 148.363 206.96C160.171 206.96 169.963 198.896 169.963 180.176C169.963 161.456 160.171 153.2 148.363 153.2C136.555 153.2 126.763 161.456 126.763 180.176ZM205.445 206.96C220.805 206.96 227.525 198.8 227.525 191.6C227.525 185.36 222.725 180.08 214.085 180.08V177.2C220.805 177.2 224.645 172.88 224.645 167.12C224.645 160.4 219.365 153.2 205.445 153.2C191.045 153.2 183.845 161.36 183.845 171.44H192.485C192.485 165.68 196.229 159.92 205.445 159.92C213.221 159.92 216.005 163.76 216.005 167.6C216.005 172.4 211.685 175.28 204.965 175.28H199.685V182H204.965C214.565 182 218.885 186.416 218.885 191.6C218.885 196.4 215.045 199.76 205.445 199.76C194.885 199.76 190.565 195.536 190.565 186.32H181.925C181.925 199.184 190.661 206.96 205.445 206.96ZM280.768 220.4H288.448V199.28H280.192L280.768 189.2V154.16H248.512V167.6C248.512 184.88 246.112 193.52 244.192 199.28H238.048V220.4H245.728V216.08L245.152 206H281.344L280.768 216.08V220.4ZM251.392 199.28C254.272 191.6 256.192 181.04 256.192 170.96L255.616 160.88H272.704L272.128 170.96V189.2L272.704 199.28H251.392ZM304.25 225.2H312.89V215.312L308.09 192.08H310.97C313.466 203.504 321.05 206.96 327.29 206.96C336.986 206.96 345.05 198.608 345.05 180.08C345.05 159.728 337.946 152.528 327.29 152.528C319.322 152.528 313.466 156.56 310.97 168.08H308.09L310.97 154.16H298.97V160.88H304.826V160.976L304.25 171.056V225.2ZM312.89 180.08C312.89 166.352 319.034 159.344 325.658 159.344C331.61 159.344 336.314 164.912 336.41 180.08C336.506 195.728 331.226 200.144 325.658 200.144C319.034 200.144 312.89 193.808 312.89 180.08ZM371.221 206.96C378.997 206.96 386.293 199.856 388.213 192.08H391.093C391.093 203.216 392.917 206 401.173 206V198.8C396.277 198.8 394.933 197.264 394.933 192.08V171.92C394.837 159.536 388.693 153.2 377.845 153.2C366.997 153.2 360.181 159.44 360.181 171.92H368.821C368.821 166.544 369.973 159.92 377.845 159.92C382.549 159.92 386.293 162.32 386.293 171.92L387.829 185.84H385.621C381.685 180.464 375.541 177.008 370.165 177.008C362.677 177.008 356.053 181.808 356.053 191.888C356.053 199.76 362.101 206.96 371.221 206.96ZM364.501 191.888C364.501 185.744 367.573 182.576 372.469 182.576C375.541 182.576 379.957 184.304 384.181 188.336C381.781 196.592 375.829 199.76 371.221 199.76C366.901 199.76 364.501 197.264 364.501 191.888ZM417.935 206H438.095C452.303 206 458.255 198.8 458.255 191.6C458.255 185.36 453.455 180.08 444.815 180.08V177.2C451.535 177.2 455.375 172.88 455.375 167.12C455.375 160.88 451.055 154.16 442.415 154.16H417.935V206ZM425.999 199.28L426.575 191.6V189.68L425.999 182H435.695C445.295 182 449.615 186.416 449.615 191.6C449.615 196.4 446.255 199.28 435.695 199.28H425.999ZM425.999 175.28L426.575 168.56V167.6L425.999 160.88H439.535C444.815 160.88 446.735 164.24 446.735 167.6C446.735 172.4 442.415 175.28 435.695 175.28H425.999ZM472.81 206.96C487.018 206.96 488.362 190.064 488.362 170.96L487.786 160.88H504.874L504.298 170.96V206H512.938V154.16H480.682V160.88C480.682 196.976 477.226 198.512 472.234 198.512C470.506 198.512 469.354 198.32 468.298 198.128V206.384C469.834 206.768 471.273 206.96 472.81 206.96ZM554.084 185.936H561.956L561.38 193.616V206H570.02V154.16H547.46C538.34 154.16 532.58 159.92 532.58 167.696C532.58 174.992 537.38 181.136 544.1 181.136V184.016C539.108 184.688 537.668 187.472 536.132 190.64L528.74 206H537.572L544.196 191.984C545.732 188.624 549.38 185.936 554.084 185.936ZM541.22 169.136C541.22 164.24 543.428 160.88 550.34 160.88H561.956L561.38 167.6V172.496L561.956 179.216H553.22C546.5 179.216 541.22 176.528 541.22 169.136ZM609.823 206.96C620.383 206.96 626.815 201.296 628.542 190.16H619.711C618.943 196.496 616.159 199.76 609.823 199.76C602.335 199.76 599.359 195.344 598.687 188.624L596.287 181.424H629.023V174.224C629.023 162.32 622.015 153.2 609.823 153.2C597.535 153.2 588.703 162.512 588.703 180.272C588.703 198.032 597.535 206.96 609.823 206.96ZM596.287 175.184L598.687 167.984C600.319 162.896 604.255 159.92 609.823 159.92C616.351 159.92 618.847 163.952 619.903 167.984L622.303 175.184H596.287ZM646.265 206H654.905V195.632L652.601 160.88H655.481L660.665 195.632H672.185L677.369 160.88H680.249L677.945 195.632V206H686.585V154.16H672.761L667.865 188.912H664.985L660.089 154.16H646.265V206ZM720.628 187.28H727.348L729.268 152.72V136.88H718.708V152.72L720.628 187.28ZM717.94 206H729.94V194H717.94V206Z" fill="#FF5858"/>
<path d="M95.9663 324H116.126C130.334 324 136.286 316.8 136.286 309.6C136.286 303.36 131.486 298.08 122.846 298.08V295.2C129.566 295.2 133.406 290.88 133.406 285.12C133.406 278.88 129.086 272.16 120.446 272.16H95.9663V324ZM104.03 317.28L104.606 309.6V307.68L104.03 300H113.726C123.326 300 127.646 304.416 127.646 309.6C127.646 314.4 124.286 317.28 113.726 317.28H104.03ZM104.03 293.28L104.606 286.56V285.6L104.03 278.88H117.566C122.846 278.88 124.766 282.24 124.766 285.6C124.766 290.4 120.446 293.28 113.726 293.28H104.03ZM149.209 324H159.289C172.729 324 177.529 316.416 177.529 307.68C177.529 297.696 171.097 291.36 159.289 291.36H156.793L157.369 284.64V272.16H149.209V324ZM156.793 317.28L157.369 309.6V305.76L156.793 298.08H156.889C166.489 298.08 169.849 301.92 169.849 307.68C169.849 313.44 166.489 317.28 156.889 317.28H156.793ZM186.169 324H194.329V272.16H186.169V324ZM299.662 298.176C299.758 312.192 293.902 317.76 286.894 317.76C279.886 317.76 274.03 312.192 274.126 298.176C274.126 284.256 279.886 277.92 286.894 277.92C293.902 277.92 299.662 284.256 299.662 298.176ZM265.294 298.176C265.294 316.896 275.086 324.96 286.894 324.96C298.702 324.96 308.494 316.896 308.494 298.176C308.494 279.456 298.702 271.2 286.894 271.2C275.086 271.2 265.294 279.456 265.294 298.176ZM322.376 278.88H340.712L340.136 288.96V324H348.776V288.96L348.2 278.88H366.536V272.16H322.376V278.88ZM381.091 324.96C395.299 324.96 396.643 308.064 396.643 288.96L396.067 278.88H413.155L412.579 288.96V324H421.219V272.16H388.963V278.88C388.963 314.976 385.507 316.512 380.515 316.512C378.787 316.512 377.635 316.32 376.579 316.128V324.384C378.115 324.768 379.555 324.96 381.091 324.96ZM464.861 272.16H478.781V324H470.141V304.8L472.445 278.88H469.565L454.301 324H440.381V272.16H449.021V291.36L446.717 317.28H449.597L464.861 272.16ZM535.384 324H526.744V312.48L527.32 302.4V296.16V296.064L528.28 295.776V302.304L527.32 302.592C522.232 304.128 518.488 304.608 514.648 304.608C501.784 304.608 497.464 298.272 497.464 288.48V272.16H506.104V288.48C506.104 295.008 508.312 297.888 515.224 297.888C518.104 297.888 522.232 297.408 527.32 296.064L526.744 286.08V272.16H535.384V324ZM555.506 324H564.146V310.848L563.57 300.768H585.842L585.266 310.848V324H593.906V272.16H585.266V283.968L585.842 294.048H563.57L564.146 283.968V272.16H555.506V324ZM609.709 324H619.789C633.229 324 638.029 316.416 638.029 307.68C638.029 297.696 631.597 291.36 619.789 291.36H617.293L617.869 284.64V272.16H609.709V324ZM617.293 317.28L617.869 309.6V305.76L617.293 298.08H617.389C626.989 298.08 630.349 301.92 630.349 307.68C630.349 313.44 626.989 317.28 617.389 317.28H617.293ZM646.669 324H654.829V272.16H646.669V324ZM695.111 272.16H709.031V324H700.391V304.8L702.695 278.88H699.815L684.551 324H670.631V272.16H679.271V291.36L676.967 317.28H679.847L695.111 272.16ZM677.063 253.44C676.583 260.736 680.999 266.4 690.215 266.4C699.431 266.4 703.847 260.736 703.367 253.44H695.207C695.687 257.76 693.671 261.12 690.215 261.12C686.759 261.12 684.743 257.76 685.223 253.44H677.063ZM152.569 458H161.209V422.96L160.633 412.88H182.905L182.329 422.96V458H190.969V406.16H152.569V458ZM242.099 432.176C242.195 446.192 236.339 451.76 229.331 451.76C222.323 451.76 216.467 446.192 216.563 432.176C216.563 418.256 222.323 411.92 229.331 411.92C236.339 411.92 242.099 418.256 242.099 432.176ZM207.731 432.176C207.731 450.896 217.523 458.96 229.331 458.96C241.139 458.96 250.931 450.896 250.931 432.176C250.931 413.456 241.139 405.2 229.331 405.2C217.523 405.2 207.731 413.456 207.731 432.176ZM266.734 458H275.374V447.632L273.07 412.88H275.95L281.134 447.632H292.654L297.838 412.88H300.718L298.414 447.632V458H307.054V406.16H293.23L288.334 440.912H285.454L280.558 406.16H266.734V458ZM357.224 432.176C357.32 446.192 351.464 451.76 344.456 451.76C337.448 451.76 331.592 446.192 331.688 432.176C331.688 418.256 337.448 411.92 344.456 411.92C351.464 411.92 357.224 418.256 357.224 432.176ZM322.856 432.176C322.856 450.896 332.648 458.96 344.456 458.96C356.264 458.96 366.056 450.896 366.056 432.176C366.056 413.456 356.264 405.2 344.456 405.2C332.648 405.2 322.856 413.456 322.856 432.176ZM422.659 472.4H430.339V451.28H423.715V406.16H415.459V441.2L416.035 451.28H404.323L404.899 441.2V406.16H397.219V441.2L397.795 451.28H386.083L386.659 441.2V406.16H378.403V458H423.235L422.659 468.08V472.4ZM440.381 458H449.021V444.848L448.445 434.768H470.717L470.141 444.848V458H478.781V406.16H470.141V417.968L470.717 428.048H448.445L449.021 417.968V406.16H440.381V458ZM522.424 406.16H536.344V458H527.704V438.8L530.008 412.88H527.128L511.864 458H497.944V406.16H506.584V425.36L504.28 451.28H507.16L522.424 406.16ZM557.426 458H566.066V444.848L565.49 434.768H570.002C572.21 434.768 574.802 437.36 577.01 441.2L586.706 458H596.306L583.634 438.704C580.85 434.48 578.738 432.848 574.034 432.848V429.968C578.45 429.968 580.946 428.336 583.634 424.112L595.346 406.16H585.746L577.01 421.616C574.802 425.552 572.21 428.048 570.002 428.048H565.49L566.066 417.968V406.16H557.426V458ZM628.909 439.28H635.629L637.549 404.72V388.88H626.989V404.72L628.909 439.28ZM626.221 458H638.221V446H626.221V458Z" fill="#FF5858"/>
<path d="M116.2 537H119.8V516.04L119.56 511.84V511.8H127.2V509H108.8V511.8H116.44V511.84L116.2 516.04V537ZM142.384 537.4C146.784 537.4 149.464 535.04 150.184 530.4H146.504C146.184 533.04 145.024 534.4 142.384 534.4C139.264 534.4 138.024 532.56 137.744 529.76L136.744 526.76H150.384V523.76C150.384 518.8 147.464 515 142.384 515C137.264 515 133.584 518.88 133.584 526.28C133.584 533.68 137.264 537.4 142.384 537.4ZM136.744 524.16L137.744 521.16C138.424 519.04 140.064 517.8 142.384 517.8C145.104 517.8 146.144 519.48 146.584 521.16L147.584 524.16H136.744ZM157.969 537H161.569V522.4L161.329 518.2H170.609L170.369 522.4V537H173.969V515.4H157.969V537ZM190.353 537.4C194.753 537.4 197.433 535.04 198.153 530.4H194.473C194.153 533.04 192.993 534.4 190.353 534.4C187.233 534.4 185.993 532.56 185.713 529.76L184.713 526.76H198.353V523.76C198.353 518.8 195.433 515 190.353 515C185.233 515 181.553 518.88 181.553 526.28C181.553 533.68 185.233 537.4 190.353 537.4ZM184.713 524.16L185.713 521.16C186.393 519.04 188.033 517.8 190.353 517.8C193.073 517.8 194.113 519.48 194.553 521.16L195.553 524.16H184.713ZM206.938 545H210.538V540.88L208.538 531.2H209.738C210.778 535.96 213.938 537.4 216.538 537.4C220.578 537.4 223.938 533.92 223.938 526.2C223.938 517.72 220.978 514.72 216.538 514.72C213.218 514.72 210.778 516.4 209.738 521.2H208.538L209.738 515.4H204.738V518.2H207.178V518.24L206.938 522.44V545ZM210.538 526.2C210.538 520.48 213.098 517.56 215.858 517.56C218.338 517.56 220.298 519.88 220.338 526.2C220.378 532.72 218.178 534.56 215.858 534.56C213.098 534.56 210.538 531.92 210.538 526.2ZM230.322 537H239.122C244.722 537 247.122 533.84 247.122 530.2C247.122 526.04 244.042 523.4 239.122 523.4H233.682L233.922 520.6V515.4H230.322V537ZM233.682 534.2L233.922 531V529.4L233.682 526.2H238.122C242.122 526.2 243.522 527.8 243.522 530.2C243.522 532.6 242.122 534.2 238.122 534.2H233.682ZM277.291 526.24C277.291 533.64 281.171 537.4 286.491 537.4C291.451 537.4 294.891 534.16 294.891 528.4H291.291C291.291 532.12 289.651 534.4 286.491 534.4C283.171 534.4 280.931 531.68 280.971 526.24C280.971 520.84 283.171 517.8 286.491 517.8C289.651 517.8 291.211 520.56 291.211 523.4H294.811C294.811 518.52 291.611 515 286.491 515C281.171 515 277.291 518.84 277.291 526.24ZM300.675 518.2H308.315L308.075 522.4V537H311.675V522.4L311.435 518.2H319.075V515.4H300.675V518.2ZM330.779 537.4C334.019 537.4 337.059 534.44 337.859 531.2H339.059C339.059 535.84 339.819 537 343.259 537V534C341.219 534 340.659 533.36 340.659 531.2V522.8C340.619 517.64 338.059 515 333.539 515C329.019 515 326.179 517.6 326.179 522.8H329.779C329.779 520.56 330.259 517.8 333.539 517.8C335.499 517.8 337.059 518.8 337.059 522.8L337.699 528.6H336.779C335.139 526.36 332.579 524.92 330.339 524.92C327.219 524.92 324.459 526.92 324.459 531.12C324.459 534.4 326.979 537.4 330.779 537.4ZM327.979 531.12C327.979 528.56 329.259 527.24 331.299 527.24C332.579 527.24 334.419 527.96 336.179 529.64C335.179 533.08 332.699 534.4 330.779 534.4C328.979 534.4 327.979 533.36 327.979 531.12ZM350.844 545H354.444V540.88L352.444 531.2H353.644C354.684 535.96 357.844 537.4 360.444 537.4C364.484 537.4 367.844 533.92 367.844 526.2C367.844 517.72 364.884 514.72 360.444 514.72C357.124 514.72 354.684 516.4 353.644 521.2H352.444L353.644 515.4H348.644V518.2H351.084V518.24L350.844 522.44V545ZM354.444 526.2C354.444 520.48 357.004 517.56 359.764 517.56C362.244 517.56 364.204 519.88 364.244 526.2C364.284 532.72 362.084 534.56 359.764 534.56C357.004 534.56 354.444 531.92 354.444 526.2ZM384.028 515.4H389.828V537H386.228V529L387.188 518.2H385.988L379.628 537H373.828V515.4H377.428V523.4L376.468 534.2H377.668L384.028 515.4ZM413.413 537H409.813V532.2L410.053 528V525.4V525.36L410.453 525.24V527.96L410.053 528.08C407.933 528.72 406.373 528.92 404.773 528.92C399.413 528.92 397.613 526.28 397.613 522.2V515.4H401.213V522.2C401.213 524.92 402.133 526.12 405.013 526.12C406.213 526.12 407.933 525.92 410.053 525.36L409.813 521.2V515.4H413.413V537ZM422.597 537H426.197V531.52L425.957 527.32H427.837C428.757 527.32 429.837 528.4 430.757 530L434.797 537H438.797L433.517 528.96C432.357 527.2 431.477 526.52 429.517 526.52V525.32C431.357 525.32 432.397 524.64 433.517 522.88L438.397 515.4H434.397L430.757 521.84C429.837 523.48 428.757 524.52 427.837 524.52H425.957L426.197 520.32V515.4H422.597V537ZM455.981 515.4H461.781V537H458.181V529L459.141 518.2H457.941L451.581 537H445.781V515.4H449.381V523.4L448.421 534.2H449.621L455.981 515.4ZM493.35 537H496.95V532.68L495.99 518.2H497.19L499.35 532.68H504.15L506.31 518.2H507.51L506.55 532.68V537H510.15V515.4H504.39L502.35 529.88H501.15L499.11 515.4H493.35V537ZM531.054 526.24C531.094 532.08 528.654 534.4 525.734 534.4C522.814 534.4 520.374 532.08 520.414 526.24C520.414 520.44 522.814 517.8 525.734 517.8C528.654 517.8 531.054 520.44 531.054 526.24ZM516.734 526.24C516.734 534.04 520.814 537.4 525.734 537.4C530.654 537.4 534.734 534.04 534.734 526.24C534.734 518.44 530.654 515 525.734 515C520.814 515 516.734 518.44 516.734 526.24ZM542.919 537H546.519V522.4L546.279 518.2H558.119V515.4H542.919V537ZM567.463 545H570.463C573.503 545 574.783 543.52 576.543 537.56L583.103 515.4H579.503L574.423 534H573.223L568.143 515.4H564.303L570.943 537H573.623L573.463 537.56C572.463 541.16 571.863 542 570.463 542H567.463V545ZM588.488 518.2H596.128L595.888 522.4V537H599.488V522.4L599.248 518.2H606.888V515.4H588.488V518.2ZM123.32 582.24C123.36 588.08 120.92 590.4 118 590.4C115.08 590.4 112.64 588.08 112.68 582.24C112.68 576.44 115.08 573.8 118 573.8C120.92 573.8 123.32 576.44 123.32 582.24ZM109 582.24C109 590.04 113.08 593.4 118 593.4C122.92 593.4 127 590.04 127 582.24C127 574.44 122.92 571 118 571C113.08 571 109 574.44 109 582.24ZM132.784 574.2H140.424L140.184 578.4V593H143.784V578.4L143.544 574.2H151.184V571.4H132.784V574.2ZM173.169 599H176.369V590.2H172.929L173.169 586V571.4H159.729V577C159.729 584.2 158.729 587.8 157.929 590.2H155.369V599H158.569V597.2L158.329 593H173.409L173.169 597.2V599ZM160.929 590.2C162.129 587 162.929 582.6 162.929 578.4L162.689 574.2H169.809L169.569 578.4V586L169.809 590.2H160.929ZM195.273 582.24C195.313 588.08 192.873 590.4 189.953 590.4C187.033 590.4 184.593 588.08 184.633 582.24C184.633 576.44 187.033 573.8 189.953 573.8C192.873 573.8 195.273 576.44 195.273 582.24ZM180.953 582.24C180.953 590.04 185.033 593.4 189.953 593.4C194.873 593.4 198.953 590.04 198.953 582.24C198.953 574.44 194.873 571 189.953 571C185.033 571 180.953 574.44 180.953 582.24ZM204.938 593H208.778L213.458 583.88H214.658L219.338 593H222.938L217.378 582.44L222.938 571.4H219.338L214.658 581.08H213.458L208.778 571.4H204.938L210.698 582.44L204.938 593ZM229.922 593H233.522V587.52L233.282 583.32H242.562L242.322 587.52V593H245.922V571.4H242.322V576.32L242.562 580.52H233.282L233.522 576.32V571.4H229.922V593ZM255.666 601H258.666C261.706 601 262.986 599.52 264.746 593.56L271.306 571.4H267.706L262.626 590H261.426L256.346 571.4H252.506L259.146 593H261.826L261.666 593.56C260.666 597.16 260.066 598 258.666 598H255.666V601ZM276.691 574.2H284.331L284.091 578.4V593H287.691V578.4L287.451 574.2H295.091V571.4H276.691V574.2ZM302.275 593H311.075C316.675 593 319.075 589.84 319.075 586.2C319.075 582.04 315.995 579.4 311.075 579.4H305.635L305.875 576.6V571.4H302.275V593ZM305.635 590.2L305.875 587V585.4L305.635 582.2H310.075C314.075 582.2 315.475 583.8 315.475 586.2C315.475 588.6 314.075 590.2 310.075 590.2H305.635ZM350.244 593H358.644C364.564 593 367.044 590 367.044 587C367.044 584.4 365.044 582.2 361.444 582.2V581C364.244 581 365.844 579.2 365.844 576.8C365.844 574.2 364.044 571.4 360.444 571.4H350.244V593ZM353.604 590.2L353.844 587V586.2L353.604 583H357.644C361.644 583 363.444 584.84 363.444 587C363.444 589 362.044 590.2 357.644 590.2H353.604ZM353.604 580.2L353.844 577.4V577L353.604 574.2H359.244C361.444 574.2 362.244 575.6 362.244 577C362.244 579 360.444 580.2 357.644 580.2H353.604ZM405.413 582.2L410.213 591H413.613L409.813 582.2L413.613 573.4H410.213L405.413 582.2ZM397.013 582.2L401.813 591H405.213L401.413 582.2L405.213 573.4H401.813L397.013 582.2ZM437.797 567.8V565H421.397V593H430.597C436.597 593 439.597 588.8 439.597 584.4C439.597 580 436.597 575.8 430.597 575.8H424.797L424.997 572V571.6L424.797 567.8H437.797ZM424.797 590.2L424.997 586.4V582.4L424.797 578.6H429.597C434.197 578.6 435.997 581.6 435.997 584.4C435.997 587.2 434.197 590.2 429.597 590.2H424.797ZM450.701 593.4C453.941 593.4 456.981 590.44 457.781 587.2H458.981C458.981 591.84 459.741 593 463.181 593V590C461.141 590 460.581 589.36 460.581 587.2V578.8C460.541 573.64 457.981 571 453.461 571C448.941 571 446.101 573.6 446.101 578.8H449.701C449.701 576.56 450.181 573.8 453.461 573.8C455.421 573.8 456.981 574.8 456.981 578.8L457.621 584.6H456.701C455.061 582.36 452.501 580.92 450.261 580.92C447.141 580.92 444.381 582.92 444.381 587.12C444.381 590.4 446.901 593.4 450.701 593.4ZM447.901 587.12C447.901 584.56 449.181 583.24 451.221 583.24C452.501 583.24 454.341 583.96 456.101 585.64C455.101 589.08 452.621 590.4 450.701 590.4C448.901 590.4 447.901 589.36 447.901 587.12ZM470.766 601H474.366V596.88L472.366 587.2H473.566C474.606 591.96 477.766 593.4 480.366 593.4C484.406 593.4 487.766 589.92 487.766 582.2C487.766 573.72 484.806 570.72 480.366 570.72C477.046 570.72 474.606 572.4 473.566 577.2H472.366L473.566 571.4H468.566V574.2H471.006V574.24L470.766 578.44V601ZM474.366 582.2C474.366 576.48 476.926 573.56 479.686 573.56C482.166 573.56 484.126 575.88 484.166 582.2C484.206 588.72 482.006 590.56 479.686 590.56C476.926 590.56 474.366 587.92 474.366 582.2ZM502.15 593.4C506.55 593.4 509.23 591.04 509.95 586.4H506.27C505.95 589.04 504.79 590.4 502.15 590.4C499.03 590.4 497.79 588.56 497.51 585.76L496.51 582.76H510.15V579.76C510.15 574.8 507.23 571 502.15 571C497.03 571 493.35 574.88 493.35 582.28C493.35 589.68 497.03 593.4 502.15 593.4ZM496.51 580.16L497.51 577.16C498.19 575.04 499.83 573.8 502.15 573.8C504.87 573.8 505.91 575.48 506.35 577.16L507.35 580.16H496.51ZM540.519 593H559.319V590H551.919V565H546.879L540.119 575L543.399 576.96L548.079 567.8H549.279L548.319 582.28V590H540.519V593ZM573.703 593.4C579.463 593.4 582.903 589.6 582.903 579C582.903 568.4 579.463 564.6 573.703 564.6C567.943 564.6 564.503 568.4 564.503 579C564.503 589.6 567.943 593.4 573.703 593.4ZM568.183 579C568.183 578.28 568.183 577.64 568.223 577L578.983 583.72C578.383 588.44 576.663 590.4 573.703 590.4C569.903 590.4 568.183 587.2 568.183 579ZM568.463 573.92C569.103 569.16 570.783 567.4 573.703 567.4C577.503 567.4 579.223 570.4 579.223 579C579.223 579.56 579.223 580.08 579.183 580.6L568.463 573.92ZM597.688 593.4C603.448 593.4 606.888 589.6 606.888 579C606.888 568.4 603.448 564.6 597.688 564.6C591.928 564.6 588.488 568.4 588.488 579C588.488 589.6 591.928 593.4 597.688 593.4ZM592.168 579C592.168 578.28 592.168 577.64 592.208 577L602.968 583.72C602.368 588.44 600.648 590.4 597.688 590.4C593.888 590.4 592.168 587.2 592.168 579ZM592.448 573.92C593.088 569.16 594.768 567.4 597.688 567.4C601.488 567.4 603.208 570.4 603.208 579C603.208 579.56 603.208 580.08 603.168 580.6L592.448 573.92ZM620.272 588.2H623.072V584.6L622.832 582.4H628.872V579.6H622.832L623.072 577.4V573.8H620.272V577.4L620.512 579.6H614.472V582.4H620.512L620.272 584.6V588.2ZM646.056 582.2L641.256 573.4H637.856L641.656 582.2L637.856 591H641.256L646.056 582.2ZM646.256 591H649.656L654.456 582.2L649.656 573.4H646.256L650.056 582.2L646.256 591Z" fill="black"/>
<path d="M67.2691 2217.24C-79.3633 822.082 161.456 977.743 167.075 968.484H298.189V2217.24H67.2691Z" fill="#FF5858"/>
<path d="M434.353 2217.24C579.699 822.082 340.992 977.743 335.422 968.484H205.459V2217.24H434.353Z" fill="#FF5858"/>
<ellipse cx="243.283" cy="899.855" rx="101.27" ry="101.152" fill="#FF5858"/>
<ellipse cx="244.503" cy="774.618" rx="63.4465" ry="62.6182" fill="#FF5858"/>
<path d="M356.125 1480.87C205.547 834.768 452.847 906.855 458.617 902.567H593.259V1480.87H356.125Z" fill="#FF5858"/>
<path d="M737.283 1480.87C886.529 834.768 641.417 906.855 635.698 902.567H502.248V1480.87H737.283Z" fill="#FF5858"/>
<ellipse cx="536.377" cy="832.152" rx="104.916" ry="104.794" fill="#FF5858"/>
<path d="M350.562 1364.07L537.642 1353.63L502.097 2177.01H350.562V1364.07Z" fill="#FF5858"/>
<path d="M537.641 1363.61H737.36V2177.01H574.843L537.641 1363.61Z" fill="#FF5858"/>
<path d="M610.956 735.297C610.956 779.644 578.698 743.236 538.905 743.236C499.113 743.236 466.854 779.644 466.854 735.297C466.854 690.95 499.113 655 538.905 655C578.698 655 610.956 690.95 610.956 735.297Z" fill="#FF5858"/>
<ellipse cx="537.641" cy="739.833" rx="154.214" ry="27.446" fill="#FF5858"/>
<circle cx="65" cy="1079" r="65" fill="#FF5858"/>
<rect x="160.5" y="1227.5" width="628" height="132" fill="white" stroke="#1E2165" stroke-width="3"/>
<path d="M780.559 1359.5L763.5 1393.64L746.441 1359.5H780.559Z" fill="white" stroke="#1E2165" stroke-width="3"/>
<path d="M191.32 1314H195.64V1308.82L194.488 1291.44H195.928L198.52 1308.82H204.28L206.872 1291.44H208.312L207.16 1308.82V1314H211.48V1288.08H204.568L202.12 1305.46H200.68L198.232 1288.08H191.32V1314ZM220.581 1314H224.901V1307.42L224.613 1302.38H235.749L235.461 1307.42V1314H239.781V1288.08H235.461V1293.98L235.749 1299.02H224.613L224.901 1293.98V1288.08H220.581V1314ZM259.443 1314.48C264.723 1314.48 267.939 1311.65 268.802 1306.08H264.387C264.003 1309.25 262.611 1310.88 259.443 1310.88C255.699 1310.88 254.211 1308.67 253.875 1305.31L252.675 1301.71H269.043V1298.11C269.043 1292.16 265.539 1287.6 259.443 1287.6C253.299 1287.6 248.883 1292.26 248.883 1301.14C248.883 1310.02 253.299 1314.48 259.443 1314.48ZM252.675 1298.59L253.875 1294.99C254.691 1292.45 256.659 1290.96 259.443 1290.96C262.707 1290.96 263.955 1292.98 264.483 1294.99L265.683 1298.59H252.675ZM305.485 1291.44H314.653L314.365 1296.48V1314H318.685V1296.48L318.397 1291.44H327.565V1288.08H305.485V1291.44ZM351.69 1301.09C351.738 1308.1 348.81 1310.88 345.306 1310.88C341.802 1310.88 338.874 1308.1 338.922 1301.09C338.922 1294.13 341.802 1290.96 345.306 1290.96C348.81 1290.96 351.69 1294.13 351.69 1301.09ZM334.506 1301.09C334.506 1310.45 339.402 1314.48 345.306 1314.48C351.21 1314.48 356.106 1310.45 356.106 1301.09C356.106 1291.73 351.21 1287.6 345.306 1287.6C339.402 1287.6 334.506 1291.73 334.506 1301.09ZM372.168 1314H376.008V1307.42L375.72 1302.38H376.392C377.64 1302.38 378.408 1303.49 379.128 1305.6L381.96 1314H386.28L381.96 1304.35C380.904 1302.05 379.896 1301.42 378.024 1301.42V1299.98C379.752 1299.98 381.096 1299.36 382.056 1297.06L385.8 1288.08H381.48L379.224 1295.81C378.6 1297.97 377.64 1299.02 376.392 1299.02H375.72L376.008 1293.98V1288.08H372.168V1293.98L372.456 1299.02H371.784C370.536 1299.02 369.576 1297.97 368.952 1295.81L366.696 1288.08H362.376L366.12 1297.06C367.08 1299.36 368.424 1299.98 370.152 1299.98V1301.42C368.28 1301.42 367.272 1302.05 366.216 1304.35L361.896 1314H366.216L369.048 1305.6C369.768 1303.49 370.536 1302.38 371.784 1302.38H372.456L372.168 1307.42V1314ZM403.349 1314.48C408.629 1314.48 411.845 1311.65 412.709 1306.08H408.293C407.909 1309.25 406.517 1310.88 403.349 1310.88C399.605 1310.88 398.117 1308.67 397.781 1305.31L396.581 1301.71H412.949V1298.11C412.949 1292.16 409.445 1287.6 403.349 1287.6C397.205 1287.6 392.789 1292.26 392.789 1301.14C392.789 1310.02 397.205 1314.48 403.349 1314.48ZM396.581 1298.59L397.781 1294.99C398.597 1292.45 400.565 1290.96 403.349 1290.96C406.613 1290.96 407.861 1292.98 408.389 1294.99L409.589 1298.59H396.581ZM450.831 1314H455.151V1307.42L454.863 1302.38H465.999L465.711 1307.42V1314H470.031V1288.08H465.711V1293.98L465.999 1299.02H454.863L455.151 1293.98V1288.08H450.831V1314ZM489.693 1314.48C494.973 1314.48 498.189 1311.65 499.052 1306.08H494.637C494.253 1309.25 492.861 1310.88 489.693 1310.88C485.949 1310.88 484.461 1308.67 484.125 1305.31L482.925 1301.71H499.293V1298.11C499.293 1292.16 495.789 1287.6 489.693 1287.6C483.549 1287.6 479.133 1292.26 479.133 1301.14C479.133 1310.02 483.549 1314.48 489.693 1314.48ZM482.925 1298.59L484.125 1294.99C484.941 1292.45 486.909 1290.96 489.693 1290.96C492.957 1290.96 494.205 1292.98 494.733 1294.99L495.933 1298.59H482.925ZM537.175 1314H541.495V1307.42L541.207 1302.38H552.343L552.055 1307.42V1314H556.375V1288.08H552.055V1293.98L552.343 1299.02H541.207L541.495 1293.98V1288.08H537.175V1314ZM567.156 1323.6H571.476V1318.66L569.076 1307.04H570.516C571.764 1312.75 575.556 1314.48 578.676 1314.48C583.524 1314.48 587.556 1310.3 587.556 1301.04C587.556 1290.86 584.004 1287.26 578.676 1287.26C574.692 1287.26 571.764 1289.28 570.516 1295.04H569.076L570.516 1288.08H564.516V1291.44H567.444V1291.49L567.156 1296.53V1323.6ZM571.476 1301.04C571.476 1294.18 574.548 1290.67 577.86 1290.67C580.836 1290.67 583.188 1293.46 583.236 1301.04C583.284 1308.86 580.644 1311.07 577.86 1311.07C574.548 1311.07 571.476 1307.9 571.476 1301.04ZM600.642 1314.48C604.53 1314.48 608.178 1310.93 609.138 1307.04H610.578C610.578 1312.61 611.49 1314 615.618 1314V1310.4C613.17 1310.4 612.498 1309.63 612.498 1307.04V1296.96C612.45 1290.77 609.378 1287.6 603.954 1287.6C598.53 1287.6 595.122 1290.72 595.122 1296.96H599.442C599.442 1294.27 600.018 1290.96 603.954 1290.96C606.306 1290.96 608.178 1292.16 608.178 1296.96L608.946 1303.92H607.842C605.874 1301.23 602.802 1299.5 600.114 1299.5C596.37 1299.5 593.058 1301.9 593.058 1306.94C593.058 1310.88 596.082 1314.48 600.642 1314.48ZM597.282 1306.94C597.282 1303.87 598.818 1302.29 601.266 1302.29C602.802 1302.29 605.01 1303.15 607.122 1305.17C605.922 1309.3 602.946 1310.88 600.642 1310.88C598.482 1310.88 597.282 1309.63 597.282 1306.94ZM623.999 1314H634.079C641.183 1314 644.159 1310.4 644.159 1306.8C644.159 1303.68 641.759 1301.04 637.439 1301.04V1299.6C640.799 1299.6 642.719 1297.44 642.719 1294.56C642.719 1291.44 640.559 1288.08 636.239 1288.08H623.999V1314ZM628.031 1310.64L628.319 1306.8V1305.84L628.031 1302H632.879C637.679 1302 639.839 1304.21 639.839 1306.8C639.839 1309.2 638.159 1310.64 632.879 1310.64H628.031ZM628.031 1298.64L628.319 1295.28V1294.8L628.031 1291.44H634.799C637.439 1291.44 638.399 1293.12 638.399 1294.8C638.399 1297.2 636.239 1298.64 632.879 1298.64H628.031ZM664.54 1288.08H671.5V1314H667.18V1304.4L668.332 1291.44H666.892L659.26 1314H652.3V1288.08H656.62V1297.68L655.468 1310.64H656.908L664.54 1288.08ZM679.641 1291.44H688.809L688.521 1296.48V1314H692.841V1296.48L692.553 1291.44H701.721V1288.08H679.641V1291.44ZM709.143 1301.09C709.143 1309.97 713.799 1314.48 720.183 1314.48C726.135 1314.48 730.263 1310.59 730.263 1303.68H725.943C725.943 1308.14 723.975 1310.88 720.183 1310.88C716.199 1310.88 713.511 1307.62 713.559 1301.09C713.559 1294.61 716.199 1290.96 720.183 1290.96C723.975 1290.96 725.847 1294.27 725.847 1297.68H730.167C730.167 1291.82 726.327 1287.6 720.183 1287.6C713.799 1287.6 709.143 1292.21 709.143 1301.09ZM749.636 1303.97H753.572L753.284 1307.81V1314H757.604V1288.08H746.324C741.764 1288.08 738.884 1290.96 738.884 1294.85C738.884 1298.5 741.284 1301.57 744.644 1301.57V1303.01C742.148 1303.34 741.428 1304.74 740.66 1306.32L736.964 1314H741.38L744.692 1306.99C745.46 1305.31 747.284 1303.97 749.636 1303.97ZM743.204 1295.57C743.204 1293.12 744.308 1291.44 747.764 1291.44H753.572L753.284 1294.8V1297.25L753.572 1300.61H749.204C745.844 1300.61 743.204 1299.26 743.204 1295.57Z" fill="black"/>
<rect x="45.5" y="1062.5" width="338" height="101" fill="white" stroke="#1E2165" stroke-width="3"/>
<path d="M363.559 1164.5L346.5 1198.64L329.441 1164.5H363.559Z" fill="white" stroke="#1E2165" stroke-width="3"/>
<path d="M83.8 1127H88.12V1120.42L87.832 1115.38H98.968L98.68 1120.42V1127H103V1101.08H98.68V1106.98L98.968 1112.02H87.832L88.12 1106.98V1101.08H83.8V1127ZM122.661 1127.48C127.941 1127.48 131.157 1124.65 132.021 1119.08H127.605C127.221 1122.25 125.829 1123.88 122.661 1123.88C118.917 1123.88 117.429 1121.67 117.093 1118.31L115.893 1114.71H132.261V1111.11C132.261 1105.16 128.757 1100.6 122.661 1100.6C116.517 1100.6 112.101 1105.26 112.101 1114.14C112.101 1123.02 116.517 1127.48 122.661 1127.48ZM115.893 1111.59L117.093 1107.99C117.909 1105.45 119.877 1103.96 122.661 1103.96C125.925 1103.96 127.173 1105.98 127.701 1107.99L128.901 1111.59H115.893ZM142.323 1127H146.643V1120.42L146.355 1115.38H148.611C149.715 1115.38 151.011 1116.68 152.115 1118.6L156.963 1127H161.763L155.427 1117.35C154.035 1115.24 152.979 1114.42 150.627 1114.42V1112.98C152.835 1112.98 154.083 1112.17 155.427 1110.06L161.283 1101.08H156.483L152.115 1108.81C151.011 1110.78 149.715 1112.02 148.611 1112.02H146.355L146.643 1106.98V1101.08H142.323V1127ZM171.344 1136.6H175.664V1131.66L173.264 1120.04H174.704C175.952 1125.75 179.744 1127.48 182.864 1127.48C187.712 1127.48 191.744 1123.3 191.744 1114.04C191.744 1103.86 188.192 1100.26 182.864 1100.26C178.88 1100.26 175.952 1102.28 174.704 1108.04H173.264L174.704 1101.08H168.704V1104.44H171.632V1104.49L171.344 1109.53V1136.6ZM175.664 1114.04C175.664 1107.18 178.736 1103.67 182.048 1103.67C185.024 1103.67 187.376 1106.46 187.424 1114.04C187.472 1121.86 184.832 1124.07 182.048 1124.07C178.736 1124.07 175.664 1120.9 175.664 1114.04ZM204.829 1127.48C208.717 1127.48 212.365 1123.93 213.325 1120.04H214.765C214.765 1125.61 215.677 1127 219.805 1127V1123.4C217.357 1123.4 216.685 1122.63 216.685 1120.04V1109.96C216.637 1103.77 213.565 1100.6 208.141 1100.6C202.717 1100.6 199.309 1103.72 199.309 1109.96H203.629C203.629 1107.27 204.205 1103.96 208.141 1103.96C210.493 1103.96 212.365 1105.16 212.365 1109.96L213.133 1116.92H212.029C210.061 1114.23 206.989 1112.5 204.301 1112.5C200.557 1112.5 197.245 1114.9 197.245 1119.94C197.245 1123.88 200.269 1127.48 204.829 1127.48ZM201.469 1119.94C201.469 1116.87 203.005 1115.29 205.453 1115.29C206.989 1115.29 209.197 1116.15 211.309 1118.17C210.109 1122.3 207.133 1123.88 204.829 1123.88C202.669 1123.88 201.469 1122.63 201.469 1119.94ZM226.986 1114.09C226.986 1122.97 231.642 1127.48 238.026 1127.48C243.978 1127.48 248.106 1123.59 248.106 1116.68H243.786C243.786 1121.14 241.818 1123.88 238.026 1123.88C234.042 1123.88 231.354 1120.62 231.402 1114.09C231.402 1107.61 234.042 1103.96 238.026 1103.96C241.818 1103.96 243.69 1107.27 243.69 1110.68H248.01C248.01 1104.82 244.17 1100.6 238.026 1100.6C231.642 1100.6 226.986 1105.21 226.986 1114.09ZM268.728 1101.08H275.688V1127H271.368V1117.4L272.52 1104.44H271.08L263.448 1127H256.488V1101.08H260.808V1110.68L259.656 1123.64H261.096L268.728 1101.08ZM285.749 1127H295.829C302.933 1127 305.909 1123.4 305.909 1119.8C305.909 1116.68 303.509 1114.04 299.189 1114.04V1112.6C302.549 1112.6 304.469 1110.44 304.469 1107.56C304.469 1104.44 302.309 1101.08 297.989 1101.08H285.749V1127ZM289.781 1123.64L290.069 1119.8V1118.84L289.781 1115H294.629C299.429 1115 301.589 1117.21 301.589 1119.8C301.589 1122.2 299.909 1123.64 294.629 1123.64H289.781ZM289.781 1111.64L290.069 1108.28V1107.8L289.781 1104.44H296.549C299.189 1104.44 300.149 1106.12 300.149 1107.8C300.149 1110.2 297.989 1111.64 294.629 1111.64H289.781ZM330.034 1114.09C330.082 1121.1 327.154 1123.88 323.65 1123.88C320.146 1123.88 317.218 1121.1 317.266 1114.09C317.266 1107.13 320.146 1103.96 323.65 1103.96C327.154 1103.96 330.034 1107.13 330.034 1114.09ZM312.85 1114.09C312.85 1123.45 317.746 1127.48 323.65 1127.48C329.554 1127.48 334.45 1123.45 334.45 1114.09C334.45 1104.73 329.554 1100.6 323.65 1100.6C317.746 1100.6 312.85 1104.73 312.85 1114.09Z" fill="black"/>
</svg>
