<svg width="459" height="161" viewBox="0 0 459 161" fill="none" xmlns="http://www.w3.org/2000/svg">
<rect x="4.5" y="4.5" width="450" height="152" fill="white" stroke="#1E2165" stroke-width="9"/>
<path d="M80.724 52.956C84.756 52.956 88.816 52.984 92.904 53.04C97.048 53.096 100.996 53.264 104.748 53.544L104.412 59.256H83.16C81.2 59.256 79.744 59.732 78.792 60.684C77.896 61.58 77.448 63.092 77.448 65.22V111H70.14V63.876C70.14 60.628 71.12 57.996 73.08 55.98C75.096 53.964 77.644 52.956 80.724 52.956ZM133.302 51.948C137.502 51.948 141.058 52.452 143.97 53.46C146.938 54.468 149.29 56.148 151.026 58.5C152.818 60.796 154.106 63.876 154.89 67.74C155.73 71.604 156.15 76.364 156.15 82.02C156.15 87.676 155.73 92.436 154.89 96.3C154.106 100.164 152.818 103.272 151.026 105.624C149.29 107.92 146.938 109.572 143.97 110.58C141.058 111.588 137.502 112.092 133.302 112.092C129.102 112.092 125.518 111.588 122.55 110.58C119.638 109.572 117.286 107.92 115.494 105.624C113.702 103.272 112.386 100.164 111.546 96.3C110.762 92.436 110.37 87.676 110.37 82.02C110.37 76.364 110.762 71.604 111.546 67.74C112.386 63.876 113.702 60.796 115.494 58.5C117.286 56.148 119.638 54.468 122.55 53.46C125.518 52.452 129.102 51.948 133.302 51.948ZM133.302 58.584C129.494 58.584 126.47 59.312 124.23 60.768C122.046 62.224 120.478 64.66 119.526 68.076C118.63 71.436 118.182 76.084 118.182 82.02C118.182 87.9 118.63 92.548 119.526 95.964C120.478 99.38 122.046 101.816 124.23 103.272C126.47 104.728 129.494 105.456 133.302 105.456C137.11 105.456 140.106 104.728 142.29 103.272C144.53 101.816 146.098 99.38 146.994 95.964C147.946 92.548 148.422 87.9 148.422 82.02C148.422 76.084 147.946 71.436 146.994 68.076C146.098 64.66 144.53 62.224 142.29 60.768C140.106 59.312 137.11 58.584 133.302 58.584ZM188.263 53.04V111H180.871V53.04H188.263ZM206.995 53.04V59.592H162.223V53.04H206.995ZM235.923 51.948C240.123 51.948 243.679 52.452 246.591 53.46C249.559 54.468 251.911 56.148 253.647 58.5C255.439 60.796 256.727 63.876 257.511 67.74C258.351 71.604 258.771 76.364 258.771 82.02C258.771 87.676 258.351 92.436 257.511 96.3C256.727 100.164 255.439 103.272 253.647 105.624C251.911 107.92 249.559 109.572 246.591 110.58C243.679 111.588 240.123 112.092 235.923 112.092C231.723 112.092 228.139 111.588 225.171 110.58C222.259 109.572 219.907 107.92 218.115 105.624C216.323 103.272 215.007 100.164 214.167 96.3C213.383 92.436 212.991 87.676 212.991 82.02C212.991 76.364 213.383 71.604 214.167 67.74C215.007 63.876 216.323 60.796 218.115 58.5C219.907 56.148 222.259 54.468 225.171 53.46C228.139 52.452 231.723 51.948 235.923 51.948ZM235.923 58.584C232.115 58.584 229.091 59.312 226.851 60.768C224.667 62.224 223.099 64.66 222.147 68.076C221.251 71.436 220.803 76.084 220.803 82.02C220.803 87.9 221.251 92.548 222.147 95.964C223.099 99.38 224.667 101.816 226.851 103.272C229.091 104.728 232.115 105.456 235.923 105.456C239.731 105.456 242.727 104.728 244.911 103.272C247.151 101.816 248.719 99.38 249.615 95.964C250.567 92.548 251.043 87.9 251.043 82.02C251.043 76.084 250.567 71.436 249.615 68.076C248.719 64.66 247.151 62.224 244.911 60.768C242.727 59.312 239.731 58.584 235.923 58.584ZM290.101 52.368C294.861 52.368 298.641 52.816 301.441 53.712C304.241 54.552 306.257 56.064 307.489 58.248C308.777 60.432 309.421 63.512 309.421 67.488C309.421 71.632 308.637 74.796 307.069 76.98C305.557 79.164 303.065 80.424 299.593 80.76V81.096C303.905 81.488 306.901 83 308.581 85.632C310.317 88.264 311.185 91.904 311.185 96.552C311.185 100.528 310.569 103.608 309.337 105.792C308.105 107.976 306.117 109.516 303.373 110.412C300.685 111.252 297.129 111.672 292.705 111.672C289.401 111.672 286.545 111.644 284.137 111.588C281.785 111.588 279.601 111.532 277.585 111.42C275.569 111.308 273.469 111.168 271.285 111L272.461 105.12C273.693 105.176 276.017 105.232 279.433 105.288C282.905 105.344 286.937 105.372 291.529 105.372C294.609 105.372 297.017 105.12 298.753 104.616C300.545 104.056 301.805 103.048 302.533 101.592C303.317 100.136 303.709 98.036 303.709 95.292C303.709 92.268 303.317 89.944 302.533 88.32C301.749 86.696 300.433 85.548 298.585 84.876C296.737 84.204 294.217 83.84 291.025 83.784H272.377V78.156H290.941C293.741 78.1 295.953 77.82 297.577 77.316C299.257 76.756 300.461 75.776 301.189 74.376C301.917 72.92 302.281 70.904 302.281 68.328C302.281 65.696 301.889 63.68 301.105 62.28C300.321 60.88 299.005 59.928 297.157 59.424C295.365 58.92 292.901 58.668 289.765 58.668C287.021 58.668 284.557 58.668 282.373 58.668C280.189 58.668 278.257 58.696 276.577 58.752C274.953 58.752 273.581 58.808 272.461 58.92L271.285 53.04C273.245 52.816 275.093 52.676 276.829 52.62C278.621 52.508 280.553 52.452 282.625 52.452C284.753 52.396 287.245 52.368 290.101 52.368ZM278.509 53.04V111H271.285V53.04H278.509ZM344.122 51.948C348.322 51.948 351.878 52.452 354.79 53.46C357.758 54.468 360.11 56.148 361.846 58.5C363.638 60.796 364.926 63.876 365.71 67.74C366.55 71.604 366.97 76.364 366.97 82.02C366.97 87.676 366.55 92.436 365.71 96.3C364.926 100.164 363.638 103.272 361.846 105.624C360.11 107.92 357.758 109.572 354.79 110.58C351.878 111.588 348.322 112.092 344.122 112.092C339.922 112.092 336.338 111.588 333.37 110.58C330.458 109.572 328.106 107.92 326.314 105.624C324.522 103.272 323.206 100.164 322.366 96.3C321.582 92.436 321.19 87.676 321.19 82.02C321.19 76.364 321.582 71.604 322.366 67.74C323.206 63.876 324.522 60.796 326.314 58.5C328.106 56.148 330.458 54.468 333.37 53.46C336.338 52.452 339.922 51.948 344.122 51.948ZM344.122 58.584C340.314 58.584 337.29 59.312 335.05 60.768C332.866 62.224 331.298 64.66 330.346 68.076C329.45 71.436 329.002 76.084 329.002 82.02C329.002 87.9 329.45 92.548 330.346 95.964C331.298 99.38 332.866 101.816 335.05 103.272C337.29 104.728 340.314 105.456 344.122 105.456C347.93 105.456 350.926 104.728 353.11 103.272C355.35 101.816 356.918 99.38 357.814 95.964C358.766 92.548 359.242 87.9 359.242 82.02C359.242 76.084 358.766 71.436 357.814 68.076C356.918 64.66 355.35 62.224 353.11 60.768C350.926 59.312 347.93 58.584 344.122 58.584ZM387.212 52.62V78.324L386.54 93.276H380.828L380.072 78.324V52.62H387.212ZM384.608 101.088C385.56 101.088 386.232 101.284 386.624 101.676C387.072 102.068 387.296 102.768 387.296 103.776V108.312C387.296 109.32 387.072 110.02 386.624 110.412C386.232 110.804 385.56 111 384.608 111H382.76C381.808 111 381.136 110.804 380.744 110.412C380.352 110.02 380.156 109.32 380.156 108.312V103.776C380.156 102.768 380.352 102.068 380.744 101.676C381.136 101.284 381.808 101.088 382.76 101.088H384.608Z" fill="#1E2165"/>
</svg>
