<svg width="571" height="623" viewBox="0 0 571 623" fill="none" xmlns="http://www.w3.org/2000/svg">
<rect x="1.5" y="53.5" width="568" height="568" fill="white" stroke="#1E2165" stroke-width="3"/>
<circle cx="278.5" cy="386.5" r="208.5" fill="#FF5858"/>
<ellipse cx="280.5" cy="129" rx="130.5" ry="129" fill="#FF5858"/>
<ellipse cx="217.5" cy="334.5" rx="10.5" ry="20.5" fill="#1E2165"/>
<path d="M211 321C207 321 198 319.8 194 315" stroke="#1E2165" stroke-width="2"/>
<path d="M353 321C357 321 366 319.8 370 315" stroke="#1E2165" stroke-width="2"/>
<path d="M215 317C211 317 202 315.8 198 311" stroke="#1E2165" stroke-width="2"/>
<path d="M349 317C353 317 362 315.8 366 311" stroke="#1E2165" stroke-width="2"/>
<ellipse cx="346.5" cy="335.5" rx="10.5" ry="20.5" fill="#1E2165"/>
<path d="M358 230.294L386.395 291.854L388.388 296.175L393.113 296.735L460.435 304.717L410.662 350.745L407.169 353.976L408.096 358.643L421.308 425.136L362.152 392.023L358 389.699L353.848 392.023L294.692 425.136L307.904 358.643L308.382 356.238L307.506 353.949L288.478 304.214L323.683 296.602L327.828 295.706L329.605 291.854L358 230.294Z" stroke="#1E2165" stroke-width="17"/>
<path d="M198 230.294L226.395 291.854L228.15 295.659L232.237 296.584L265.84 304.189L248.407 354.187L247.645 356.373L248.096 358.643L261.308 425.136L202.152 392.023L198 389.699L193.848 392.023L134.692 425.136L147.904 358.643L148.831 353.976L145.338 350.745L95.5652 304.717L162.887 296.735L167.612 296.175L169.605 291.854L198 230.294Z" stroke="#1E2165" stroke-width="17"/>
<rect x="261" y="295" width="32" height="22" fill="#1E2165"/>
</svg>
