<svg width="571" height="623" viewBox="0 0 571 623" fill="none" xmlns="http://www.w3.org/2000/svg">
<rect x="1.5" y="53.5" width="568" height="568" fill="white" stroke="#1E2165" stroke-width="3"/>
<circle cx="278.5" cy="386.5" r="208.5" fill="#FF5858"/>
<ellipse cx="280.5" cy="129" rx="130.5" ry="129" fill="#FF5858"/>
<circle cx="162.5" cy="337.5" r="103.5" fill="#2B2B2B" stroke="black" stroke-width="22"/>
<circle cx="409.5" cy="337.5" r="103.5" fill="#2A2A2A" stroke="black" stroke-width="22"/>
<path d="M209 322C185.706 322 133.294 320.6 110 315" stroke="black" stroke-width="2"/>
<path d="M358 322C381.294 322 433.706 320.6 457 315" stroke="black" stroke-width="2"/>
<path d="M211 318C188.882 318 139.118 312.4 117 290" stroke="black" stroke-width="2"/>
<path d="M356 318C378.118 318 427.882 312.4 450 290" stroke="black" stroke-width="2"/>
<line x1="173.721" y1="264.652" x2="230.721" y2="293.652" stroke="black" stroke-width="12"/>
<line y1="-6" x2="63.9531" y2="-6" transform="matrix(-0.891278 0.453457 0.453457 0.891278 396 270)" stroke="black" stroke-width="12"/>
<path d="M224.231 351C216.154 350.776 200 346.918 200 333.283C200 316.239 207.114 322.294 200 306.371C203.336 308.592 209.819 314.049 211.597 319.566C210.322 312.662 210.488 299.482 219.563 290C219.266 301.213 219.785 324.043 224.231 325.658C222.897 324.013 221.03 319.289 224.231 313.548C227.432 307.807 225.5 310.5 226.5 314.5C228.427 318.088 230.9 322.608 234.457 325.658C238.903 329.471 238.681 350.551 224.231 351Z" fill="#B60000"/>
<path d="M337.769 354C345.846 353.776 362 349.918 362 336.283C362 319.239 354.886 325.294 362 309.371C358.664 311.592 352.181 317.049 350.403 322.566C351.678 315.662 351.512 302.482 342.437 293C342.734 304.213 342.215 327.043 337.769 328.658C339.103 327.013 340.97 322.289 337.769 316.548C336.504 314.28 335.598 312.771 335.048 311.872C335.034 311.748 335.018 311.624 335 311.5C334.193 310.55 334.204 310.496 335.048 311.872C335.827 318.75 331.037 325.662 327.543 328.658C323.097 332.471 323.319 353.551 337.769 354Z" fill="#B60000"/>
</svg>
