<svg width="924" height="751" viewBox="0 0 924 751" fill="none" xmlns="http://www.w3.org/2000/svg">
<rect x="319.5" y="1.5" width="568" height="568" fill="white" stroke="#1E2165" stroke-width="3"/>
<path d="M254.681 324.06C318.375 202.696 354.46 348.715 463.479 405.929C572.497 463.143 713.164 409.886 649.471 531.25C585.778 652.615 445.767 704.619 336.749 647.405C227.731 590.191 190.988 445.425 254.681 324.06Z" fill="#FF5858"/>
<ellipse cx="461.991" cy="416.737" rx="477.349" ry="84.6013" transform="rotate(-152.309 461.991 416.737)" fill="#FF5858"/>
<ellipse cx="468.082" cy="417.415" rx="344.074" ry="52.5401" transform="rotate(-152.309 468.082 417.415)" fill="#1E2165"/>
<path d="M356.886 31.4471L395.504 17.1104C397.591 16.3357 399.839 16.2557 401.752 16.888C403.666 17.5203 405.089 18.8131 405.709 20.4821L445.419 127.45C446.007 129.036 447.105 130.403 448.603 131.412C450.101 132.421 451.947 133.039 453.957 133.202L454.421 133.234C466.01 134.272 476.632 137.912 485.24 143.794C493.848 149.677 500.144 157.599 503.509 166.781L596.514 417.306C597.798 420.765 597.312 424.72 595.161 428.301C593.011 431.883 589.373 434.797 585.048 436.402L486.071 473.146C481.746 474.752 477.088 474.918 473.122 473.607C469.156 472.297 466.206 469.617 464.922 466.158L371.917 215.633C368.67 207.099 367.832 197.778 369.462 188.341C371.2 178.746 375.763 167.452 386.751 158.532C388.663 156.966 390.066 155.022 390.784 152.941C391.502 150.861 391.505 148.736 390.791 146.83L351.523 40.4309C350.92 38.8066 351.146 36.9497 352.151 35.2663C353.156 33.5829 354.858 32.2098 356.886 31.4471Z" fill="#1E2165"/>
<path d="M616.097 210.459C598.527 268.749 633.531 294.368 653.229 299.891C602.331 291.901 594.738 259.488 597.304 244.28C588.7 284.683 627.644 306.247 636.7 303.75C643.946 301.753 648.776 307.004 650.285 309.879L663.87 318.504C685.606 349.193 712.625 347.029 723.417 342.111C698.965 347.195 689.983 330.459 688.55 321.455C693.44 317.823 702.059 319.942 705.757 321.455C700.55 318.807 692.353 313.919 701.229 315.553C712.323 317.596 728.851 311.468 735.87 299.891C741.485 290.63 750.285 298.605 753.983 303.75C760.867 302.479 756.851 296.26 753.983 293.309C779.116 297.395 796.323 287.18 793.833 283.094C791.84 279.826 769.908 273.712 759.191 271.064C773.002 267.659 774.134 256.764 771.191 260.85C768.836 264.118 762.21 262.212 759.191 260.85L783.191 248.82L753.983 231.569C760.867 223.397 751.116 220.446 745.38 219.992C751.357 209.46 736.851 209.248 728.851 210.459C716.172 188.214 691.493 195.251 682.436 195.251C675.191 195.251 662.361 183.75 656.851 178L636.7 195.251L605.908 188.214L616.097 210.459Z" fill="#1E2165"/>
<path d="M625.149 394.344L665.626 291.182L672.949 295.249L668.322 305.657L675.586 309.406L665.165 309.537L656.273 333.905L657.606 341.063L651.068 344.421L635.812 384.294L618.233 421.307L631.133 426.476L619.596 428.625L595.869 490.319L587.504 491.877L603.899 448.5L597.848 444.854L607.078 443.135L621.735 404.855L610.018 399.631L625.149 394.344Z" fill="#1E2165"/>
<ellipse cx="593.805" cy="387.232" rx="17.2082" ry="41.4355" transform="rotate(-39.9669 593.805 387.232)" fill="#1E2165"/>
<ellipse cx="605.406" cy="347.143" rx="17.2082" ry="41.4355" transform="rotate(-10.8309 605.406 347.143)" fill="#1E2165"/>
<ellipse cx="651.76" cy="422.815" rx="22.2413" ry="38.3978" transform="rotate(74.3958 651.76 422.815)" fill="#1E2165"/>
<ellipse cx="679.212" cy="378.685" rx="24.676" ry="37.0631" transform="rotate(40.3116 679.212 378.685)" fill="#1E2165"/>
<ellipse cx="594.503" cy="443.183" rx="9.13789" ry="18.9949" transform="rotate(-40.0586 594.503 443.183)" fill="#1E2165"/>
</svg>
