<svg width="924" height="774" viewBox="0 0 924 774" fill="none" xmlns="http://www.w3.org/2000/svg">
<rect x="319.5" y="1.5" width="568" height="568" fill="white" stroke="#1E2165" stroke-width="3"/>
<path d="M254.681 347.06C318.375 225.696 354.46 371.715 463.479 428.929C572.497 486.143 713.164 432.886 649.471 554.25C585.778 675.615 445.767 727.619 336.749 670.405C227.731 613.191 190.988 468.425 254.681 347.06Z" fill="#FF5858"/>
<ellipse cx="461.991" cy="439.737" rx="477.349" ry="84.6013" transform="rotate(-152.309 461.991 439.737)" fill="#FF5858"/>
<ellipse cx="468.082" cy="440.415" rx="344.074" ry="52.5401" transform="rotate(-152.309 468.082 440.415)" fill="#1E2165"/>
<path d="M385.296 223.612C359.423 180.376 351.22 129.466 362.341 81.1556L369.744 49L503.684 272.82L436.94 309.911L385.296 223.612Z" fill="#1E2165"/>
<path d="M593.106 509.468L632.354 487.657L496.935 261.364L457.686 283.175L593.106 509.468Z" fill="#1E2165"/>
<ellipse cx="641.845" cy="239.683" rx="86.5329" ry="16.5016" transform="rotate(32.7431 641.845 239.683)" fill="#1E2165"/>
<ellipse cx="605.709" cy="295.878" rx="86.5329" ry="16.5016" transform="rotate(32.7431 605.709 295.878)" fill="#1E2165"/>
<rect x="568.844" y="193.218" width="173.066" height="66.8115" transform="rotate(32.7431 568.844 193.218)" fill="#1E2165"/>
<path d="M714.231 287.104L726.818 291.087C752.038 299.068 774.852 313.254 793.165 332.343L806.987 346.751L806.374 347.131C786.736 359.281 773.721 379.732 771.03 402.667L756.377 387.589C738.451 369.144 716.294 355.355 691.829 347.417L678.274 343.02L714.231 287.104Z" fill="#1E2165"/>
<path d="M498.439 454.03C493.993 425.384 521.425 378.224 666.725 418.75C848.349 469.408 854.506 545.395 776.52 546.903C698.535 548.411 525.632 532.429 551.798 493.23C577.964 454.03 622.088 418.751 666.725 442.572C711.361 466.393 650.306 527.906 720.596 517.051C790.886 506.196 905.3 502.276 837.062 472.424C768.824 442.572 766.259 453.427 720.596 476.344C674.934 499.26 648.254 514.036 630.297 501.673C612.34 489.31 618.61 451.015 651.333 476.344C677.511 496.607 697.813 519.162 704.691 527.906" stroke="#1E2165" stroke-width="28"/>
</svg>
