<svg width="924" height="751" viewBox="0 0 924 751" fill="none" xmlns="http://www.w3.org/2000/svg">
<rect x="301.5" y="1.5" width="568" height="568" fill="white" stroke="#1E2165" stroke-width="3"/>
<path d="M254.681 324.06C318.375 202.696 354.46 348.715 463.479 405.929C572.497 463.143 713.164 409.886 649.471 531.25C585.778 652.615 445.767 704.619 336.749 647.405C227.731 590.191 190.988 445.425 254.681 324.06Z" fill="#FF5858"/>
<ellipse cx="461.991" cy="416.737" rx="477.349" ry="84.6013" transform="rotate(-152.309 461.991 416.737)" fill="#FF5858"/>
<ellipse cx="468.082" cy="417.415" rx="344.074" ry="52.5401" transform="rotate(-152.309 468.082 417.415)" fill="#1E2165"/>
<rect x="326" y="156.807" width="172" height="318" transform="rotate(-25.4113 326 156.807)" fill="#1E2165"/>
<rect x="425.52" y="86.6328" width="71.3863" height="75.6904" transform="rotate(-25.4113 425.52 86.6328)" fill="white"/>
<rect x="492.042" y="64" width="51.9953" height="55.0103" transform="rotate(15.8687 492.042 64)" fill="#1E2165"/>
<rect x="383.295" y="277.41" width="172" height="184.479" transform="rotate(-25.4113 383.295 277.41)" fill="#1E2165"/>
<rect x="364.53" y="289.449" width="220.102" height="61.0603" transform="rotate(-25.4113 364.53 289.449)" fill="#1E2165"/>
<path d="M687.5 242.5C696.833 301 693.7 428.7 606.5 471.5" stroke="#1E2165" stroke-width="14"/>
<circle cx="691" cy="243" r="17" fill="white"/>
<path d="M690.591 244L721.938 305.236C733.934 328.669 716.916 356.5 690.591 356.5C664.265 356.5 647.247 328.67 659.243 305.236L690.591 244Z" fill="#1E2165"/>
<path d="M642.375 435.135L697.691 394.238C718.859 378.587 749.089 390.848 753.374 416.822C757.66 442.797 732.971 464.118 707.897 456.097L642.375 435.135Z" fill="#1E2165"/>
<path d="M690.591 243.5L659.243 182.264C647.247 158.831 664.265 131 690.591 131C716.916 131 733.935 158.83 721.939 182.264L690.591 243.5Z" fill="#1E2165"/>
<path d="M691 244.591L752.236 213.243C775.669 201.247 803.5 218.265 803.5 244.591C803.5 270.916 775.67 287.934 752.236 275.938L691 244.591Z" fill="#1E2165"/>
<path d="M690.5 244.591L629.264 275.938C605.831 287.934 578 270.916 578 244.591C578 218.265 605.83 201.247 629.264 213.243L690.5 244.591Z" fill="#1E2165"/>
<path d="M684.899 240.899L750.224 262.391C774.798 270.476 782.217 301.631 763.924 319.924C745.631 338.217 714.476 330.798 706.391 306.224L684.899 240.899Z" fill="#1E2165"/>
<path d="M692.274 243.054L672.773 304.671C665.178 328.667 634.851 336.071 617.054 318.274C599.257 300.477 606.661 270.149 630.656 262.555L692.274 243.054Z" fill="#1E2165"/>
<path d="M687.25 245.286L709.69 178.117C718.001 153.239 748.435 146.154 766.019 165.004C783.603 183.854 776.059 215.477 752.056 223.534L687.25 245.286Z" fill="#1E2165"/>
<path d="M693.727 250.499L629.637 226.722C605.899 217.915 599.352 186.071 617.519 167.783C635.687 149.494 665.883 157.531 673.409 182.658L693.727 250.499Z" fill="#1E2165"/>
<circle cx="691" cy="244" r="21" fill="#1E2165"/>
</svg>
