<svg width="1235" height="481" viewBox="0 0 1235 481" fill="none" xmlns="http://www.w3.org/2000/svg">
<path d="M55.6509 1296.24C-65.656 138.633 133.571 267.79 138.219 260.108H246.687V1296.24H55.6509Z" fill="#FF5858"/>
<path d="M359.334 1296.24C479.577 138.633 282.097 267.79 277.49 260.108H169.973V1296.24H359.334Z" fill="#FF5858"/>
<ellipse cx="201.264" cy="203.164" rx="83.7796" ry="83.9294" fill="#FF5858"/>
<ellipse cx="202.274" cy="99.2512" rx="52.4884" ry="51.9563" fill="#FF5858"/>
<path d="M294.618 685.255C170.046 149.159 374.635 208.972 379.408 205.414H490.795V685.255H294.618Z" fill="#FF5858"/>
<path d="M609.944 685.255C733.413 149.159 530.635 208.972 525.903 205.414H415.502V685.255H609.944Z" fill="#FF5858"/>
<ellipse cx="443.737" cy="146.988" rx="86.7955" ry="86.9508" fill="#FF5858"/>
<path d="M505.436 66.625C505.436 103.421 478.749 73.2123 445.829 73.2123C412.909 73.2123 386.223 103.421 386.223 66.625C386.223 29.829 412.909 0 445.829 0C478.749 0 505.436 29.829 505.436 66.625Z" fill="#FF5858"/>
<ellipse cx="444.783" cy="70.389" rx="127.579" ry="22.7728" fill="#FF5858"/>
<ellipse cx="53.7736" cy="351.807" rx="53.7736" ry="53.9326" fill="#FF5858"/>
<rect x="455.68" y="97.749" width="322.123" height="96.5678" fill="white" stroke="#1E2165" stroke-width="3"/>
<rect x="611.21" y="260.376" width="519.017" height="109.014" fill="white" stroke="#1E2165" stroke-width="3"/>
<path d="M633.6 331V309.4H639.36L641.4 323.88H642.6L644.64 309.4H650.4V331H646.8V326.68L647.76 312.2H646.56L644.4 326.68H639.6L637.44 312.2H636.24L637.2 326.68V331H633.6ZM657.984 331V309.4H661.584V314.32L661.344 318.52H670.624L670.384 314.32V309.4H673.984V331H670.384V325.52L670.624 321.32H661.344L661.584 325.52V331H657.984ZM690.369 331.4C685.249 331.4 681.569 327.68 681.569 320.28C681.569 312.88 685.249 309 690.369 309C695.449 309 698.369 312.8 698.369 317.76V320.76H684.729L685.729 323.76C686.009 326.56 687.249 328.4 690.369 328.4C693.009 328.4 694.169 327.04 694.489 324.4H698.169C697.449 329.04 694.769 331.4 690.369 331.4ZM684.729 318.16H695.569L694.569 315.16C694.129 313.48 693.089 311.8 690.369 311.8C688.049 311.8 686.409 313.04 685.729 315.16L684.729 318.16ZM728.738 312.2V309.4H747.138V312.2H739.498L739.738 316.4V331H736.138V316.4L736.378 312.2H728.738ZM767.242 320.24C767.242 314.44 764.842 311.8 761.922 311.8C759.002 311.8 756.602 314.44 756.602 320.24C756.562 326.08 759.002 328.4 761.922 328.4C764.842 328.4 767.282 326.08 767.242 320.24ZM752.922 320.24C752.922 312.44 757.002 309 761.922 309C766.842 309 770.922 312.44 770.922 320.24C770.922 328.04 766.842 331.4 761.922 331.4C757.002 331.4 752.922 328.04 752.922 320.24ZM784.306 331V325.52L784.546 321.32H783.986C782.946 321.32 782.306 322.24 781.706 324L779.346 331H775.746L779.346 322.96C780.226 321.04 781.066 320.52 782.626 320.52V319.32C781.186 319.32 780.066 318.8 779.266 316.88L776.146 309.4H779.746L781.626 315.84C782.146 317.64 782.946 318.52 783.986 318.52H784.546L784.306 314.32V309.4H787.506V314.32L787.266 318.52H787.826C788.866 318.52 789.666 317.64 790.186 315.84L792.066 309.4H795.666L792.546 316.88C791.746 318.8 790.626 319.32 789.186 319.32V320.52C790.746 320.52 791.586 321.04 792.466 322.96L796.066 331H792.466L790.106 324C789.506 322.24 788.866 321.32 787.826 321.32H787.266L787.506 325.52V331H784.306ZM810.291 331.4C805.171 331.4 801.491 327.68 801.491 320.28C801.491 312.88 805.171 309 810.291 309C815.371 309 818.291 312.8 818.291 317.76V320.76H804.651L805.651 323.76C805.931 326.56 807.171 328.4 810.291 328.4C812.931 328.4 814.091 327.04 814.411 324.4H818.091C817.371 329.04 814.691 331.4 810.291 331.4ZM804.651 318.16H815.491L814.491 315.16C814.051 313.48 813.011 311.8 810.291 311.8C807.971 311.8 806.331 313.04 805.651 315.16L804.651 318.16ZM849.859 331V309.4H853.459V314.32L853.219 318.52H862.499L862.259 314.32V309.4H865.859V331H862.259V325.52L862.499 321.32H853.219L853.459 325.52V331H849.859ZM882.244 331.4C877.124 331.4 873.444 327.68 873.444 320.28C873.444 312.88 877.124 309 882.244 309C887.324 309 890.244 312.8 890.244 317.76V320.76H876.604L877.604 323.76C877.884 326.56 879.124 328.4 882.244 328.4C884.884 328.4 886.044 327.04 886.364 324.4H890.044C889.324 329.04 886.644 331.4 882.244 331.4ZM876.604 318.16H887.444L886.444 315.16C886.004 313.48 884.964 311.8 882.244 311.8C879.924 311.8 878.284 313.04 877.604 315.16L876.604 318.16ZM921.813 331V309.4H925.413V314.32L925.173 318.52H934.453L934.213 314.32V309.4H937.812V331H934.213V325.52L934.453 321.32H925.173L925.413 325.52V331H921.813ZM946.797 339V316.44L947.037 312.24V312.2H944.597V309.4H949.597L948.397 315.2H949.597C950.637 310.4 953.077 308.72 956.397 308.72C960.837 308.72 963.797 311.72 963.797 320.2C963.797 327.92 960.437 331.4 956.397 331.4C953.797 331.4 950.637 329.96 949.597 325.2H948.397L950.397 334.88V339H946.797ZM950.397 320.2C950.397 325.92 952.957 328.56 955.717 328.56C958.037 328.56 960.237 326.72 960.197 320.2C960.157 313.88 958.197 311.56 955.717 311.56C952.957 311.56 950.397 314.48 950.397 320.2ZM974.701 331.4C970.901 331.4 968.381 328.4 968.381 325.12C968.381 320.92 971.141 318.92 974.261 318.92C976.501 318.92 979.061 320.36 980.701 322.6H981.621L980.981 316.8C980.981 312.8 979.421 311.8 977.461 311.8C974.181 311.8 973.701 314.56 973.701 316.8H970.101C970.101 311.6 972.941 309 977.461 309C981.981 309 984.541 311.64 984.581 316.8V325.2C984.581 327.36 985.141 328 987.181 328V331C983.741 331 982.981 329.84 982.981 325.2H981.781C980.981 328.44 977.941 331.4 974.701 331.4ZM971.901 325.12C971.901 327.36 972.901 328.4 974.701 328.4C976.621 328.4 979.101 327.08 980.101 323.64C978.341 321.96 976.501 321.24 975.221 321.24C973.181 321.24 971.901 322.56 971.901 325.12ZM994.166 331V309.4H1004.37C1007.97 309.4 1009.77 312.2 1009.77 314.8C1009.77 317.2 1008.17 319 1005.37 319V320.2C1008.97 320.2 1010.97 322.4 1010.97 325C1010.97 328 1008.49 331 1002.57 331H994.166ZM997.526 328.2H1001.57C1005.97 328.2 1007.37 327 1007.37 325C1007.37 322.84 1005.57 321 1001.57 321H997.526L997.766 324.2V325L997.526 328.2ZM997.526 318.2H1001.57C1004.37 318.2 1006.17 317 1006.17 315C1006.17 313.6 1005.37 312.2 1003.17 312.2H997.526L997.766 315V315.4L997.526 318.2ZM1027.95 309.4H1033.75V331H1030.15V323L1031.11 312.2H1029.91L1023.55 331H1017.75V309.4H1021.35V317.4L1020.39 328.2H1021.59L1027.95 309.4ZM1040.53 312.2V309.4H1058.93V312.2H1051.29L1051.53 316.4V331H1047.93V316.4L1048.17 312.2H1040.53ZM1065.12 320.24C1065.12 312.84 1069 309 1074.32 309C1079.44 309 1082.64 312.52 1082.64 317.4H1079.04C1079.04 314.56 1077.48 311.8 1074.32 311.8C1071 311.8 1068.8 314.84 1068.8 320.24C1068.76 325.68 1071 328.4 1074.32 328.4C1077.48 328.4 1079.12 326.12 1079.12 322.4H1082.72C1082.72 328.16 1079.28 331.4 1074.32 331.4C1069 331.4 1065.12 327.64 1065.12 320.24ZM1098.86 322.64C1096.9 322.64 1095.38 323.76 1094.74 325.16L1091.98 331H1088.3L1091.38 324.6C1092.02 323.28 1092.62 322.12 1094.7 321.84V320.64C1091.9 320.64 1089.9 318.08 1089.9 315.04C1089.9 311.8 1092.3 309.4 1096.1 309.4H1105.5V331H1101.9V325.84L1102.14 322.64H1098.86ZM1093.5 315.64C1093.5 318.72 1095.7 319.84 1098.5 319.84H1102.14L1101.9 317.04V315L1102.14 312.2H1097.3C1094.42 312.2 1093.5 313.6 1093.5 315.64Z" fill="black"/>
<path d="M491.455 194.827L477.758 222.323L464.061 194.827H491.455Z" fill="white" stroke="#1E2165" stroke-width="3"/>
<path d="M1123.5 369.901L1109.8 397.397L1096.11 369.901H1123.5Z" fill="white" stroke="#1E2165" stroke-width="3"/>
<path d="M509.4 158V134.24H513.36V139.652L513.096 144.272H523.304L523.04 139.652V134.24H527V158H523.04V151.972L523.304 147.352H513.096L513.36 151.972V158H509.4ZM545.023 158.44C539.391 158.44 535.343 154.348 535.343 146.208C535.343 138.068 539.391 133.8 545.023 133.8C550.611 133.8 553.823 137.98 553.823 143.436V146.736H538.819L539.919 150.036C540.227 153.116 541.591 155.14 545.023 155.14C547.927 155.14 549.203 153.644 549.555 150.74H553.603C552.811 155.844 549.863 158.44 545.023 158.44ZM538.819 143.876H550.743L549.643 140.576C549.159 138.728 548.015 136.88 545.023 136.88C542.471 136.88 540.667 138.244 539.919 140.576L538.819 143.876ZM563.046 158V134.24H567.006V139.652L566.742 144.272H568.81C569.822 144.272 571.01 143.128 572.022 141.324L576.026 134.24H580.426L575.058 142.468C573.826 144.404 572.682 145.152 570.658 145.152V146.472C572.814 146.472 573.782 147.22 575.058 149.156L580.866 158H576.466L572.022 150.3C571.01 148.54 569.822 147.352 568.81 147.352H566.742L567.006 151.972V158H563.046ZM589.648 166.8V141.984L589.912 137.364V137.32H587.228V134.24H592.728L591.408 140.62H592.728C593.872 135.34 596.556 133.492 600.208 133.492C605.092 133.492 608.348 136.792 608.348 146.12C608.348 154.612 604.652 158.44 600.208 158.44C597.348 158.44 593.872 156.856 592.728 151.62H591.408L593.608 162.268V166.8H589.648ZM593.608 146.12C593.608 152.412 596.424 155.316 599.46 155.316C602.012 155.316 604.432 153.292 604.388 146.12C604.344 139.168 602.188 136.616 599.46 136.616C596.424 136.616 593.608 139.828 593.608 146.12ZM620.343 158.44C616.163 158.44 613.391 155.14 613.391 151.532C613.391 146.912 616.427 144.712 619.859 144.712C622.323 144.712 625.139 146.296 626.943 148.76H627.955L627.251 142.38C627.251 137.98 625.535 136.88 623.379 136.88C619.771 136.88 619.243 139.916 619.243 142.38H615.283C615.283 136.66 618.407 133.8 623.379 133.8C628.351 133.8 631.167 136.704 631.211 142.38V151.62C631.211 153.996 631.827 154.7 634.071 154.7V158C630.287 158 629.451 156.724 629.451 151.62H628.131C627.251 155.184 623.907 158.44 620.343 158.44ZM617.263 151.532C617.263 153.996 618.363 155.14 620.343 155.14C622.455 155.14 625.183 153.688 626.283 149.904C624.347 148.056 622.323 147.264 620.915 147.264C618.671 147.264 617.263 148.716 617.263 151.532ZM640.654 146.164C640.654 138.024 644.922 133.8 650.774 133.8C656.406 133.8 659.926 137.672 659.926 143.04H655.966C655.966 139.916 654.25 136.88 650.774 136.88C647.122 136.88 644.702 140.224 644.702 146.164C644.658 152.148 647.122 155.14 650.774 155.14C654.25 155.14 656.054 152.632 656.054 148.54H660.014C660.014 154.876 656.23 158.44 650.774 158.44C644.922 158.44 640.654 154.304 640.654 146.164ZM678.917 134.24H685.297V158H681.337V149.2L682.393 137.32H681.073L674.077 158H667.697V134.24H671.657V143.04L670.601 154.92H671.921L678.917 134.24ZM694.52 158V134.24H705.74C709.7 134.24 711.68 137.32 711.68 140.18C711.68 142.82 709.92 144.8 706.84 144.8V146.12C710.8 146.12 713 148.54 713 151.4C713 154.7 710.272 158 703.76 158H694.52ZM698.216 154.92H702.66C707.5 154.92 709.04 153.6 709.04 151.4C709.04 149.024 707.06 147 702.66 147H698.216L698.48 150.52V151.4L698.216 154.92ZM698.216 143.92H702.66C705.74 143.92 707.72 142.6 707.72 140.4C707.72 138.86 706.84 137.32 704.42 137.32H698.216L698.48 140.4V140.84L698.216 143.92ZM735.115 146.164C735.115 139.784 732.475 136.88 729.263 136.88C726.051 136.88 723.411 139.784 723.411 146.164C723.367 152.588 726.051 155.14 729.263 155.14C732.475 155.14 735.159 152.588 735.115 146.164ZM719.363 146.164C719.363 137.584 723.851 133.8 729.263 133.8C734.675 133.8 739.163 137.584 739.163 146.164C739.163 154.744 734.675 158.44 729.263 158.44C723.851 158.44 719.363 154.744 719.363 146.164Z" fill="black"/>
</svg>
