<svg width="571" height="571" viewBox="0 0 571 571" fill="none" xmlns="http://www.w3.org/2000/svg">
<rect x="1.5" y="1.5" width="568" height="568" fill="white" stroke="#1E2165" stroke-width="3"/>
<path d="M120.496 291H453.504L571 571H3L120.496 291Z" fill="#1E2165"/>
<path d="M413.5 290.5C413.5 371.512 352.608 435.5 279.5 435.5C206.392 435.5 145.5 371.512 145.5 290.5C145.5 209.488 206.392 145.5 279.5 145.5C352.608 145.5 413.5 209.488 413.5 290.5Z" stroke="#1E2165" stroke-width="27"/>
<path fill-rule="evenodd" clip-rule="evenodd" d="M235.253 335C235.37 335.631 235.491 336.262 235.616 336.891C235.665 337.141 235.716 337.391 235.766 337.64L236.468 336.725L237.405 336.542L235.253 335ZM243.438 340.866L240.164 338.519L238.953 340.1L236.409 340.656C236.689 341.909 236.984 343.158 237.294 344.402L240.443 343.638L241.006 344.041L243.438 340.866ZM238.269 348.125L242.193 347.078C242.525 348.287 242.872 349.49 243.233 350.689L239.334 351.825C238.964 350.597 238.609 349.364 238.269 348.125ZM240.488 355.498L244.359 354.274C244.75 355.466 245.154 356.652 245.573 357.832L241.731 359.144C241.303 357.934 240.888 356.719 240.488 355.498ZM243.063 362.759L246.872 361.36C247.32 362.532 247.782 363.698 248.257 364.858L244.482 366.342C243.995 365.154 243.522 363.959 243.063 362.759ZM245.987 369.891L249.726 368.322C250.23 369.471 250.748 370.614 251.279 371.751L247.578 373.404C247.034 372.24 246.503 371.069 245.987 369.891ZM249.254 376.88L252.915 375.142C253.474 376.267 254.047 377.385 254.633 378.495L251.014 380.315C250.414 379.177 249.827 378.032 249.254 376.88ZM252.857 383.709L256.432 381.808C257.045 382.905 257.671 383.995 258.311 385.077L254.782 387.059C254.127 385.95 253.486 384.833 252.857 383.709ZM256.788 390.363L260.268 388.303C260.934 389.37 261.613 390.43 262.304 391.482L258.874 393.621C258.165 392.543 257.47 391.457 256.788 390.363ZM261.038 396.829L264.416 394.613C265.133 395.649 265.863 396.676 266.604 397.695L263.28 399.987C262.52 398.943 261.773 397.89 261.038 396.829ZM265.598 403.092L268.867 400.726C269.633 401.727 270.412 402.719 271.202 403.703L267.991 406.142C267.181 405.135 266.383 404.118 265.598 403.092ZM270.457 409.137L273.61 406.626C274.424 407.591 275.25 408.547 276.088 409.493L272.996 412.075C272.138 411.105 271.291 410.126 270.457 409.137ZM275.606 414.953L278.635 412.302C279.495 413.228 280.367 414.145 281.25 415.051L278.285 417.77C277.38 416.84 276.487 415.901 275.606 414.953ZM281.033 420.525L283.931 417.74C284.835 418.626 285.751 419.501 286.677 420.367L283.846 423.215C282.897 422.329 281.959 421.432 281.033 420.525ZM286.725 425.841L289.487 422.929C290.433 423.772 291.39 424.604 292.359 425.426L289.667 428.4C288.675 427.557 287.695 426.704 286.725 425.841ZM292.671 430.89L295.29 427.857C296.276 428.656 297.273 429.443 298.281 430.22L295.735 433.311C294.703 432.515 293.682 431.708 292.671 430.89ZM329.164 457.393L332.415 459.723L334.848 456.548L333.249 455.403L331.952 457.096L330.299 455.911L329.164 457.393ZM357.236 427.331L359.669 424.156L356.417 421.826L355.282 423.308L356.896 424.465L355.599 426.158L357.236 427.331ZM246.713 343.212L244.28 346.387L247.554 348.733L249.987 345.558L246.713 343.212ZM253.261 347.904L250.828 351.079L254.102 353.426L256.535 350.251L253.261 347.904ZM259.809 352.597L257.376 355.772L260.65 358.118L263.083 354.943L259.809 352.597ZM266.357 357.289L263.924 360.464L267.198 362.81L269.631 359.635L266.357 357.289ZM272.905 361.982L270.472 365.157L273.746 367.503L276.179 364.328L272.905 361.982ZM279.453 366.674L277.021 369.849L280.295 372.195L282.727 369.02L279.453 366.674ZM286.002 371.366L283.569 374.542L286.843 376.888L289.276 373.713L286.002 371.366ZM292.55 376.059L290.117 379.234L293.391 381.58L295.824 378.405L292.55 376.059ZM299.098 380.751L296.665 383.926L299.939 386.273L302.372 383.098L299.098 380.751ZM305.646 385.444L303.213 388.619L306.487 390.965L308.92 387.79L305.646 385.444ZM312.194 390.136L309.761 393.311L313.035 395.657L315.468 392.482L312.194 390.136ZM318.742 394.829L316.31 398.004L319.584 400.35L322.017 397.175L318.742 394.829ZM325.291 399.521L322.858 402.696L326.132 405.042L328.565 401.867L325.291 399.521ZM331.839 404.214L329.406 407.389L332.68 409.735L335.113 406.56L331.839 404.214ZM338.387 408.906L335.954 412.081L339.228 414.427L341.661 411.252L338.387 408.906ZM344.935 413.598L342.502 416.773L345.776 419.12L348.209 415.945L344.935 413.598ZM351.483 418.291L349.05 421.466L352.324 423.812L354.757 420.637L351.483 418.291ZM356.262 428.602L353.01 426.272L350.739 429.236L353.991 431.566L356.262 428.602ZM351.72 434.53L348.468 432.2L346.197 435.164L349.449 437.494L351.72 434.53ZM347.177 440.458L343.926 438.128L341.655 441.092L344.906 443.422L347.177 440.458ZM342.635 446.386L339.384 444.056L337.113 447.02L340.364 449.35L342.635 446.386ZM338.093 452.314L334.842 449.984L332.571 452.948L335.822 455.277L338.093 452.314ZM327.619 456.286L330.052 453.111L326.855 450.82L324.422 453.995L327.619 456.286ZM321.224 451.704L323.657 448.529L320.46 446.237L318.027 449.412L321.224 451.704ZM314.829 447.121L317.262 443.946L314.065 441.655L311.632 444.83L314.829 447.121ZM308.434 442.539L310.867 439.364L307.67 437.072L305.237 440.247L308.434 442.539ZM302.039 437.956L304.472 434.781L302.874 433.635C302.356 433.264 301.841 432.89 301.328 432.514L298.857 435.662C299.382 436.047 299.91 436.43 300.441 436.81L302.039 437.956Z" fill="white"/>
<path fill-rule="evenodd" clip-rule="evenodd" d="M463.121 530.624L465.554 527.449L463.9 526.264L462.824 527.667L461.227 526.523L459.87 528.294L463.121 530.624ZM347.251 447.592L344 445.262L346.433 442.087L348.087 443.272L347.012 444.676L348.609 445.82L347.251 447.592ZM357.859 427.175L360.292 424L363.543 426.33L362.186 428.102L360.589 426.957L359.514 428.361L357.859 427.175ZM476.162 507.032L479.413 509.362L476.98 512.537L475.326 511.352L476.401 509.949L474.804 508.804L476.162 507.032ZM467.194 525.309L463.943 522.979L466.658 519.435L469.909 521.765L467.194 525.309ZM472.625 518.222L469.373 515.892L472.089 512.348L475.34 514.678L472.625 518.222ZM474.45 505.806L472.017 508.981L468.708 506.61L471.141 503.434L474.45 505.806ZM467.832 501.063L465.399 504.238L462.09 501.867L464.523 498.692L467.832 501.063ZM461.214 496.321L458.781 499.496L455.472 497.125L457.905 493.95L461.214 496.321ZM454.596 491.579L452.163 494.754L448.854 492.382L451.287 489.207L454.596 491.579ZM447.978 486.836L445.545 490.011L442.236 487.64L444.669 484.465L447.978 486.836ZM441.36 482.094L438.928 485.269L435.619 482.898L438.052 479.723L441.36 482.094ZM434.743 477.352L432.31 480.527L429.001 478.155L431.434 474.98L434.743 477.352ZM428.125 472.609L425.692 475.784L422.383 473.413L424.816 470.238L428.125 472.609ZM421.507 467.867L419.074 471.042L415.765 468.671L418.198 465.496L421.507 467.867ZM414.889 463.124L412.456 466.3L409.147 463.928L411.58 460.753L414.889 463.124ZM408.271 458.382L405.838 461.557L402.529 459.186L404.962 456.011L408.271 458.382ZM401.653 453.64L399.221 456.815L395.912 454.444L398.345 451.269L401.653 453.64ZM395.036 448.897L392.603 452.072L389.294 449.701L391.727 446.526L395.036 448.897ZM388.418 444.155L385.985 447.33L382.676 444.959L385.109 441.784L388.418 444.155ZM381.8 439.413L379.367 442.588L376.058 440.217L378.491 437.042L381.8 439.413ZM375.182 434.67L372.749 437.845L369.44 435.474L371.873 432.299L375.182 434.67ZM368.564 429.928L366.131 433.103L362.822 430.732L365.255 427.557L368.564 429.928ZM356.219 429.316L359.47 431.645L356.755 435.189L353.504 432.859L356.219 429.316ZM350.788 436.403L354.04 438.733L351.324 442.276L348.073 439.946L350.788 436.403ZM348.963 448.819L351.396 445.644L354.705 448.015L352.272 451.19L348.963 448.819ZM355.581 453.561L358.014 450.386L361.323 452.757L358.89 455.932L355.581 453.561ZM362.199 458.303L364.632 455.128L367.941 457.499L365.508 460.675L362.199 458.303ZM368.817 463.046L371.25 459.871L374.559 462.242L372.126 465.417L368.817 463.046ZM375.435 467.788L377.868 464.613L381.177 466.984L378.744 470.159L375.435 467.788ZM382.053 472.53L384.485 469.355L387.794 471.727L385.362 474.902L382.053 472.53ZM388.67 477.273L391.103 474.098L394.412 476.469L391.979 479.644L388.67 477.273ZM395.288 482.015L397.721 478.84L401.03 481.211L398.597 484.386L395.288 482.015ZM401.906 486.758L404.339 483.582L407.648 485.954L405.215 489.129L401.906 486.758ZM408.524 491.5L410.957 488.325L414.266 490.696L411.833 493.871L408.524 491.5ZM415.142 496.242L417.575 493.067L420.884 495.438L418.451 498.613L415.142 496.242ZM421.76 500.985L424.193 497.809L427.501 500.181L425.069 503.356L421.76 500.985ZM428.377 505.727L430.81 502.552L434.119 504.923L431.686 508.098L428.377 505.727ZM434.995 510.469L437.428 507.294L440.737 509.665L438.304 512.84L434.995 510.469ZM441.613 515.212L444.046 512.037L447.355 514.408L444.922 517.583L441.613 515.212ZM448.231 519.954L450.664 516.779L453.973 519.15L451.54 522.325L448.231 519.954ZM454.849 524.696L457.282 521.521L460.591 523.892L458.158 527.068L454.849 524.696Z" fill="white"/>
<path fill-rule="evenodd" clip-rule="evenodd" d="M150.422 328.394C151.042 328.135 151.653 327.885 152.255 327.644L153.745 331.356C153.16 331.591 152.565 331.834 151.961 332.086L150.422 328.394ZM143.151 331.639C144.371 331.058 145.578 330.503 146.763 329.974L148.394 333.626C147.237 334.142 146.06 334.685 144.869 335.251L143.151 331.639ZM136.041 335.232C137.221 334.599 138.4 333.986 139.573 333.393L141.376 336.963C140.233 337.541 139.083 338.14 137.933 338.757L136.041 335.232ZM129.119 339.188C130.256 338.495 131.403 337.819 132.556 337.161L134.539 340.635C133.418 341.275 132.303 341.932 131.2 342.604L129.119 339.188ZM122.425 343.568C123.51 342.803 124.617 342.053 125.74 341.319L127.928 344.667C126.842 345.377 125.774 346.1 124.731 346.837L122.425 343.568ZM116.06 348.48C117.069 347.621 118.115 346.778 119.19 345.95L121.63 349.12C120.602 349.911 119.607 350.714 118.652 351.526L116.06 348.48ZM110.208 354.128C111.097 353.135 112.047 352.158 113.047 351.198L115.817 354.083C114.882 354.981 114.003 355.886 113.186 356.797L110.208 354.128ZM105.336 360.841C105.994 359.648 106.754 358.476 107.599 357.325L110.823 359.693C110.068 360.721 109.404 361.749 108.838 362.774L105.336 360.841ZM102.633 369.018C102.78 367.573 103.107 366.147 103.586 364.748L107.37 366.043C106.981 367.182 106.726 368.309 106.612 369.424L102.633 369.018ZM104.064 377.705C103.433 376.304 103.004 374.888 102.767 373.461L106.713 372.805C106.892 373.882 107.218 374.968 107.711 376.063L104.064 377.705ZM109.046 384.644C107.985 383.593 107.058 382.525 106.262 381.439L109.487 379.073C110.149 379.975 110.935 380.885 111.861 381.802L109.046 384.644ZM113.842 388.63C113.257 388.215 112.696 387.796 112.159 387.375L114.628 384.228C115.113 384.608 115.623 384.989 116.158 385.37C116.682 385.742 117.208 386.1 117.737 386.444L115.555 389.796C114.981 389.422 114.41 389.034 113.842 388.63ZM122.765 393.694C121.529 393.15 120.3 392.551 119.081 391.892L120.983 388.373C122.105 388.98 123.237 389.532 124.377 390.033L122.765 393.694ZM130.487 396.399C129.182 396.049 127.877 395.65 126.578 395.196L127.898 391.42C129.1 391.84 130.309 392.21 131.523 392.535L130.487 396.399ZM178.12 396.718C176.906 396.741 175.627 396.804 174.286 396.894L174.018 392.903C175.403 392.81 176.748 392.743 178.044 392.719L178.12 396.718ZM185.418 397.342C184.377 397.075 183.201 396.899 181.887 396.802L182.182 392.813C183.667 392.923 185.086 393.127 186.412 393.468L185.418 397.342ZM166.852 397.537L166.466 397.573L166.087 393.591L166.477 393.554C167.684 393.439 168.872 393.326 170.032 393.222L170.39 397.206C169.24 397.309 168.062 397.421 166.852 397.537ZM138.478 397.971C137.142 397.795 135.803 397.579 134.463 397.317L135.23 393.392C136.484 393.637 137.741 393.84 138.999 394.005L138.478 397.971ZM162.531 397.938C161.235 398.053 159.912 398.162 158.569 398.258L158.283 394.268C159.599 394.174 160.898 394.067 162.179 393.953L162.531 397.938ZM146.546 398.591C145.21 398.555 143.864 398.488 142.511 398.386L142.812 394.397C144.096 394.494 145.378 394.558 146.656 394.593L146.546 398.591ZM154.581 398.496C153.26 398.557 151.923 398.6 150.572 398.617L150.519 394.618C151.82 394.601 153.113 394.559 154.396 394.5L154.581 398.496ZM190.474 400.785C189.943 399.874 189.259 399.167 188.418 398.609L190.63 395.276C191.964 396.161 193.08 397.314 193.93 398.771L190.474 400.785ZM191.814 407.349C191.828 406.011 191.732 404.854 191.548 403.854L195.482 403.129C195.72 404.424 195.829 405.842 195.814 407.389L191.814 407.349ZM190.932 414.797C191.2 413.455 191.404 412.209 191.548 411.054L195.517 411.548C195.36 412.813 195.139 414.155 194.855 415.58L190.932 414.797ZM146.481 419.378C145.223 419.099 144.04 418.935 142.929 418.872L143.156 414.878C144.498 414.955 145.894 415.151 147.346 415.472L146.481 419.378ZM139.458 419.016C138.277 419.191 137.179 419.496 136.154 419.912L134.651 416.205C135.97 415.67 137.375 415.282 138.869 415.059L139.458 419.016ZM153.423 421.79C152.225 421.24 151.077 420.775 149.979 420.388L151.307 416.615C152.53 417.046 153.791 417.558 155.092 418.155L153.423 421.79ZM133.151 421.569C132.218 422.233 131.342 423.008 130.515 423.883L127.607 421.136C128.593 420.093 129.664 419.141 130.832 418.31L133.151 421.569ZM189.571 420.47C189.754 419.807 189.924 419.16 190.083 418.53L193.961 419.51C193.795 420.167 193.618 420.84 193.429 421.529C193.246 422.196 193.054 422.854 192.853 423.504L189.031 422.324C189.22 421.714 189.4 421.096 189.571 420.47ZM160.048 425.403C158.925 424.702 157.836 424.064 156.782 423.486L158.706 419.979C159.83 420.595 160.983 421.271 162.166 422.01L160.048 425.403ZM164.832 428.623C164.29 428.234 163.756 427.857 163.228 427.493L165.498 424.2C166.048 424.579 166.605 424.971 167.168 425.376C167.749 425.794 168.317 426.209 168.874 426.619L166.499 429.838C165.956 429.437 165.4 429.032 164.832 428.623ZM128.255 426.687C127.573 427.669 126.933 428.72 126.33 429.829L122.816 427.918C123.478 426.7 124.194 425.521 124.972 424.403L128.255 426.687ZM186.325 429.426C186.845 428.291 187.336 427.123 187.793 425.922L191.531 427.345C191.042 428.629 190.518 429.878 189.96 431.094L186.325 429.426ZM172.85 434.792C171.857 433.969 170.812 433.129 169.712 432.272L172.17 429.116C173.301 429.998 174.378 430.863 175.402 431.712L172.85 434.792ZM124.681 433.194C124.175 434.334 123.701 435.507 123.253 436.702L119.508 435.296C119.979 434.041 120.483 432.794 121.025 431.571L124.681 433.194ZM182.688 436.11C183.362 435.051 184.007 433.958 184.621 432.829L188.135 434.741C187.477 435.95 186.785 437.123 186.061 438.259L182.688 436.11ZM178.827 440.128C177.915 439.243 176.94 438.337 175.896 437.407L178.557 434.421C179.641 435.386 180.657 436.331 181.611 437.256L178.827 440.128ZM121.988 440.311C121.585 441.537 121.205 442.767 120.84 443.987L117.007 442.842C117.38 441.597 117.771 440.331 118.188 439.062L121.988 440.311ZM178.169 442.227C178.984 441.269 179.773 440.276 180.534 439.246L183.352 441.328L184.532 440.227C185.543 441.31 186.469 442.365 187.321 443.394L184.239 445.944C183.611 445.186 182.938 444.409 182.214 443.614C181.885 444.021 181.553 444.423 181.216 444.819L178.169 442.227ZM254.507 444.755C256.128 443.618 257.749 442.904 259.364 442.951L259.248 446.949C258.887 446.938 258.128 447.101 256.804 448.03L254.507 444.755ZM172.858 447.677C173.796 446.834 174.714 445.955 175.606 445.04L178.47 447.832C177.515 448.812 176.534 449.752 175.532 450.653L172.858 447.677ZM264.097 446.244C264.77 447.429 265.302 448.863 265.775 450.327L261.969 451.558C261.514 450.15 261.083 449.036 260.619 448.221L264.097 446.244ZM119.442 448.826C119.185 449.73 118.933 450.619 118.684 451.478L114.842 450.367C115.088 449.518 115.336 448.644 115.591 447.744C115.697 447.372 115.804 446.996 115.912 446.615L119.759 447.71C119.653 448.084 119.547 448.456 119.442 448.826ZM188.804 452.342C188.166 451.284 187.451 450.189 186.639 449.054L189.891 446.726C190.766 447.948 191.539 449.131 192.23 450.279L188.804 452.342ZM248.334 450.613C249.363 449.449 250.322 448.433 251.217 447.557L254.015 450.416C253.202 451.212 252.31 452.155 251.331 453.263L248.334 450.613ZM166.871 452.399C167.911 451.68 168.936 450.924 169.941 450.132L172.417 453.273C171.345 454.119 170.253 454.924 169.146 455.689L166.871 452.399ZM243.193 456.896C244.074 455.754 244.912 454.695 245.711 453.714L248.813 456.24C248.039 457.19 247.222 458.221 246.361 459.338L243.193 456.896ZM192.314 459.377C191.83 458.212 191.3 457.018 190.686 455.78L194.269 454.002C194.932 455.338 195.498 456.617 196.007 457.841L192.314 459.377ZM117.532 455.276C117.318 455.936 117.101 456.574 116.88 457.183C116.702 457.672 116.631 458.094 116.629 458.455L112.629 458.429C112.634 457.558 112.805 456.683 113.12 455.816C113.323 455.26 113.524 454.668 113.727 454.042L117.532 455.276ZM266.948 454.208C267.319 455.45 267.705 456.702 268.142 457.934L264.372 459.271C263.9 457.941 263.491 456.61 263.115 455.351L266.948 454.208ZM160.334 456.357C161.454 455.766 162.565 455.139 163.663 454.474L165.734 457.897C164.567 458.603 163.387 459.269 162.2 459.895L160.334 456.357ZM153.37 459.533C154.548 459.074 155.725 458.578 156.899 458.043L158.558 461.683C157.315 462.25 156.068 462.775 154.822 463.26L153.37 459.533ZM238.365 463.399C239.187 462.256 239.979 461.171 240.743 460.14L243.957 462.522C243.205 463.536 242.424 464.607 241.611 465.735L238.365 463.399ZM117.571 460.565C118.145 461.154 119.011 461.735 120.208 462.25L118.626 465.924C117.097 465.266 115.746 464.422 114.708 463.358L117.571 460.565ZM146.092 461.908C147.307 461.586 148.533 461.225 149.764 460.823L151.005 464.625C149.702 465.051 148.405 465.433 147.118 465.775L146.092 461.908ZM269.588 461.421C270.143 462.545 270.763 463.579 271.472 464.492L268.312 466.945C267.402 465.773 266.645 464.497 266.001 463.191L269.588 461.421ZM195.385 467.007C194.817 465.735 194.307 464.437 193.802 463.135L197.531 461.689C198.036 462.991 198.514 464.204 199.037 465.375L195.385 467.007ZM138.607 463.436C139.838 463.261 141.095 463.044 142.37 462.783L143.172 466.701C141.819 466.978 140.483 467.21 139.172 467.396L138.607 463.436ZM123.603 463.299C124.72 463.54 125.948 463.724 127.273 463.843L126.915 467.827C125.447 467.695 124.055 467.489 122.759 467.209L123.603 463.299ZM131.016 464.002C132.232 464.001 133.499 463.952 134.808 463.853L135.111 467.841C133.706 467.948 132.34 468.001 131.02 468.002L131.016 464.002ZM234.859 468.357C235.263 467.776 235.662 467.207 236.054 466.649L239.326 468.95C238.937 469.502 238.543 470.066 238.142 470.643C237.768 471.179 237.388 471.715 237.002 472.25L233.758 469.911C234.131 469.394 234.498 468.876 234.859 468.357ZM273.912 466.855C274.36 467.169 274.839 467.449 275.352 467.69C276.18 468.08 276.915 468.514 277.54 468.999L275.087 472.159C274.745 471.893 274.275 471.605 273.649 471.31C272.924 470.968 272.248 470.573 271.617 470.131L273.912 466.855ZM200.004 474.411C198.98 473.24 198.128 472.059 197.392 470.86L200.8 468.767C201.427 469.788 202.148 470.786 203.015 471.778L200.004 474.411ZM229.063 476.021C229.879 475.021 230.674 474.018 231.447 473.012L234.618 475.451C233.821 476.487 233.002 477.52 232.164 478.548L229.063 476.021ZM279.616 474.783C279.093 476.38 277.832 477.757 276.353 478.915L273.887 475.765C275.118 474.802 275.654 474.03 275.814 473.539L279.616 474.783ZM206.578 480.054C205.298 479.198 204.158 478.34 203.135 477.474L205.718 474.421C206.617 475.181 207.637 475.95 208.803 476.731L206.578 480.054ZM272.505 481.334C271.301 481.962 269.972 482.566 268.541 483.139L267.054 479.426C268.38 478.894 269.586 478.345 270.656 477.787L272.505 481.334ZM212.079 483.275C211.429 482.938 210.805 482.602 210.204 482.266L212.156 478.775C212.718 479.089 213.306 479.406 213.921 479.724C214.497 480.023 215.087 480.307 215.689 480.577L214.053 484.228C213.384 483.928 212.726 483.611 212.079 483.275ZM224.025 481.888C224.895 480.924 225.748 479.955 226.583 478.983L229.617 481.59C228.945 482.372 228.262 483.152 227.569 483.928C228.752 484.108 229.951 484.254 231.162 484.367L230.79 488.349C229.359 488.216 227.937 488.039 226.531 487.815L227.061 484.495C227.039 484.519 227.017 484.543 226.995 484.567L224.025 481.888ZM264.499 484.59C263.185 485.012 261.809 485.412 260.383 485.783L259.376 481.912C260.732 481.559 262.035 481.18 263.275 480.782L264.499 484.59ZM219.864 486.341C219.28 486.172 218.7 485.993 218.126 485.803L219.383 482.005C220.627 482.417 221.908 482.777 223.22 483.088L222.571 485.822L224.318 487.469C223.416 488.425 222.5 489.376 221.57 490.322L218.718 487.517C219.103 487.126 219.485 486.734 219.864 486.341ZM256.237 486.751C254.87 487.036 253.468 487.294 252.041 487.522L251.41 483.572C252.776 483.354 254.116 483.107 255.422 482.835L256.237 486.751ZM247.831 488.096C246.432 488.255 245.016 488.383 243.589 488.478L243.324 484.486C244.687 484.396 246.041 484.273 247.38 484.122L247.831 488.096ZM239.33 488.657C237.909 488.682 236.484 488.671 235.061 488.621L235.201 484.624C236.551 484.671 237.906 484.681 239.26 484.658L239.33 488.657ZM213.181 492.932C214.124 492.044 215.057 491.149 215.977 490.249L218.773 493.109C217.835 494.027 216.885 494.938 215.924 495.844L213.181 492.932ZM207.444 498.152C208.415 497.298 209.379 496.437 210.332 495.569L213.024 498.528C212.053 499.411 211.073 500.287 210.085 501.156L207.444 498.152ZM201.534 503.186C202.531 502.362 203.523 501.531 204.508 500.693L207.101 503.738C206.1 504.59 205.093 505.435 204.079 506.271L201.534 503.186ZM369.765 506.667C368.481 506.569 367.228 506.526 366.004 506.534L365.977 502.534C367.314 502.525 368.677 502.573 370.07 502.679L369.765 506.667ZM362.24 506.727C360.976 506.85 359.739 507.029 358.527 507.262L357.773 503.334C359.106 503.078 360.466 502.88 361.855 502.746L362.24 506.727ZM377.279 507.802C375.999 507.519 374.75 507.286 373.53 507.1L374.132 503.146C375.443 503.345 376.779 503.595 378.143 503.896L377.279 507.802ZM354.877 508.141C353.67 508.491 352.483 508.895 351.312 509.35L349.864 505.621C351.14 505.126 352.438 504.683 353.762 504.299L354.877 508.141ZM169.871 508.562C168.581 508.465 167.334 508.407 166.128 508.388L166.189 504.389C167.481 504.408 168.808 504.47 170.172 504.573L169.871 508.562ZM162.424 508.463C161.161 508.537 159.944 508.66 158.771 508.834L158.186 504.877C159.483 504.685 160.817 504.55 162.192 504.47L162.424 508.463ZM384.665 509.883C383.414 509.46 382.192 509.08 380.996 508.741L382.086 504.892C383.349 505.25 384.636 505.651 385.948 506.095L384.665 509.883ZM177.326 509.478C176.045 509.267 174.803 509.087 173.595 508.937L174.089 504.967C175.352 505.124 176.647 505.312 177.975 505.531L177.326 509.478ZM195.473 508.037C196.492 507.245 197.508 506.444 198.519 505.635L201.018 508.758C200.295 509.337 199.57 509.912 198.842 510.482C199.45 510.658 200.064 510.839 200.683 511.022L199.545 514.857C198.292 514.485 197.065 514.129 195.863 513.788L196.952 509.942L195.473 508.037ZM155.198 509.548C154.007 509.853 152.859 510.218 151.748 510.644L150.316 506.909C151.574 506.427 152.869 506.015 154.206 505.673L155.198 509.548ZM184.771 510.942C183.5 510.656 182.261 510.393 181.053 510.154L181.828 506.23C183.073 506.476 184.346 506.746 185.65 507.039L184.771 510.942ZM347.847 510.861C346.718 511.408 345.599 512.001 344.487 512.637L342.499 509.167C343.685 508.487 344.886 507.85 346.106 507.26L347.847 510.861ZM391.864 512.673C390.647 512.146 389.454 511.655 388.285 511.201L389.734 507.473C390.953 507.946 392.193 508.456 393.454 509.003L391.864 512.673ZM189.975 512.197C189.471 512.068 188.973 511.942 188.479 511.82L189.441 507.937C190.671 508.242 191.926 508.566 193.207 508.908L192.697 510.817L194.792 513.595C193.74 514.387 192.686 515.171 191.631 515.944L189.268 512.716C189.503 512.544 189.739 512.37 189.975 512.197ZM148.461 512.136C147.404 512.695 146.374 513.32 145.366 514.012L143.102 510.715C144.232 509.938 145.394 509.233 146.592 508.6L148.461 512.136ZM398.857 515.98C397.678 515.379 396.521 514.809 395.384 514.27L397.096 510.656C398.27 511.212 399.463 511.799 400.675 512.417L398.857 515.98ZM341.226 514.639C340.17 515.33 339.116 516.058 338.063 516.821L335.717 513.581C336.816 512.785 337.922 512.02 339.038 511.291L341.226 514.639ZM206.881 517.117C205.641 516.723 204.422 516.341 203.226 515.972L204.405 512.149C205.613 512.522 206.843 512.908 208.094 513.306L206.881 517.117ZM142.478 516.23C141.57 517.005 140.675 517.841 139.789 518.742L136.936 515.938C137.899 514.959 138.88 514.041 139.884 513.186L142.478 516.23ZM404.024 518.746C403.441 518.42 402.863 518.101 402.29 517.79L404.2 514.275C404.787 514.594 405.38 514.921 405.976 515.254C406.591 515.598 407.197 515.939 407.796 516.278L405.826 519.759C405.233 519.424 404.632 519.086 404.024 518.746ZM212.373 518.899C211.751 518.694 211.133 518.491 210.521 518.291L211.763 514.489C212.379 514.69 213.001 514.894 213.627 515.101C214.26 515.31 214.888 515.52 215.512 515.731L214.232 519.52C213.617 519.312 212.997 519.105 212.373 518.899ZM182.932 517.221C183.993 516.489 185.056 515.744 186.118 514.989L188.436 518.249C187.358 519.015 186.281 519.77 185.204 520.513L182.932 517.221ZM334.974 519.152C333.971 519.939 332.966 520.753 331.955 521.593L329.398 518.517C330.434 517.656 331.469 516.817 332.507 516.004L334.974 519.152ZM221.543 522.1C220.344 521.659 219.128 521.22 217.893 520.785L219.225 517.013C220.476 517.454 221.708 517.899 222.923 518.346L221.543 522.1ZM412.851 523.834C411.716 523.16 410.55 522.475 409.349 521.778L411.356 518.318C412.57 519.022 413.748 519.714 414.895 520.396L412.851 523.834ZM137.294 521.477C136.512 522.397 135.734 523.37 134.959 524.396L131.767 521.986C132.585 520.903 133.41 519.869 134.247 518.886L137.294 521.477ZM176.478 521.545C177.558 520.843 178.643 520.127 179.73 519.399L181.956 522.722C180.854 523.461 179.753 524.187 178.656 524.899L176.478 521.545ZM228.816 524.876C227.625 524.405 226.417 523.935 225.19 523.467L226.617 519.73C227.859 520.204 229.082 520.68 230.286 521.156L228.816 524.876ZM328.986 524.119C328.014 524.962 327.036 525.826 326.048 526.708L323.383 523.724C324.382 522.832 325.375 521.956 326.365 521.097L328.986 524.119ZM419.793 528.064C418.676 527.367 417.523 526.655 416.331 525.929L418.413 522.513C419.617 523.247 420.782 523.967 421.911 524.671L419.793 528.064ZM236.015 527.81C234.836 527.316 233.639 526.82 232.423 526.324L233.933 522.621C235.162 523.122 236.371 523.622 237.561 524.121L236.015 527.81ZM169.918 525.671C171.007 525.009 172.103 524.331 173.204 523.638L175.334 527.023C174.217 527.727 173.104 528.415 171.998 529.088L169.918 525.671ZM132.758 527.46C132.068 528.466 131.378 529.516 130.685 530.609L127.306 528.469C128.023 527.338 128.739 526.248 129.458 525.199L132.758 527.46ZM243.166 530.876C241.995 530.364 240.805 529.848 239.595 529.329L241.172 525.653C242.391 526.176 243.589 526.695 244.768 527.21L243.166 530.876ZM323.128 529.339C322.171 530.209 321.203 531.092 320.223 531.988L317.525 529.035C318.505 528.139 319.477 527.252 320.44 526.378L323.128 529.339ZM426.66 532.451C425.56 531.733 424.42 530.996 423.236 530.24L425.39 526.869C426.585 527.633 427.736 528.377 428.846 529.102L426.66 532.451ZM163.207 529.613C164.318 528.985 165.439 528.338 166.57 527.674L168.596 531.123C167.447 531.798 166.306 532.456 165.177 533.095L163.207 529.613ZM250.302 534.03C249.132 533.509 247.943 532.98 246.734 532.445L248.352 528.787C249.566 529.324 250.758 529.854 251.929 530.375L250.302 534.03ZM433.441 536.953C432.36 536.226 431.235 535.472 430.062 534.693L432.276 531.361C433.457 532.146 434.588 532.904 435.673 533.634L433.441 536.953ZM156.399 533.305C157.528 532.72 158.674 532.112 159.836 531.482L161.743 534.997C160.56 535.639 159.391 536.259 158.238 536.856L156.399 533.305ZM317.311 534.646C316.826 535.089 316.337 535.534 315.844 535.981C315.33 536.448 314.817 536.898 314.305 537.332L311.719 534.28C312.196 533.876 312.675 533.456 313.156 533.019C313.646 532.574 314.133 532.131 314.617 531.69L317.311 534.646ZM128.703 533.843C128.38 534.386 128.057 534.939 127.732 535.501C127.389 536.094 127.091 536.652 126.835 537.174L123.242 535.417C123.543 534.802 123.885 534.162 124.269 533.499C124.601 532.924 124.933 532.357 125.265 531.799L128.703 533.843ZM257.463 537.205C256.287 536.689 255.092 536.16 253.876 535.62L255.5 531.965C256.713 532.503 257.902 533.03 259.071 533.543L257.463 537.205ZM149.446 536.715C150.584 536.19 151.747 535.636 152.933 535.054L154.696 538.644C153.482 539.24 152.29 539.808 151.121 540.347L149.446 536.715ZM264.707 540.298C263.514 539.808 262.302 539.298 261.071 538.771L262.645 535.094C263.862 535.615 265.055 536.117 266.226 536.598L264.707 540.298ZM440.241 541.519C439.154 540.798 438.021 540.038 436.837 539.24L439.071 535.923C440.254 536.719 441.377 537.473 442.452 538.185L440.241 541.519ZM311.115 539.833C309.973 540.657 308.832 541.403 307.69 542.073L305.665 538.624C306.693 538.02 307.729 537.344 308.775 536.589L311.115 539.833ZM272.104 543.134C270.881 542.706 269.641 542.247 268.381 541.762L269.819 538.029C271.045 538.502 272.247 538.946 273.425 539.358L272.104 543.134ZM142.386 539.72C143.529 539.279 144.713 538.797 145.933 538.276L147.503 541.955C146.243 542.493 145.016 542.993 143.826 543.452L142.386 539.72ZM125.699 540.302C125.454 541.577 125.723 542.089 125.915 542.308L122.905 544.942C121.618 543.471 121.389 541.536 121.77 539.549L125.699 540.302ZM304.016 543.97C302.726 544.546 301.434 545.029 300.135 545.425L298.969 541.599C300.106 541.252 301.244 540.827 302.386 540.318L304.016 543.97ZM447.277 545.94C446.128 545.28 444.943 544.556 443.709 543.775L445.851 540.396C447.05 541.156 448.184 541.848 449.27 542.472L447.277 545.94ZM279.782 545.437C278.501 545.127 277.205 544.771 275.893 544.374L277.052 540.545C278.301 540.923 279.523 541.259 280.722 541.549L279.782 545.437ZM135.158 542.107C136.294 541.809 137.509 541.445 138.795 541.016L140.061 544.81C138.704 545.263 137.405 545.653 136.172 545.976L135.158 542.107ZM287.816 546.735C286.471 546.64 285.117 546.476 283.75 546.25L284.402 542.303C285.658 542.511 286.889 542.659 288.099 542.745L287.816 546.735ZM296.076 546.379C294.705 546.609 293.328 546.747 291.943 546.804L291.781 542.807C293.006 542.757 294.216 542.635 295.416 542.434L296.076 546.379ZM128.112 543.059C129.02 543.131 130.155 543.078 131.522 542.874L132.112 546.83C130.549 547.064 129.093 547.15 127.793 547.046L128.112 543.059ZM478.262 546.849C477.595 547.124 476.943 547.384 476.306 547.629L474.871 543.895C475.477 543.662 476.099 543.414 476.739 543.151L478.262 546.849ZM455.06 549.533C453.72 549.102 452.385 548.561 451.03 547.92L452.741 544.304C453.966 544.884 455.136 545.356 456.283 545.724L455.06 549.533ZM472.319 549.024C470.877 549.473 469.5 549.833 468.174 550.104L467.373 546.185C468.551 545.944 469.797 545.62 471.131 545.204L472.319 549.024ZM463.843 550.679C462.315 550.763 460.842 550.708 459.392 550.517L459.914 546.551C461.111 546.709 462.336 546.755 463.624 546.685L463.843 550.679Z" fill="white"/>
<path fill-rule="evenodd" clip-rule="evenodd" d="M158.878 327.894C159.498 327.635 160.109 327.385 160.711 327.144L162.201 330.856C161.616 331.091 161.021 331.334 160.417 331.586L158.878 327.894ZM151.607 331.139C152.827 330.558 154.034 330.003 155.219 329.474L156.85 333.126C155.693 333.642 154.516 334.185 153.325 334.751L151.607 331.139ZM144.498 334.732C145.677 334.099 146.856 333.486 148.029 332.893L149.833 336.463C148.689 337.041 147.539 337.64 146.389 338.257L144.498 334.732ZM137.575 338.688C138.712 337.995 139.859 337.319 141.012 336.661L142.995 340.135C141.874 340.775 140.759 341.432 139.656 342.104L137.575 338.688ZM130.881 343.068C131.966 342.303 133.073 341.553 134.196 340.819L136.384 344.167C135.298 344.877 134.23 345.6 133.187 346.337L130.881 343.068ZM124.516 347.98C125.525 347.121 126.571 346.278 127.646 345.45L130.086 348.62C129.058 349.411 128.063 350.214 127.108 351.026L124.516 347.98ZM118.664 353.628C119.553 352.635 120.503 351.658 121.503 350.698L124.273 353.583C123.338 354.481 122.459 355.386 121.642 356.297L118.664 353.628ZM113.792 360.341C114.451 359.148 115.21 357.976 116.056 356.825L119.279 359.193C118.524 360.221 117.86 361.249 117.294 362.274L113.792 360.341ZM111.089 368.518C111.236 367.073 111.563 365.647 112.042 364.248L115.826 365.543C115.437 366.682 115.182 367.809 115.068 368.924L111.089 368.518ZM112.52 377.205C111.889 375.804 111.461 374.388 111.223 372.961L115.169 372.305C115.348 373.382 115.674 374.468 116.167 375.563L112.52 377.205ZM117.502 384.144C116.441 383.093 115.514 382.025 114.718 380.939L117.943 378.573C118.605 379.475 119.391 380.385 120.317 381.302L117.502 384.144ZM122.298 388.13C121.713 387.715 121.152 387.296 120.615 386.875L123.084 383.728C123.569 384.108 124.079 384.489 124.614 384.87C125.138 385.242 125.665 385.6 126.193 385.944L124.011 389.296C123.437 388.922 122.866 388.534 122.298 388.13ZM131.221 393.194C129.985 392.65 128.756 392.051 127.537 391.392L129.439 387.873C130.561 388.48 131.693 389.032 132.833 389.533L131.221 393.194ZM138.943 395.899C137.638 395.549 136.334 395.15 135.034 394.696L136.354 390.92C137.556 391.34 138.765 391.71 139.979 392.035L138.943 395.899ZM186.576 396.218C185.362 396.241 184.083 396.304 182.742 396.394L182.474 392.403C183.859 392.31 185.204 392.243 186.5 392.219L186.576 396.218ZM193.874 396.842C192.833 396.575 191.657 396.399 190.343 396.302L190.638 392.313C192.123 392.423 193.543 392.627 194.868 392.968L193.874 396.842ZM175.308 397.037L174.922 397.073L174.543 393.091L174.933 393.054C176.14 392.939 177.328 392.826 178.488 392.722L178.846 396.706C177.696 396.809 176.518 396.921 175.308 397.037ZM146.934 397.471C145.598 397.295 144.259 397.079 142.919 396.817L143.686 392.892C144.94 393.137 146.197 393.34 147.455 393.505L146.934 397.471ZM170.988 397.438C169.691 397.553 168.368 397.662 167.025 397.758L166.739 393.768C168.055 393.674 169.354 393.567 170.635 393.453L170.988 397.438ZM155.002 398.091C153.666 398.055 152.32 397.988 150.967 397.886L151.268 393.897C152.552 393.994 153.834 394.058 155.112 394.093L155.002 398.091ZM163.037 397.996C161.716 398.057 160.379 398.1 159.028 398.117L158.975 394.118C160.276 394.101 161.57 394.059 162.852 394L163.037 397.996ZM198.93 400.285C198.399 399.374 197.715 398.667 196.874 398.109L199.086 394.776C200.42 395.661 201.536 396.814 202.386 398.271L198.93 400.285ZM200.27 406.849C200.284 405.511 200.188 404.354 200.004 403.354L203.938 402.629C204.176 403.924 204.285 405.342 204.27 406.889L200.27 406.849ZM199.388 414.297C199.656 412.955 199.86 411.709 200.004 410.554L203.973 411.048C203.816 412.313 203.595 413.655 203.311 415.08L199.388 414.297ZM154.937 418.878C153.679 418.599 152.496 418.435 151.385 418.372L151.613 414.378C152.954 414.455 154.35 414.651 155.802 414.972L154.937 418.878ZM147.914 418.516C146.733 418.691 145.635 418.996 144.61 419.412L143.107 415.705C144.426 415.17 145.831 414.782 147.325 414.559L147.914 418.516ZM161.879 421.29C160.681 420.74 159.533 420.275 158.435 419.888L159.763 416.115C160.986 416.546 162.247 417.058 163.548 417.655L161.879 421.29ZM141.607 421.069C140.674 421.733 139.798 422.508 138.972 423.383L136.064 420.636C137.049 419.593 138.12 418.641 139.288 417.81L141.607 421.069ZM198.028 419.97C198.21 419.307 198.38 418.66 198.539 418.03L202.418 419.01C202.252 419.667 202.074 420.34 201.885 421.029C201.702 421.696 201.51 422.354 201.309 423.004L197.487 421.824C197.676 421.214 197.856 420.596 198.028 419.97ZM168.504 424.903C167.381 424.202 166.292 423.564 165.238 422.986L167.162 419.479C168.286 420.095 169.439 420.771 170.622 421.51L168.504 424.903ZM173.288 428.123C172.746 427.734 172.212 427.357 171.684 426.993L173.954 423.7C174.504 424.079 175.061 424.471 175.624 424.876C176.205 425.294 176.773 425.709 177.33 426.119L174.955 429.338C174.412 428.937 173.856 428.532 173.288 428.123ZM136.711 426.187C136.029 427.169 135.389 428.22 134.786 429.329L131.272 427.418C131.934 426.2 132.65 425.021 133.428 423.903L136.711 426.187ZM194.781 428.926C195.301 427.791 195.792 426.623 196.249 425.422L199.987 426.845C199.498 428.129 198.974 429.378 198.416 430.594L194.781 428.926ZM181.306 434.292C180.313 433.469 179.269 432.629 178.168 431.772L180.626 428.616C181.757 429.498 182.834 430.363 183.858 431.212L181.306 434.292ZM133.137 432.694C132.632 433.834 132.157 435.007 131.709 436.202L127.964 434.796C128.435 433.541 128.939 432.294 129.481 431.071L133.137 432.694ZM191.144 435.61C191.818 434.551 192.463 433.458 193.077 432.329L196.591 434.241C195.933 435.45 195.241 436.623 194.517 437.759L191.144 435.61ZM187.283 439.628C186.371 438.743 185.396 437.837 184.352 436.907L187.013 433.921C188.097 434.886 189.113 435.831 190.067 436.756L187.283 439.628ZM130.445 439.811C130.042 441.037 129.661 442.267 129.296 443.487L125.463 442.342C125.836 441.097 126.227 439.831 126.644 438.562L130.445 439.811ZM186.625 441.727C187.44 440.769 188.229 439.776 188.99 438.746L191.808 440.828L192.988 439.727C193.999 440.81 194.925 441.865 195.777 442.894L192.695 445.444C192.067 444.686 191.394 443.909 190.67 443.114C190.341 443.521 190.009 443.923 189.672 444.319L186.625 441.727ZM262.963 444.255C264.584 443.118 266.205 442.404 267.82 442.451L267.704 446.449C267.343 446.438 266.584 446.601 265.261 447.53L262.963 444.255ZM181.314 447.177C182.253 446.334 183.17 445.455 184.062 444.54L186.926 447.332C185.971 448.312 184.99 449.252 183.988 450.153L181.314 447.177ZM272.553 445.744C273.227 446.929 273.758 448.363 274.231 449.827L270.425 451.058C269.97 449.65 269.539 448.536 269.075 447.721L272.553 445.744ZM127.898 448.326C127.641 449.23 127.389 450.119 127.141 450.978L123.298 449.867C123.544 449.018 123.792 448.144 124.047 447.244C124.153 446.872 124.26 446.496 124.368 446.115L128.215 447.21C128.109 447.584 128.003 447.956 127.898 448.326ZM197.26 451.842C196.623 450.784 195.908 449.689 195.095 448.554L198.347 446.226C199.222 447.448 199.995 448.631 200.686 449.779L197.26 451.842ZM256.79 450.113C257.819 448.949 258.778 447.933 259.673 447.057L262.471 449.916C261.658 450.712 260.766 451.655 259.787 452.763L256.79 450.113ZM175.327 451.899C176.367 451.18 177.392 450.424 178.397 449.632L180.873 452.773C179.801 453.619 178.709 454.424 177.602 455.189L175.327 451.899ZM251.649 456.396C252.53 455.254 253.368 454.195 254.167 453.214L257.269 455.74C256.495 456.69 255.678 457.721 254.817 458.838L251.649 456.396ZM200.77 458.877C200.286 457.712 199.756 456.518 199.142 455.28L202.725 453.502C203.388 454.838 203.955 456.117 204.463 457.341L200.77 458.877ZM125.988 454.776C125.774 455.436 125.557 456.074 125.336 456.683C125.158 457.172 125.087 457.594 125.085 457.955L121.085 457.929C121.091 457.058 121.261 456.183 121.576 455.316C121.779 454.76 121.98 454.168 122.183 453.542L125.988 454.776ZM275.404 453.708C275.775 454.95 276.161 456.202 276.598 457.434L272.828 458.771C272.356 457.441 271.947 456.11 271.571 454.851L275.404 453.708ZM168.79 455.857C169.91 455.266 171.021 454.639 172.12 453.974L174.19 457.397C173.023 458.103 171.843 458.769 170.656 459.395L168.79 455.857ZM161.826 459.033C163.004 458.574 164.181 458.078 165.355 457.543L167.014 461.183C165.771 461.75 164.524 462.275 163.278 462.76L161.826 459.033ZM246.821 462.899C247.643 461.756 248.436 460.671 249.199 459.64L252.413 462.022C251.661 463.036 250.88 464.107 250.067 465.235L246.821 462.899ZM126.027 460.065C126.601 460.654 127.467 461.235 128.664 461.75L127.082 465.424C125.553 464.766 124.202 463.922 123.164 462.858L126.027 460.065ZM154.548 461.408C155.763 461.086 156.989 460.725 158.22 460.323L159.461 464.125C158.158 464.551 156.861 464.933 155.574 465.275L154.548 461.408ZM278.044 460.921C278.599 462.045 279.219 463.079 279.928 463.992L276.768 466.445C275.858 465.273 275.102 463.997 274.457 462.691L278.044 460.921ZM203.841 466.507C203.273 465.235 202.763 463.937 202.258 462.635L205.987 461.189C206.492 462.491 206.97 463.704 207.493 464.875L203.841 466.507ZM147.064 462.936C148.294 462.761 149.551 462.544 150.826 462.283L151.628 466.201C150.275 466.478 148.939 466.71 147.628 466.896L147.064 462.936ZM132.059 462.799C133.176 463.04 134.404 463.224 135.729 463.343L135.371 467.327C133.903 467.195 132.511 466.989 131.215 466.709L132.059 462.799ZM139.472 463.502C140.688 463.501 141.955 463.452 143.264 463.353L143.567 467.341C142.163 467.448 140.796 467.501 139.476 467.502L139.472 463.502ZM243.315 467.857C243.719 467.276 244.118 466.707 244.51 466.149L247.782 468.45C247.393 469.002 246.999 469.566 246.598 470.143C246.224 470.679 245.844 471.215 245.458 471.75L242.214 469.411C242.587 468.894 242.954 468.376 243.315 467.857ZM282.368 466.355C282.816 466.669 283.295 466.949 283.808 467.19C284.636 467.58 285.371 468.014 285.996 468.499L283.543 471.659C283.201 471.393 282.732 471.105 282.105 470.81C281.38 470.468 280.704 470.073 280.073 469.631L282.368 466.355ZM208.46 473.911C207.436 472.74 206.584 471.559 205.848 470.36L209.256 468.267C209.883 469.288 210.604 470.286 211.471 471.278L208.46 473.911ZM237.519 475.521C238.335 474.521 239.13 473.518 239.903 472.512L243.074 474.951C242.277 475.987 241.458 477.02 240.62 478.048L237.519 475.521ZM288.072 474.283C287.549 475.88 286.288 477.257 284.809 478.415L282.343 475.265C283.574 474.302 284.11 473.53 284.27 473.039L288.072 474.283ZM215.034 479.554C213.755 478.698 212.614 477.84 211.591 476.974L214.174 473.921C215.073 474.681 216.093 475.45 217.259 476.231L215.034 479.554ZM280.961 480.834C279.757 481.462 278.428 482.066 276.997 482.639L275.51 478.926C276.836 478.394 278.042 477.845 279.112 477.287L280.961 480.834ZM220.536 482.775C219.885 482.438 219.261 482.102 218.66 481.766L220.612 478.275C221.174 478.589 221.762 478.906 222.377 479.224C222.953 479.523 223.543 479.807 224.145 480.077L222.51 483.728C221.84 483.428 221.182 483.111 220.536 482.775ZM232.481 481.388C233.351 480.424 234.204 479.455 235.039 478.483L238.073 481.09C237.401 481.872 236.718 482.652 236.025 483.428C237.208 483.608 238.408 483.754 239.618 483.867L239.246 487.849C237.815 487.716 236.393 487.539 234.987 487.315L235.517 483.995C235.495 484.019 235.473 484.043 235.451 484.067L232.481 481.388ZM272.955 484.09C271.641 484.512 270.265 484.912 268.839 485.283L267.832 481.412C269.188 481.059 270.491 480.68 271.731 480.282L272.955 484.09ZM228.32 485.841C227.736 485.672 227.156 485.493 226.582 485.303L227.839 481.505C229.083 481.917 230.364 482.277 231.676 482.588L231.027 485.322L232.774 486.969C231.872 487.925 230.956 488.876 230.026 489.822L227.174 487.017C227.559 486.626 227.941 486.234 228.32 485.841ZM264.693 486.251C263.326 486.536 261.924 486.794 260.497 487.022L259.866 483.072C261.232 482.854 262.572 482.607 263.878 482.335L264.693 486.251ZM256.287 487.596C254.888 487.755 253.472 487.883 252.045 487.978L251.78 483.986C253.143 483.896 254.498 483.773 255.836 483.622L256.287 487.596ZM247.786 488.157C246.365 488.182 244.94 488.171 243.517 488.121L243.657 484.124C245.007 484.171 246.362 484.181 247.716 484.158L247.786 488.157ZM221.637 492.432C222.58 491.544 223.513 490.649 224.433 489.749L227.229 492.609C226.291 493.527 225.341 494.438 224.38 495.344L221.637 492.432ZM215.9 497.652C216.871 496.798 217.835 495.937 218.788 495.069L221.48 498.028C220.509 498.911 219.529 499.787 218.541 500.656L215.9 497.652ZM209.99 502.686C210.987 501.862 211.979 501.031 212.964 500.193L215.557 503.238C214.556 504.09 213.549 504.935 212.535 505.771L209.99 502.686ZM378.221 506.167C376.937 506.069 375.684 506.026 374.46 506.034L374.433 502.034C375.77 502.025 377.133 502.073 378.526 502.179L378.221 506.167ZM370.696 506.227C369.432 506.35 368.195 506.529 366.983 506.762L366.229 502.834C367.562 502.578 368.922 502.38 370.311 502.246L370.696 506.227ZM385.735 507.302C384.455 507.019 383.206 506.786 381.986 506.6L382.588 502.646C383.899 502.845 385.235 503.095 386.599 503.396L385.735 507.302ZM363.333 507.641C362.126 507.991 360.939 508.395 359.768 508.85L358.32 505.121C359.596 504.626 360.894 504.183 362.218 503.799L363.333 507.641ZM178.327 508.062C177.037 507.965 175.79 507.907 174.584 507.888L174.645 503.889C175.937 503.908 177.264 503.97 178.628 504.073L178.327 508.062ZM170.88 507.963C169.617 508.037 168.401 508.16 167.227 508.334L166.642 504.377C167.939 504.185 169.274 504.05 170.648 503.97L170.88 507.963ZM393.121 509.383C391.87 508.96 390.648 508.58 389.452 508.241L390.542 504.392C391.805 504.75 393.092 505.151 394.404 505.595L393.121 509.383ZM185.782 508.978C184.502 508.767 183.259 508.587 182.051 508.437L182.545 504.467C183.808 504.624 185.103 504.812 186.431 505.031L185.782 508.978ZM203.929 507.537C204.948 506.745 205.964 505.944 206.975 505.135L209.474 508.258C208.751 508.837 208.026 509.412 207.298 509.982C207.906 510.158 208.52 510.339 209.139 510.522L208.001 514.357C206.749 513.985 205.521 513.629 204.319 513.288L205.408 509.442L203.929 507.537ZM163.654 509.048C162.463 509.353 161.315 509.718 160.204 510.144L158.772 506.409C160.03 505.927 161.325 505.515 162.662 505.173L163.654 509.048ZM193.227 510.442C191.956 510.156 190.717 509.893 189.509 509.654L190.284 505.73C191.529 505.976 192.803 506.246 194.106 506.539L193.227 510.442ZM356.303 510.361C355.174 510.908 354.055 511.501 352.943 512.137L350.955 508.667C352.141 507.987 353.343 507.35 354.562 506.76L356.303 510.361ZM400.32 512.173C399.103 511.646 397.91 511.155 396.741 510.701L398.19 506.973C399.409 507.446 400.649 507.956 401.911 508.503L400.32 512.173ZM198.431 511.697C197.927 511.568 197.429 511.442 196.935 511.32L197.897 507.437C199.127 507.742 200.382 508.066 201.663 508.408L201.153 510.317L203.248 513.095C202.197 513.887 201.142 514.671 200.087 515.444L197.724 512.216C197.959 512.044 198.195 511.87 198.431 511.697ZM156.917 511.636C155.86 512.195 154.83 512.82 153.822 513.512L151.558 510.215C152.688 509.438 153.85 508.733 155.048 508.1L156.917 511.636ZM407.313 515.48C406.134 514.879 404.977 514.309 403.84 513.77L405.552 510.156C406.726 510.712 407.919 511.299 409.131 511.917L407.313 515.48ZM349.682 514.139C348.626 514.83 347.572 515.558 346.519 516.321L344.173 513.081C345.273 512.285 346.378 511.52 347.494 510.791L349.682 514.139ZM215.337 516.617C214.097 516.223 212.878 515.841 211.682 515.472L212.861 511.649C214.069 512.022 215.299 512.408 216.55 512.806L215.337 516.617ZM150.934 515.73C150.026 516.505 149.131 517.341 148.245 518.242L145.392 515.438C146.355 514.459 147.336 513.541 148.34 512.686L150.934 515.73ZM412.48 518.246C411.897 517.92 411.319 517.601 410.746 517.29L412.656 513.775C413.244 514.094 413.836 514.421 414.432 514.754C415.047 515.098 415.653 515.439 416.252 515.778L414.282 519.259C413.689 518.924 413.088 518.586 412.48 518.246ZM220.829 518.399C220.207 518.194 219.589 517.991 218.977 517.791L220.219 513.989C220.835 514.19 221.457 514.394 222.083 514.601C222.716 514.81 223.345 515.02 223.969 515.231L222.688 519.02C222.073 518.812 221.453 518.605 220.829 518.399ZM191.388 516.721C192.449 515.989 193.512 515.244 194.574 514.489L196.892 517.749C195.814 518.515 194.737 519.27 193.66 520.013L191.388 516.721ZM343.43 518.652C342.427 519.439 341.422 520.253 340.411 521.093L337.854 518.017C338.89 517.156 339.925 516.317 340.963 515.504L343.43 518.652ZM229.999 521.6C228.8 521.159 227.584 520.72 226.349 520.285L227.681 516.513C228.932 516.954 230.165 517.399 231.38 517.846L229.999 521.6ZM421.307 523.334C420.172 522.66 419.006 521.975 417.806 521.278L419.812 517.818C421.026 518.522 422.204 519.214 423.351 519.896L421.307 523.334ZM145.75 520.977C144.968 521.897 144.19 522.87 143.415 523.896L140.223 521.486C141.041 520.403 141.867 519.369 142.703 518.386L145.75 520.977ZM184.934 521.045C186.014 520.343 187.099 519.627 188.186 518.899L190.412 522.222C189.31 522.961 188.209 523.687 187.113 524.399L184.934 521.045ZM237.272 524.376C236.081 523.905 234.873 523.435 233.646 522.967L235.073 519.23C236.315 519.704 237.538 520.18 238.742 520.656L237.272 524.376ZM337.442 523.619C336.47 524.462 335.492 525.326 334.504 526.208L331.84 523.224C332.838 522.332 333.831 521.456 334.821 520.597L337.442 523.619ZM428.249 527.564C427.132 526.867 425.979 526.155 424.787 525.429L426.869 522.013C428.073 522.747 429.238 523.467 430.367 524.171L428.249 527.564ZM244.471 527.31C243.292 526.816 242.095 526.32 240.879 525.824L242.39 522.121C243.618 522.622 244.827 523.122 246.017 523.621L244.471 527.31ZM178.374 525.171C179.463 524.509 180.559 523.831 181.66 523.138L183.79 526.523C182.673 527.227 181.56 527.915 180.454 528.588L178.374 525.171ZM141.214 526.96C140.524 527.966 139.834 529.016 139.141 530.109L135.762 527.969C136.479 526.838 137.195 525.748 137.914 524.699L141.214 526.96ZM251.623 530.376C250.451 529.864 249.261 529.348 248.051 528.829L249.628 525.153C250.847 525.676 252.045 526.195 253.224 526.71L251.623 530.376ZM331.585 528.839C330.627 529.709 329.659 530.592 328.679 531.488L325.981 528.535C326.962 527.639 327.933 526.752 328.896 525.878L331.585 528.839ZM435.116 531.951C434.016 531.233 432.876 530.496 431.692 529.74L433.846 526.369C435.041 527.133 436.192 527.877 437.302 528.602L435.116 531.951ZM171.664 529.113C172.774 528.485 173.895 527.838 175.026 527.174L177.052 530.623C175.903 531.298 174.762 531.956 173.633 532.595L171.664 529.113ZM258.758 533.53C257.588 533.009 256.399 532.48 255.19 531.945L256.809 528.287C258.022 528.824 259.214 529.354 260.385 529.875L258.758 533.53ZM441.898 536.453C440.816 535.726 439.691 534.972 438.518 534.193L440.732 530.861C441.913 531.646 443.044 532.404 444.129 533.134L441.898 536.453ZM164.855 532.805C165.984 532.22 167.13 531.612 168.292 530.982L170.199 534.497C169.016 535.139 167.847 535.759 166.694 536.356L164.855 532.805ZM325.767 534.146C325.282 534.589 324.793 535.034 324.3 535.481C323.786 535.948 323.273 536.398 322.761 536.832L320.175 533.78C320.652 533.376 321.131 532.956 321.612 532.519C322.102 532.074 322.589 531.631 323.073 531.19L325.767 534.146ZM137.159 533.343C136.836 533.886 136.513 534.439 136.188 535.001C135.845 535.594 135.547 536.152 135.291 536.674L131.698 534.917C131.999 534.302 132.341 533.662 132.725 532.999C133.057 532.424 133.389 531.857 133.721 531.299L137.159 533.343ZM265.919 536.705C264.743 536.189 263.548 535.66 262.332 535.12L263.956 531.465C265.169 532.003 266.358 532.53 267.527 533.043L265.919 536.705ZM157.902 536.215C159.04 535.69 160.203 535.136 161.389 534.554L163.152 538.144C161.938 538.74 160.746 539.308 159.577 539.847L157.902 536.215ZM273.163 539.798C271.97 539.308 270.758 538.798 269.527 538.271L271.101 534.594C272.318 535.115 273.511 535.617 274.682 536.098L273.163 539.798ZM448.697 541.019C447.61 540.298 446.477 539.538 445.293 538.74L447.527 535.423C448.71 536.219 449.833 536.973 450.908 537.685L448.697 541.019ZM319.571 539.333C318.429 540.157 317.288 540.903 316.146 541.573L314.121 538.124C315.149 537.52 316.185 536.844 317.231 536.089L319.571 539.333ZM280.561 542.634C279.337 542.206 278.097 541.747 276.837 541.262L278.275 537.529C279.501 538.002 280.703 538.446 281.881 538.858L280.561 542.634ZM150.842 539.22C151.985 538.779 153.169 538.297 154.389 537.776L155.959 541.455C154.699 541.993 153.472 542.493 152.282 542.952L150.842 539.22ZM134.155 539.802C133.91 541.077 134.179 541.589 134.371 541.808L131.361 544.442C130.074 542.971 129.845 541.036 130.226 539.049L134.155 539.802ZM312.472 543.47C311.182 544.046 309.89 544.529 308.591 544.925L307.425 541.099C308.562 540.752 309.7 540.327 310.842 539.818L312.472 543.47ZM455.733 545.44C454.584 544.78 453.399 544.056 452.166 543.275L454.307 539.896C455.506 540.656 456.64 541.348 457.726 541.972L455.733 545.44ZM288.238 544.937C286.957 544.627 285.661 544.271 284.349 543.874L285.508 540.045C286.757 540.423 287.979 540.759 289.178 541.049L288.238 544.937ZM143.614 541.607C144.75 541.309 145.965 540.945 147.251 540.516L148.517 544.31C147.16 544.763 145.861 545.153 144.628 545.476L143.614 541.607ZM296.272 546.235C294.927 546.14 293.573 545.976 292.206 545.75L292.858 541.803C294.114 542.011 295.345 542.159 296.556 542.245L296.272 546.235ZM304.532 545.879C303.161 546.109 301.784 546.247 300.399 546.304L300.237 542.307C301.462 542.257 302.672 542.135 303.872 541.934L304.532 545.879ZM136.568 542.559C137.476 542.631 138.611 542.578 139.978 542.374L140.568 546.33C139.005 546.564 137.549 546.65 136.249 546.546L136.568 542.559ZM486.718 546.349C486.051 546.624 485.4 546.884 484.762 547.129L483.327 543.395C483.933 543.162 484.555 542.914 485.195 542.651L486.718 546.349ZM463.516 549.033C462.176 548.602 460.841 548.061 459.486 547.42L461.197 543.804C462.422 544.384 463.592 544.856 464.739 545.224L463.516 549.033ZM480.775 548.524C479.333 548.973 477.957 549.333 476.63 549.604L475.829 545.685C477.007 545.444 478.253 545.12 479.587 544.704L480.775 548.524ZM472.299 550.179C470.771 550.263 469.298 550.208 467.848 550.017L468.37 546.051C469.567 546.209 470.792 546.255 472.08 546.185L472.299 550.179Z" fill="white"/>
<path fill-rule="evenodd" clip-rule="evenodd" d="M411.998 342.554C412.604 341.899 412.862 341.314 412.728 340.819C412.595 340.325 412.077 339.95 411.224 339.688L410.767 341.179C410.76 341.108 410.761 341.043 410.768 340.987C410.778 340.896 410.799 340.846 410.8 340.842C410.8 340.842 410.786 340.874 410.743 340.936C410.698 341.001 410.629 341.088 410.529 341.197L409.068 339.846C409.085 339.817 409.098 339.798 409.106 339.787C409.098 339.797 409.083 339.814 409.06 339.839L409.068 339.846C409.039 339.893 409.001 339.964 408.96 340.058C408.827 340.371 408.643 341.036 408.866 341.862C409.09 342.689 409.583 343.171 409.856 343.374C409.938 343.435 410.007 343.477 410.055 343.503L410.053 343.513C410.085 343.523 410.107 343.53 410.119 343.535C410.106 343.53 410.085 343.519 410.055 343.503L410.638 341.601C410.779 341.644 410.882 341.684 410.954 341.718C411.026 341.752 411.053 341.772 411.051 341.77C411.048 341.768 411.004 341.735 410.95 341.661C410.916 341.617 410.883 341.561 410.853 341.496L411.998 342.554ZM407.345 339.234L407.303 342.285L408.875 344.899C407.888 345.493 406.729 346.115 405.418 346.756L403.755 343.357C403.741 343.358 403.727 343.359 403.713 343.36L403.706 343.256L403.66 343.163C403.672 343.157 403.685 343.151 403.697 343.145L403.423 339.37C404.879 339.264 406.193 339.218 407.345 339.234ZM399.522 339.756L400.004 343.727C398.823 343.87 397.571 344.044 396.256 344.248L395.642 340.296C396.997 340.085 398.293 339.905 399.522 339.756ZM391.777 340.95L392.493 344.885C391.277 345.107 390.021 345.35 388.731 345.614L387.928 341.696C389.245 341.426 390.53 341.177 391.777 340.95ZM384.093 342.52L384.971 346.423C383.744 346.699 382.492 346.992 381.221 347.302L380.275 343.416C381.568 343.1 382.842 342.802 384.093 342.52ZM376.473 344.376L377.484 348.246C376.867 348.407 376.245 348.572 375.621 348.741C374.997 348.909 374.377 349.08 373.762 349.251L372.688 345.398C373.313 345.224 373.943 345.051 374.578 344.879C375.213 344.708 375.845 344.54 376.473 344.376ZM368.919 346.482L370.058 350.317C368.804 350.689 367.575 351.066 366.375 351.445L365.169 347.631C366.392 347.245 367.643 346.861 368.919 346.482ZM361.441 348.849L362.72 352.639C361.472 353.06 360.265 353.482 359.102 353.903L357.74 350.142C358.932 349.711 360.167 349.279 361.441 348.849ZM354.071 351.523L355.53 355.248C354.291 355.733 353.122 356.213 352.03 356.683L350.447 353.01C351.584 352.52 352.794 352.023 354.071 351.523ZM346.882 354.641L348.545 358.04C348.559 358.039 348.573 358.038 348.587 358.037L348.594 358.141L348.64 358.234C348.627 358.24 348.615 358.246 348.602 358.252L348.877 362.027C347.421 362.133 346.106 362.179 344.955 362.163L344.997 359.112L343.425 356.498C344.412 355.904 345.571 355.282 346.882 354.641ZM341.076 361.709L341.532 360.218C341.54 360.289 341.538 360.354 341.532 360.41C341.522 360.501 341.501 360.551 341.499 360.555C341.499 360.555 341.499 360.555 341.499 360.555C341.5 360.555 341.513 360.523 341.557 360.461C341.602 360.396 341.67 360.309 341.771 360.2L343.232 361.551C343.215 361.58 343.201 361.599 343.193 361.61C343.202 361.6 343.216 361.583 343.239 361.558L343.232 361.551C343.26 361.504 343.299 361.433 343.339 361.339C343.473 361.026 343.657 360.361 343.433 359.535C343.21 358.708 342.716 358.226 342.444 358.023C342.361 357.962 342.292 357.92 342.244 357.894L342.247 357.884C342.215 357.874 342.193 357.867 342.181 357.862C342.193 357.867 342.215 357.878 342.244 357.894L341.662 359.796C341.52 359.753 341.417 359.713 341.346 359.679C341.277 359.647 341.249 359.627 341.249 359.627C341.249 359.627 341.249 359.627 341.249 359.627C341.252 359.629 341.296 359.662 341.35 359.736C341.383 359.78 341.417 359.836 341.447 359.901L340.302 358.843C339.696 359.498 339.438 360.083 339.572 360.578C339.705 361.072 340.223 361.447 341.076 361.709ZM352.778 361.641L352.296 357.67C353.477 357.527 354.728 357.353 356.043 357.149L356.658 361.101C355.303 361.312 354.007 361.492 352.778 361.641ZM360.523 360.447L359.806 356.512C361.023 356.29 362.279 356.047 363.569 355.783L364.372 359.701C363.054 359.971 361.77 360.22 360.523 360.447ZM368.206 358.877L367.328 354.974C368.556 354.698 369.807 354.405 371.078 354.095L372.025 357.981C370.732 358.297 369.458 358.595 368.206 358.877ZM375.827 357.021L374.815 353.151C375.433 352.99 376.054 352.825 376.679 352.656C377.303 352.488 377.923 352.317 378.538 352.146L379.612 355.999C378.987 356.173 378.356 356.346 377.722 356.518C377.087 356.689 376.455 356.857 375.827 357.021ZM383.38 354.915L382.242 351.08C383.496 350.708 384.725 350.331 385.924 349.952L387.13 353.766C385.908 354.152 384.656 354.536 383.38 354.915ZM390.859 352.548L389.58 348.758C390.827 348.337 392.035 347.915 393.198 347.494L394.56 351.255C393.368 351.686 392.133 352.118 390.859 352.548ZM398.229 349.874L396.77 346.149C398.009 345.664 399.178 345.184 400.27 344.714L401.853 348.387C400.716 348.877 399.506 349.374 398.229 349.874Z" fill="white"/>
<line x1="341.278" y1="359.225" x2="349.81" y2="390.815" stroke="white" stroke-width="4" stroke-dasharray="4 4"/>
<path fill-rule="evenodd" clip-rule="evenodd" d="M412.658 342.622L412.099 340.692L415.942 339.58L416.5 341.51L412.658 342.622ZM414.892 350.344L413.775 346.483L417.617 345.371L418.734 349.232L414.892 350.344ZM417.126 358.065L416.009 354.205L419.851 353.093L420.968 356.954L417.126 358.065ZM419.36 365.787L418.243 361.926L422.085 360.814L423.202 364.675L419.36 365.787ZM421.036 371.578L420.477 369.648L424.319 368.536L424.878 370.466L421.036 371.578Z" fill="white"/>
<path fill-rule="evenodd" clip-rule="evenodd" d="M412.389 339.14C413.006 339.009 413.609 338.893 414.2 338.789L414.893 342.728C414.348 342.824 413.789 342.932 413.216 343.053L412.389 339.14ZM417.859 338.285C419.177 338.157 420.419 338.097 421.585 338.093L421.599 342.093C420.561 342.096 419.444 342.15 418.246 342.267L417.859 338.285ZM425.356 338.292C426.766 338.453 428.026 338.702 429.138 339.008L428.076 342.865C427.173 342.616 426.117 342.405 424.903 342.266L425.356 338.292ZM432.878 340.506C433.626 340.93 434.26 341.397 434.739 341.883L434.746 341.89L434.752 341.897C435.255 342.417 435.716 342.969 436.138 343.548L432.904 345.903C432.588 345.469 432.249 345.063 431.885 344.685C431.726 344.525 431.414 344.274 430.904 343.984L432.878 340.506ZM438.191 347.217C438.719 348.464 439.133 349.77 439.451 351.102L435.561 352.033C435.286 350.885 434.938 349.793 434.508 348.779L438.191 347.217ZM440.132 355.042C440.281 356.356 440.36 357.677 440.384 358.978L436.385 359.053C436.362 357.862 436.29 356.667 436.157 355.492L440.132 355.042ZM440.301 362.889C440.222 364.237 440.094 365.541 439.936 366.768L435.969 366.255C436.116 365.114 436.235 363.903 436.308 362.653L440.301 362.889ZM419.978 369.487L420.47 369.362C421.147 369.191 421.893 369.014 422.683 368.842L423.537 372.75C422.974 372.873 422.436 372.997 421.935 373.12C421.565 373.455 421.192 373.784 420.816 374.109L418.203 371.08C418.677 370.672 419.144 370.255 419.605 369.83L419.978 369.487ZM349.793 393.199C349.104 393.128 348.444 393.05 347.818 392.967L348.344 389.002C348.93 389.08 349.55 389.153 350.203 389.22L349.793 393.199ZM431.925 371.553C430.665 371.595 429.229 371.747 427.755 371.968L427.163 368.012C428.731 367.777 430.329 367.604 431.793 367.555L431.925 371.553ZM357.713 393.656C356.332 393.631 355.009 393.581 353.755 393.511L353.98 389.517C355.183 389.585 356.454 389.633 357.785 389.657L357.713 393.656ZM417.701 376.628C416.634 377.438 415.546 378.211 414.44 378.95L412.218 375.624C413.259 374.928 414.282 374.201 415.284 373.441L417.701 376.628ZM435.226 371.918C435.226 371.918 435.219 371.913 435.202 371.904L435.204 371.899C435.218 371.912 435.226 371.918 435.226 371.918ZM435.029 371.564C435.037 371.602 435.049 371.644 435.068 371.689C435.115 371.803 435.173 371.87 435.204 371.899L435.345 371.652L438.833 372.627C438.87 372.505 438.902 372.381 438.929 372.254C439.054 371.747 439.178 371.2 439.297 370.621L438.894 370.538C438.859 370.412 438.816 370.286 438.764 370.161C438.421 369.331 437.8 368.78 437.183 368.429L436.285 370.003L435.378 369.817C435.248 370.45 435.114 371.03 434.982 371.55L435.029 371.564ZM435.016 371.468C435.017 371.494 435.021 371.526 435.028 371.562C435.029 371.563 435.029 371.563 435.029 371.564L435.345 371.652L435.386 371.58L435.016 371.468ZM365.615 393.526C364.263 393.594 362.945 393.636 361.666 393.658L361.599 389.658C362.835 389.638 364.109 389.596 365.416 389.531L365.615 393.526ZM411.055 381.073C409.905 381.75 408.74 382.392 407.563 383.003L405.722 379.452C406.838 378.873 407.94 378.265 409.026 377.626L411.055 381.073ZM373.482 392.88C372.154 393.032 370.845 393.161 369.559 393.266L369.231 389.28C370.475 389.178 371.741 389.054 373.025 388.906L373.482 392.88ZM403.982 384.746C402.772 385.298 401.552 385.819 400.326 386.31L398.839 382.596C400.009 382.128 401.171 381.632 402.321 381.107L403.982 384.746ZM381.297 391.716C379.987 391.957 378.687 392.172 377.401 392.363L376.812 388.407C378.055 388.222 379.31 388.014 380.573 387.782L381.297 391.716ZM396.605 387.703C395.351 388.141 394.094 388.55 392.836 388.932L391.675 385.104C392.881 384.738 394.086 384.346 395.285 383.927L396.605 387.703ZM389.021 390.006C387.735 390.341 386.452 390.649 385.174 390.932L384.311 387.026C385.541 386.754 386.776 386.458 388.012 386.136L389.021 390.006Z" fill="white"/>
</svg>
