<svg width="571" height="571" viewBox="0 0 571 571" fill="none" xmlns="http://www.w3.org/2000/svg">
<rect x="1.5" y="1.5" width="568" height="568" fill="white" stroke="#1E2165" stroke-width="3"/>
<path d="M117.496 291H450.504L568 571H0L117.496 291Z" fill="#1E2165"/>
<path d="M410.5 290.5C410.5 371.512 349.608 435.5 276.5 435.5C203.392 435.5 142.5 371.512 142.5 290.5C142.5 209.488 203.392 145.5 276.5 145.5C349.608 145.5 410.5 209.488 410.5 290.5Z" stroke="#1E2165" stroke-width="27"/>
<path fill-rule="evenodd" clip-rule="evenodd" d="M438.227 438.736C438.39 438.59 438.561 438.455 438.739 438.334L436.489 435.027C436.163 435.249 435.85 435.494 435.554 435.761C435.553 435.761 435.553 435.761 435.552 435.762L436.89 437.248L435.554 435.76L435.554 435.761L434.148 437.021L436.818 439.999L438.227 438.736ZM398.476 474.432C398.586 474.302 398.706 474.179 398.835 474.064L400.243 472.801L397.572 469.823L396.166 471.084M431.191 445.046L434.005 442.522L431.334 439.545L428.521 442.068L431.191 445.046ZM425.564 450.092L428.378 447.569L425.707 444.591L422.894 447.114L425.564 450.092ZM419.937 455.139L422.751 452.615L420.08 449.637L417.267 452.161L419.937 455.139ZM414.31 460.185L417.124 457.662L414.453 454.684L411.64 457.207L414.31 460.185ZM408.684 465.231L411.497 462.708L408.826 459.73L406.013 462.253L408.684 465.231ZM403.057 470.278L405.87 467.755L403.199 464.777L400.386 467.3L403.057 470.278ZM397.762 475.736C397.806 475.583 397.862 475.431 397.931 475.28L394.294 473.615C394.145 473.941 394.019 474.279 393.919 474.625C393.824 474.955 393.753 475.289 393.707 475.625L397.67 476.165C397.689 476.025 397.719 475.882 397.762 475.736ZM439.886 437.766C440.087 437.7 440.289 437.65 440.49 437.616C440.681 437.583 440.869 437.565 441.052 437.562L440.966 433.562C440.584 433.571 440.2 433.608 439.818 433.673C439.416 433.741 439.021 433.84 438.636 433.967L439.886 437.766ZM397.788 477.347C397.744 477.231 397.71 477.109 397.686 476.981L393.755 477.719C393.821 478.072 393.917 478.42 394.045 478.759L394.046 478.761C394.256 479.315 394.498 479.928 394.772 480.589L398.466 479.053C398.209 478.435 397.983 477.863 397.788 477.347ZM442.575 437.897C442.429 437.821 442.273 437.756 442.109 437.705ZM442.109 437.705L443.3 433.887ZM443.3 433.887C443.685 434.007 444.061 434.161 444.421 434.348ZM444.421 434.348L444.422 434.349ZM442.575 437.897C443.068 438.154 443.604 438.442 444.175 438.763L446.134 435.276C445.524 434.933 444.951 434.624 444.422 434.349M401.735 485.702C401.086 484.572 400.508 483.471 399.995 482.428L396.405 484.192C396.952 485.305 397.571 486.482 398.266 487.693L401.735 485.702ZM447.319 440.66C448.288 441.287 449.302 441.982 450.333 442.747L452.716 439.534C451.61 438.714 450.526 437.97 449.49 437.301L447.319 440.66ZM405.841 491.818C405.067 490.834 404.348 489.836 403.682 488.842L400.359 491.068C401.077 492.14 401.855 493.22 402.697 494.291L405.841 491.818ZM453.195 445.025C454.097 445.796 454.994 446.619 455.871 447.493L458.695 444.661C457.741 443.709 456.768 442.818 455.794 441.985L453.195 445.025ZM410.827 497.138C409.909 496.326 409.041 495.475 408.221 494.598L405.299 497.329C406.198 498.292 407.157 499.232 408.176 500.134L410.827 497.138ZM458.326 450.155C459.093 451.063 459.828 452.015 460.52 453.011L463.806 450.731C463.038 449.623 462.225 448.571 461.381 447.573L458.326 450.155ZM416.699 501.311C415.636 500.724 414.623 500.081 413.656 499.392L411.334 502.649C412.419 503.423 413.562 504.148 414.765 504.812L416.699 501.311ZM462.407 456.054C462.972 457.085 463.487 458.157 463.941 459.269L467.644 457.758C467.13 456.498 466.549 455.289 465.914 454.131L462.407 456.054ZM423.337 503.984C422.156 503.671 421.023 503.291 419.935 502.852L418.439 506.562C419.677 507.061 420.967 507.494 422.312 507.851L423.337 503.984ZM465.083 462.631C465.389 463.75 465.634 464.908 465.807 466.105L469.766 465.53C469.568 464.168 469.29 462.85 468.941 461.575L465.083 462.631ZM430.434 504.975C429.193 504.947 427.997 504.848 426.844 504.688L426.294 508.65C427.6 508.832 428.949 508.942 430.341 508.974L430.434 504.975ZM466.104 469.635C466.132 470.789 466.095 471.978 465.985 473.203L469.969 473.559C470.092 472.185 470.134 470.845 470.103 469.538L466.104 469.635ZM437.667 504.394C436.422 504.615 435.214 504.771 434.044 504.866L434.37 508.853C435.669 508.747 437 508.575 438.365 508.333L437.667 504.394ZM465.48 476.742C465.257 477.883 464.972 479.054 464.62 480.255L468.458 481.381C468.844 480.065 469.159 478.774 469.406 477.507L465.48 476.742ZM444.754 502.538C443.551 502.95 442.379 503.304 441.235 503.606L442.255 507.473C443.494 507.147 444.758 506.764 446.049 506.323L444.754 502.538ZM463.456 483.686C463.036 484.779 462.562 485.895 462.028 487.035L465.65 488.731C466.223 487.509 466.735 486.305 467.19 485.12L463.456 483.686ZM460.369 490.302C460.076 490.838 459.77 491.379 459.451 491.926L459.445 491.936C459.253 492.269 459.084 492.612 458.941 492.964L462.644 494.476C462.718 494.295 462.806 494.115 462.907 493.938C463.244 493.362 463.568 492.789 463.879 492.22L460.369 490.302ZM449.941 500.485C449.359 500.746 448.784 500.993 448.215 501.229L449.745 504.925C450.352 504.674 450.964 504.41 451.581 504.133L451.593 504.128C451.771 504.047 451.952 503.979 452.132 503.925L450.981 500.094C450.628 500.2 450.28 500.331 449.941 500.485ZM454.392 499.854C454.007 499.792 453.617 499.761 453.229 499.76L453.224 503.76C453.404 503.761 453.58 503.775 453.748 503.802C453.908 503.828 454.061 503.866 454.205 503.914L455.466 500.118C455.117 500.002 454.759 499.914 454.392 499.854ZM458.38 495.223C458.342 495.619 458.335 496.019 458.361 496.418C458.386 496.797 458.44 497.171 458.524 497.537L462.424 496.648C462.388 496.492 462.364 496.328 462.353 496.157C462.341 495.977 462.344 495.791 462.362 495.603L458.38 495.223ZM458.287 501.96C458.031 501.673 457.751 501.412 457.451 501.178L454.989 504.33C455.102 504.418 455.206 504.515 455.301 504.622C455.302 504.623 455.303 504.623 455.303 504.624L456.663 506.159L459.657 503.507L458.292 501.966L458.287 501.96ZM460.112 500.586C460.114 500.588 460.115 500.589 460.117 500.591L461.486 502.098L464.447 499.409L463.062 497.884C462.958 497.771 462.865 497.65 462.783 497.52L459.406 499.663C459.613 499.99 459.849 500.299 460.112 500.586ZM465.118 509.673L462.388 506.59L459.393 509.242L462.124 512.325L465.118 509.673ZM464.239 505.13L466.992 508.161L469.953 505.472L467.2 502.44L464.239 505.13ZM470.579 515.839L467.849 512.756L464.854 515.408L467.585 518.491L470.579 515.839ZM469.746 511.193L472.499 514.225L475.46 511.536L472.707 508.504L469.746 511.193ZM476.04 522.005L473.31 518.922L470.315 521.574L473.046 524.657L476.04 522.005ZM475.252 517.257L478.006 520.288L480.967 517.599L478.213 514.567L475.252 517.257ZM480.133 526.626L478.771 525.088L475.776 527.74L477.144 529.285C477.186 529.331 477.222 529.383 477.253 529.439L480.76 527.515C480.587 527.199 480.378 526.901 480.134 526.628C480.134 526.627 480.133 526.627 480.133 526.626ZM480.759 523.32L482.133 524.833C482.133 524.833 482.134 524.834 482.134 524.834M484.893 526.367C485.225 526.43 485.565 526.462 485.907 526.461C486.27 526.46 486.63 526.424 486.981 526.355L486.212 522.43C486.104 522.451 485.999 522.461 485.9 522.461C485.807 522.461 485.72 522.453 485.642 522.438L484.893 526.367ZM481.342 530.555C481.38 530.215 481.386 529.874 481.359 529.537L477.371 529.855C477.378 529.934 477.377 530.021 477.367 530.114C477.356 530.213 477.334 530.316 477.302 530.421L481.121 531.611C481.227 531.269 481.302 530.916 481.342 530.555ZM489.751 525.007C489.489 525.23 489.211 525.43 488.921 525.604L486.86 522.176C486.964 522.114 487.064 522.042 487.159 521.961L487.162 521.959C487.723 521.482 488.356 520.953 489.044 520.391L491.573 523.491C490.907 524.034 490.294 524.546 489.751 525.007ZM479.48 534.218C479.73 533.982 479.958 533.728 480.164 533.458L476.979 531.038C476.906 531.134 476.824 531.225 476.733 531.311L476.73 531.314C476.195 531.82 475.601 532.392 474.968 533.015L477.775 535.865C478.387 535.262 478.962 534.709 479.48 534.218ZM495.305 520.58C496.547 519.657 497.849 518.74 499.155 517.894L496.981 514.536C495.587 515.439 494.214 516.407 492.919 517.369L495.305 520.58ZM471.388 542.795C472.371 541.589 473.425 540.394 474.477 539.259L471.543 536.54C470.447 537.722 469.335 538.982 468.287 540.27L471.388 542.795ZM503.133 515.587C503.839 515.234 504.515 514.933 505.151 514.692L505.154 514.691C505.295 514.637 505.395 514.623 505.455 514.62C505.515 514.617 505.55 514.625 505.566 514.63L506.778 510.819C505.808 510.51 504.754 510.564 503.734 510.951M467.557 548.406C467.866 547.8 468.237 547.162 468.664 546.5L465.3 544.335C464.815 545.088 464.372 545.845 463.991 546.595L463.987 546.601C463.497 547.572 463.332 548.61 463.53 549.604L467.453 548.822C467.448 548.799 467.426 548.667 467.557 548.406ZM468.39 548.696C468.158 548.903 467.969 548.967 467.852 548.986L468.478 552.936C469.405 552.79 470.293 552.362 471.06 551.674L472.6 550.293L469.93 547.315L468.39 548.696ZM505.685 515.057C505.655 515.171 505.573 515.349 505.346 515.553L503.806 516.934L506.477 519.911L508.017 518.53C508.786 517.841 509.306 517 509.549 516.092L505.685 515.057ZM500.726 519.695L497.647 522.457L500.317 525.435L503.397 522.673L500.726 519.695ZM494.567 525.219L491.487 527.981L494.158 530.959L497.238 528.197L494.567 525.219ZM488.408 530.743L485.328 533.505L487.999 536.483L491.078 533.721L488.408 530.743ZM482.248 536.267L479.169 539.029L481.839 542.007L484.919 539.245L482.248 536.267ZM476.089 541.791L473.009 544.553L475.68 547.531L478.76 544.769L476.089 541.791Z" fill="white"/>
<path fill-rule="evenodd" clip-rule="evenodd" d="M382.687 367.719C382.856 367.858 383.015 368.007 383.161 368.165L386.092 365.443C385.824 365.154 385.534 364.881 385.226 364.628C385.226 364.628 385.225 364.627 385.225 364.627L383.956 366.173L385.227 364.629L385.226 364.628L383.768 363.428L381.226 366.516L382.687 367.719ZM341.415 333.793C341.56 333.882 341.699 333.983 341.833 334.093L343.293 335.295L345.835 332.206L344.377 331.006M375.39 361.713L378.308 364.115L380.85 361.026L377.932 358.625L375.39 361.713ZM369.554 356.91L372.472 359.311L375.014 356.223L372.096 353.821L369.554 356.91ZM363.719 352.106L366.636 354.508L369.178 351.42L366.261 349.018L363.719 352.106ZM357.883 347.303L360.801 349.705L363.343 346.616L360.425 344.215L357.883 347.303ZM352.047 342.5L354.965 344.901L357.507 341.813L354.589 339.411L352.047 342.5ZM346.211 337.696L349.129 340.098L351.671 337.01L348.753 334.608L346.211 337.696ZM340.018 333.283C340.175 333.304 340.335 333.337 340.494 333.382L341.593 329.536C341.248 329.438 340.895 329.364 340.538 329.317C340.198 329.273 339.857 329.253 339.517 329.258L339.58 333.257C339.721 333.255 339.868 333.263 340.018 333.283ZM383.895 369.213C383.991 369.401 384.071 369.594 384.135 369.788C384.196 369.972 384.242 370.155 384.273 370.335L388.214 369.648C388.148 369.271 388.054 368.898 387.932 368.53C387.804 368.143 387.647 367.767 387.463 367.405L383.895 369.213ZM338.43 333.551C338.537 333.491 338.653 333.439 338.776 333.396L337.455 329.62C337.115 329.739 336.786 329.887 336.47 330.064L336.469 330.065C335.952 330.356 335.382 330.687 334.77 331.058L336.845 334.478C337.417 334.131 337.949 333.822 338.43 333.551ZM384.171 371.891C384.224 371.735 384.264 371.571 384.29 371.401ZM384.29 371.401L388.245 372.004ZM388.245 372.004C388.184 372.403 388.088 372.797 387.957 373.182ZM387.957 373.182L387.957 373.183ZM384.171 371.891C383.991 372.417 383.787 372.991 383.556 373.603L387.298 375.015C387.545 374.361 387.764 373.747 387.957 373.183M330.763 338.712C331.784 337.9 332.784 337.162 333.738 336.499L331.454 333.215C330.436 333.923 329.366 334.712 328.273 335.582L330.763 338.712ZM382.153 376.996C381.68 378.05 381.144 379.156 380.543 380.291L384.078 382.163C384.723 380.946 385.295 379.762 385.801 378.638L382.153 376.996ZM325.335 343.691C326.192 342.778 327.07 341.917 327.952 341.109L325.251 338.158C324.3 339.03 323.349 339.962 322.418 340.955L325.335 343.691ZM378.722 383.463C378.096 384.47 377.417 385.481 376.685 386.48L379.91 388.846C380.707 387.759 381.442 386.663 382.119 385.575L378.722 383.463ZM320.826 349.421C321.491 348.391 322.202 347.405 322.945 346.463L319.806 343.984C318.989 345.019 318.204 346.108 317.466 347.251L320.826 349.421ZM374.423 389.308C373.641 390.203 372.811 391.073 371.93 391.906L374.679 394.812C375.658 393.886 376.576 392.923 377.435 391.939L374.423 389.308ZM317.584 355.854C318.005 354.715 318.488 353.616 319.024 352.557L315.454 350.752C314.853 351.941 314.308 353.18 313.832 354.469L317.584 355.854ZM369.205 394.23C368.271 394.944 367.289 395.614 366.258 396.23L368.309 399.664C369.478 398.966 370.585 398.209 371.634 397.407L369.205 394.23ZM315.941 362.819C316.073 361.604 316.278 360.427 316.548 359.285L312.655 358.365C312.348 359.664 312.114 361.004 311.964 362.387L315.941 362.819ZM363.107 397.865C362.046 398.336 360.938 398.752 359.781 399.104L360.945 402.931C362.262 402.531 363.523 402.057 364.731 401.521L363.107 397.865ZM316.029 369.984C315.871 368.753 315.788 367.556 315.773 366.392L311.773 366.444C311.79 367.763 311.884 369.113 312.062 370.495L316.029 369.984ZM356.335 399.929C355.199 400.13 354.018 400.272 352.79 400.348L353.038 404.34C354.415 404.255 355.746 404.095 357.033 403.867L356.335 399.929ZM317.692 377.047C317.287 375.849 316.951 374.679 316.68 373.537L312.788 374.459C313.089 375.727 313.459 377.017 313.904 378.33L317.692 377.047ZM349.216 400.381C348.054 400.333 346.853 400.228 345.613 400.06L345.078 404.024C346.437 404.208 347.761 404.324 349.05 404.378L349.216 400.381ZM320.594 383.774C320.006 382.647 319.479 381.541 319.009 380.456L315.339 382.046C315.848 383.222 316.417 384.415 317.047 385.624L320.594 383.774ZM342.046 399.426C340.902 399.176 339.727 398.874 338.521 398.518L337.389 402.354C338.684 402.736 339.95 403.062 341.19 403.333L342.046 399.426ZM335.041 397.37C334.467 397.16 333.886 396.939 333.298 396.706L333.287 396.702C332.928 396.562 332.563 396.447 332.194 396.358L331.257 400.247C331.447 400.293 331.638 400.353 331.828 400.427C332.449 400.673 333.064 400.907 333.673 401.128L335.041 397.37ZM323.404 388.593C323.059 388.057 322.728 387.526 322.409 386.999L318.986 389.067C319.325 389.629 319.678 390.195 320.044 390.764L320.051 390.774C320.159 390.939 320.253 391.107 320.333 391.277L323.947 389.562C323.789 389.229 323.608 388.905 323.404 388.593ZM324.698 392.899C324.702 392.508 324.674 392.119 324.616 391.734L320.661 392.332C320.687 392.51 320.7 392.685 320.698 392.856C320.696 393.019 320.682 393.175 320.656 393.324L324.599 394C324.661 393.638 324.694 393.27 324.698 392.899ZM329.877 396.144C329.479 396.166 329.083 396.219 328.693 396.305C328.322 396.387 327.96 396.497 327.61 396.634L329.076 400.356C329.225 400.297 329.384 400.249 329.552 400.212C329.728 400.173 329.911 400.148 330.1 400.137L329.877 396.144ZM323.203 397.066C323.447 396.77 323.663 396.454 323.85 396.122L320.363 394.162C320.293 394.287 320.212 394.405 320.122 394.515C320.121 394.515 320.12 394.516 320.119 394.517L318.806 396.093L321.879 398.654L323.197 397.072L323.203 397.066ZM324.835 398.664C324.834 398.666 324.833 398.667 324.831 398.669L323.547 400.249L326.652 402.772L327.95 401.173C328.046 401.054 328.153 400.943 328.269 400.842L325.641 397.826C325.35 398.08 325.08 398.36 324.835 398.664ZM316.605 404.98L319.242 401.817L316.169 399.256L313.533 402.419L316.605 404.98ZM320.965 403.427L318.382 406.606L321.486 409.128L324.069 405.95L320.965 403.427ZM311.331 411.307L313.968 408.144L310.896 405.583L308.259 408.746L311.331 411.307ZM315.799 409.784L313.216 412.962L316.32 415.485L318.903 412.306L315.799 409.784ZM306.058 417.634L308.695 414.471L305.622 411.909L302.985 415.073L306.058 417.634ZM310.633 416.14L308.051 419.319L311.155 421.841L313.738 418.663L310.633 416.14ZM302.105 422.376L303.421 420.797L300.348 418.236L299.027 419.821C298.987 419.869 298.942 419.913 298.891 419.952L301.32 423.129C301.607 422.91 301.87 422.659 302.104 422.377C302.104 422.377 302.105 422.376 302.105 422.376ZM305.468 422.497L304.179 424.083C304.179 424.083 304.178 424.084 304.178 424.084M303.078 427.042C303.065 427.381 303.085 427.721 303.137 428.059C303.193 428.418 303.283 428.768 303.404 429.105L307.169 427.754C307.132 427.65 307.106 427.548 307.091 427.45C307.077 427.358 307.072 427.271 307.075 427.191L303.078 427.042ZM298.403 424.162C298.745 424.149 299.083 424.103 299.412 424.026L298.498 420.131C298.42 420.15 298.334 420.162 298.241 420.166C298.141 420.17 298.036 420.164 297.927 420.148L297.326 424.102C297.68 424.156 298.04 424.177 298.403 424.162ZM305.153 431.64C304.894 431.415 304.654 431.171 304.438 430.91L307.517 428.356C307.594 428.449 307.68 428.537 307.775 428.619L307.777 428.622C308.333 429.105 308.951 429.651 309.61 430.247L306.926 433.213C306.289 432.637 305.691 432.108 305.153 431.64ZM294.501 422.873C294.772 423.084 295.058 423.272 295.356 423.434L297.269 419.922C297.163 419.864 297.06 419.796 296.962 419.719L296.959 419.717C296.378 419.265 295.723 418.763 295.011 418.231L292.617 421.435C293.305 421.95 293.939 422.435 294.501 422.873ZM310.366 436.464C311.465 437.553 312.568 438.703 313.601 439.867L316.593 437.212C315.491 435.97 314.327 434.758 313.182 433.623L310.366 436.464ZM284.804 416.164C286.145 416.954 287.485 417.816 288.765 418.685L291.012 415.376C289.678 414.47 288.264 413.56 286.834 412.718L284.804 416.164ZM316.481 443.452C316.935 444.097 317.335 444.72 317.669 445.313L317.671 445.316C317.745 445.447 317.774 445.543 317.786 445.603C317.798 445.661 317.795 445.697 317.792 445.713L321.743 446.338C321.902 445.333 321.69 444.299 321.153 443.349M278.681 413.221C279.326 413.435 280.013 413.706 280.732 414.028L282.365 410.377C281.548 410.011 280.733 409.687 279.935 409.422L279.928 409.42C278.894 409.082 277.843 409.075 276.89 409.42L278.253 413.18C278.276 413.172 278.403 413.131 278.681 413.221ZM278.519 414.088C278.279 413.89 278.188 413.713 278.152 413.6L274.34 414.813C274.625 415.707 275.182 416.521 275.977 417.176L277.574 418.491L280.116 415.402L278.519 414.088ZM317.389 445.896C317.271 445.883 317.082 445.828 316.847 445.635L315.25 444.32L312.708 447.409L314.305 448.723C315.103 449.38 316.013 449.767 316.947 449.871L317.389 445.896ZM312.056 441.691L308.862 439.062L306.32 442.151L309.514 444.78L312.056 441.691ZM305.668 436.434L302.474 433.805L299.932 436.893L303.126 439.522L305.668 436.434ZM299.28 431.176L296.086 428.547L293.544 431.635L296.738 434.264L299.28 431.176ZM292.892 425.918L289.698 423.289L287.156 426.377L290.35 429.006L292.892 425.918ZM286.504 420.66L283.31 418.031L280.768 421.12L283.962 423.748L286.504 420.66Z" fill="white"/>
<path fill-rule="evenodd" clip-rule="evenodd" d="M146.74 366.067L148.012 367.653L146.503 368.864L144 365.743L147.12 363.241L148.351 364.775L146.74 366.067ZM151.548 359.69L148.529 362.111L151.032 365.231L154.051 362.81L151.548 359.69ZM195.632 430.123L198.134 433.243L201.255 430.741L200.024 429.207L198.413 430.498L197.141 428.912L195.632 430.123ZM243.323 397.003L246.443 394.5L243.94 391.38L242.431 392.591L243.703 394.177L242.092 395.469L243.323 397.003ZM194.811 330.121L192.309 327L189.188 329.503L190.419 331.037L192.03 329.745L193.302 331.331L194.811 330.121ZM154.568 357.268L157.07 360.389L160.089 357.967L157.587 354.847L154.568 357.268ZM160.606 352.425L163.109 355.546L166.128 353.124L163.625 350.004L160.606 352.425ZM166.645 347.582L169.147 350.703L172.167 348.281L169.664 345.161L166.645 347.582ZM172.683 342.739L175.186 345.86L178.205 343.439L175.703 340.318L172.683 342.739ZM178.722 337.897L181.225 341.017L184.244 338.596L181.741 335.475L178.722 337.897ZM184.761 333.054L187.263 336.174L190.283 333.753L187.78 330.632L184.761 333.054ZM196 331.602L192.879 334.105L195.34 337.173L198.46 334.671L196 331.602ZM200.921 337.739L197.801 340.241L200.261 343.31L203.382 340.807L200.921 337.739ZM205.842 343.875L202.722 346.378L205.183 349.446L208.303 346.943L205.842 343.875ZM210.764 350.012L207.643 352.514L210.104 355.582L213.224 353.08L210.764 350.012ZM215.685 356.148L212.565 358.65L215.025 361.719L218.146 359.216L215.685 356.148ZM220.606 362.284L217.486 364.787L219.946 367.855L223.067 365.352L220.606 362.284ZM225.528 368.421L222.407 370.923L224.868 373.991L227.988 371.489L225.528 368.421ZM230.449 374.557L227.328 377.06L229.789 380.128L232.909 377.625L230.449 374.557ZM235.37 380.693L232.25 383.196L234.71 386.264L237.831 383.762L235.37 380.693ZM240.291 386.83L237.171 389.332L239.632 392.401L242.752 389.898L240.291 386.83ZM241.914 398.132L239.411 395.012L236.392 397.433L238.895 400.554L241.914 398.132ZM235.875 402.975L233.373 399.855L230.354 402.276L232.856 405.397L235.875 402.975ZM229.837 407.818L227.334 404.698L224.315 407.119L226.818 410.24L229.837 407.818ZM223.798 412.661L221.296 409.541L218.276 411.962L220.779 415.082L223.798 412.661ZM217.76 417.504L215.257 414.383L212.238 416.805L214.74 419.925L217.76 417.504ZM211.721 422.347L209.218 419.226L206.199 421.648L208.702 424.768L211.721 422.347ZM205.682 427.19L203.18 424.069L200.16 426.491L202.663 429.611L205.682 427.19ZM194.443 428.641L197.564 426.138L195.103 423.07L191.983 425.573L194.443 428.641ZM189.522 422.505L192.642 420.002L190.182 416.934L187.061 419.436L189.522 422.505ZM184.601 416.368L187.721 413.866L185.26 410.798L182.14 413.3L184.601 416.368ZM179.679 410.232L182.8 407.729L180.339 404.661L177.219 407.164L179.679 410.232ZM174.758 404.096L177.878 401.593L175.418 398.525L172.297 401.027L174.758 404.096ZM169.837 397.959L172.957 395.457L170.497 392.388L167.376 394.891L169.837 397.959ZM164.915 391.823L168.036 389.32L165.575 386.252L162.455 388.755L164.915 391.823ZM159.994 385.686L163.115 383.184L160.654 380.116L157.534 382.618L159.994 385.686ZM155.073 379.55L158.193 377.047L155.733 373.979L152.612 376.482L155.073 379.55ZM150.152 373.414L153.272 370.911L150.811 367.843L147.691 370.345L150.152 373.414Z" fill="white"/>
<path fill-rule="evenodd" clip-rule="evenodd" d="M177.129 390.499L178.464 392.164L177.003 393.336L174.5 390.215L177.621 387.713L178.789 389.169L177.129 390.499ZM181.807 384.355L178.885 386.699L181.387 389.82L184.31 387.476L181.807 384.355ZM195.35 416.213L197.852 419.333L200.973 416.83L199.805 415.375L198.146 416.705L196.811 415.041L195.35 416.213ZM229.806 393.707L232.926 391.205L230.423 388.084L228.962 389.256L230.297 390.921L228.638 392.251L229.806 393.707ZM212.077 365.207L209.574 362.087L206.454 364.589L207.621 366.045L209.28 364.715L210.615 366.379L212.077 365.207ZM184.73 382.011L187.233 385.132L190.156 382.788L187.653 379.667L184.73 382.011ZM190.576 377.323L193.078 380.444L196.001 378.1L193.499 374.979L190.576 377.323ZM196.421 372.635L198.924 375.755L201.847 373.411L199.344 370.291L196.421 372.635ZM202.267 367.947L204.77 371.067L207.692 368.723L205.19 365.603L202.267 367.947ZM213.077 366.454L209.956 368.957L212.292 371.869L215.412 369.366L213.077 366.454ZM217.747 372.278L214.627 374.781L216.962 377.692L220.082 375.19L217.747 372.278ZM222.418 378.102L219.297 380.604L221.632 383.516L224.753 381.013L222.418 378.102ZM227.088 383.925L223.968 386.428L226.303 389.339L229.423 386.837L227.088 383.925ZM228.542 394.721L226.039 391.6L223.116 393.944L225.619 397.065L228.542 394.721ZM222.696 399.409L220.194 396.288L217.271 398.632L219.773 401.753L222.696 399.409ZM216.851 404.097L214.348 400.976L211.425 403.32L213.928 406.441L216.851 404.097ZM211.005 408.785L208.502 405.664L205.58 408.008L208.082 411.129L211.005 408.785ZM205.159 413.473L202.657 410.352L199.734 412.697L202.237 415.817L205.159 413.473ZM194.35 414.965L197.47 412.463L195.135 409.551L192.014 412.054L194.35 414.965ZM189.679 409.142L192.8 406.639L190.465 403.728L187.344 406.23L189.679 409.142ZM185.009 403.318L188.129 400.816L185.794 397.904L182.674 400.407L185.009 403.318ZM180.338 397.495L183.459 394.992L181.124 392.08L178.003 394.583L180.338 397.495Z" fill="white"/>
<path fill-rule="evenodd" clip-rule="evenodd" d="M146.881 366.242L148.012 367.653L146.503 368.864L144 365.743L147.12 363.241L148.491 364.95L146.881 366.242ZM151.548 359.69L148.529 362.111L151.032 365.231L154.051 362.81L151.548 359.69ZM157.95 383.137L160.453 386.258L163.573 383.755L162.202 382.046L160.591 383.338L159.46 381.927L157.95 383.137ZM205.641 350.017L208.761 347.515L206.259 344.394L204.749 345.605L205.881 347.016L204.27 348.308L205.641 350.017ZM194.811 330.121L192.309 327L189.188 329.503L190.559 331.212L192.17 329.92L193.302 331.331L194.811 330.121ZM154.568 357.268L157.07 360.389L160.089 357.967L157.587 354.847L154.568 357.268ZM160.606 352.425L163.109 355.546L166.128 353.124L163.625 350.004L160.606 352.425ZM166.645 347.582L169.147 350.703L172.167 348.281L169.664 345.161L166.645 347.582ZM172.683 342.739L175.186 345.86L178.205 343.439L175.703 340.318L172.683 342.739ZM178.722 337.897L181.225 341.017L184.244 338.596L181.741 335.475L178.722 337.897ZM184.761 333.054L187.263 336.174L190.283 333.753L187.78 330.632L184.761 333.054ZM196.422 332.129L193.302 334.631L196.044 338.05L199.164 335.548L196.422 332.129ZM201.906 338.967L198.786 341.47L201.528 344.889L204.648 342.386L201.906 338.967ZM204.232 351.147L201.73 348.027L198.711 350.448L201.213 353.568L204.232 351.147ZM198.194 355.99L195.691 352.869L192.672 355.291L195.175 358.411L198.194 355.99ZM192.155 360.833L189.653 357.712L186.633 360.134L189.136 363.254L192.155 360.833ZM186.117 365.676L183.614 362.555L180.595 364.977L183.097 368.097L186.117 365.676ZM180.078 370.519L177.575 367.398L174.556 369.82L177.059 372.94L180.078 370.519ZM174.039 375.361L171.537 372.241L168.518 374.662L171.02 377.783L174.039 375.361ZM168.001 380.204L165.498 377.084L162.479 379.505L164.981 382.626L168.001 380.204ZM156.339 381.129L159.46 378.627L156.718 375.208L153.597 377.71L156.339 381.129ZM150.855 374.291L153.976 371.788L151.234 368.369L148.113 370.872L150.855 374.291Z" fill="white"/>
<path fill-rule="evenodd" clip-rule="evenodd" d="M366.923 474.559L367.077 476.53L363.089 476.842L362.935 474.876C362.919 474.682 362.888 474.491 362.843 474.307L366.728 473.357C366.823 473.746 366.889 474.145 366.922 474.55L364.929 474.715L366.923 474.559ZM367.386 480.472L367.694 484.414L363.706 484.726L363.398 480.784L367.386 480.472ZM368.003 488.356L368.311 492.298L364.323 492.61L364.015 488.668L368.003 488.356ZM368.62 496.24L368.774 498.211C368.806 498.625 368.806 499.039 368.773 499.446L364.786 499.127C364.802 498.929 364.802 498.727 364.786 498.523L364.632 496.552L368.62 496.24ZM364.962 470.1C365.261 470.409 365.527 470.745 365.759 471.101L362.407 473.285C362.31 473.135 362.203 473.001 362.09 472.885C361.987 472.779 361.882 472.69 361.778 472.617L364.071 469.339C364.389 469.562 364.687 469.817 364.962 470.1ZM368.162 501.877C367.986 502.273 367.772 502.655 367.521 503.014C367.29 503.343 367.031 503.648 366.746 503.923L363.965 501.048C364.062 500.955 364.156 500.845 364.245 500.718C364.343 500.579 364.431 500.423 364.507 500.252L368.162 501.877ZM360.528 468.343C360.958 468.31 361.386 468.33 361.805 468.4L361.141 472.345C361.039 472.328 360.938 472.323 360.839 472.331L358.737 472.492L358.432 468.503L360.526 468.343C360.527 468.343 360.528 468.343 360.528 468.343ZM364.617 505.23C364.207 505.368 363.779 505.457 363.34 505.491L361.23 505.656L360.918 501.668L363.028 501.503C363.134 501.495 363.24 501.473 363.344 501.438L364.617 505.23ZM350.041 469.144L354.237 468.824L354.541 472.812L350.345 473.133L350.041 469.144ZM357.01 505.986L352.789 506.317L352.477 502.329L356.697 501.999L357.01 505.986ZM341.649 469.785L345.845 469.465L346.15 473.453L341.954 473.774L341.649 469.785ZM348.568 506.647L344.348 506.977L344.036 502.989L348.256 502.659L348.568 506.647ZM333.258 470.426L337.453 470.106L337.758 474.094L333.562 474.415L333.258 470.426ZM340.127 507.308L335.907 507.638L335.595 503.65L339.815 503.32L340.127 507.308ZM324.866 471.067L329.062 470.747L329.366 474.735L325.171 475.056L324.866 471.067ZM331.686 507.968L327.465 508.298L327.153 504.311L331.374 503.98L331.686 507.968ZM316.474 471.708L320.67 471.388L320.975 475.376L316.779 475.697L316.474 471.708ZM323.245 508.629L319.024 508.959L318.712 504.971L322.933 504.641L323.245 508.629ZM308.083 472.349L312.279 472.029L312.583 476.017L308.388 476.338L308.083 472.349ZM314.804 509.289L310.583 509.62L310.271 505.632L314.492 505.302L314.804 509.289ZM299.691 472.99L303.887 472.67L304.192 476.658L299.996 476.979L299.691 472.99ZM306.363 509.95L302.142 510.28L301.83 506.292L306.05 505.962L306.363 509.95ZM293.398 473.471L295.495 473.311L295.8 477.299L293.707 477.459C293.28 477.494 292.854 477.489 292.431 477.447L292.829 473.467C293.015 473.485 293.202 473.487 293.388 473.472L293.398 473.471ZM297.921 510.611L295.81 510.776C295.663 510.787 295.517 510.81 295.373 510.845L294.43 506.958C294.781 506.873 295.138 506.816 295.501 506.788L295.655 508.782L295.499 506.788L295.501 506.788L297.609 506.623L297.921 510.611ZM291.186 472.849C291.361 472.968 291.539 473.069 291.717 473.153L290.011 476.771C289.643 476.597 289.286 476.394 288.944 476.162C288.577 475.914 288.231 475.636 287.907 475.334L290.638 472.411C290.815 472.576 290.998 472.722 291.186 472.849ZM294.532 511.196C294.4 511.276 294.269 511.369 294.14 511.474C294.004 511.586 293.871 511.711 293.745 511.849L290.795 509.148C291.046 508.873 291.317 508.616 291.606 508.379C291.877 508.157 292.162 507.955 292.459 507.775L294.532 511.196ZM292.843 513.328C292.916 513.14 292.998 512.961 293.088 512.792L289.55 510.925C289.386 511.236 289.239 511.559 289.11 511.891L289.105 511.903L289.077 511.979L292.825 513.377L292.843 513.328ZM289.366 470.587C289.471 470.824 289.589 471.05 289.717 471.263L286.292 473.328C286.076 472.97 285.881 472.596 285.709 472.208L285.705 472.2C285.488 471.705 285.26 471.226 285.021 470.762L288.58 468.935C288.854 469.469 289.116 470.02 289.366 470.587ZM292.778 513.503L292.747 513.587L292.739 513.606C292.427 514.39 292.095 515.16 291.744 515.915L288.117 514.229C288.433 513.549 288.732 512.855 289.014 512.148L289.03 512.105L292.778 513.503ZM284.439 462.884C285.232 463.775 285.991 464.739 286.702 465.78L283.4 468.038C282.787 467.141 282.134 466.311 281.45 465.542L284.439 462.884ZM289.358 520.349C288.462 521.798 287.486 523.175 286.436 524.471L283.328 521.952C284.269 520.792 285.147 519.554 285.955 518.245L289.358 520.349ZM278.946 458.056C279.922 458.727 280.89 459.472 281.833 460.299L279.196 463.306C278.378 462.589 277.534 461.939 276.679 461.351L278.946 458.056ZM282.983 528.186C282.361 528.768 281.721 529.325 281.063 529.857C280.451 530.351 279.827 530.822 279.19 531.267L276.897 527.989C277.457 527.597 278.008 527.183 278.549 526.746C279.13 526.276 279.698 525.782 280.249 525.265L282.983 528.186ZM274.222 455.342C274.756 455.596 275.296 455.868 275.839 456.161L273.942 459.682C273.464 459.425 272.987 459.184 272.513 458.959C271.928 458.687 271.339 458.434 270.746 458.201L272.209 454.478C272.88 454.742 273.547 455.028 274.207 455.335L274.215 455.339L274.222 455.342ZM275.156 533.677C273.74 534.388 272.283 534.986 270.794 535.466L269.565 531.66C270.857 531.243 272.125 530.723 273.361 530.102L275.156 533.677ZM263.771 452.351C265.212 452.519 266.645 452.784 268.063 453.143L267.082 457.021C265.831 456.704 264.571 456.472 263.306 456.323L263.771 452.351ZM266.198 536.56C265.42 536.68 264.638 536.77 263.851 536.829L261.878 536.983L261.566 532.995L263.543 532.841L263.551 532.84C264.233 532.789 264.91 532.712 265.584 532.607L266.198 536.56ZM257.228 452.248C257.953 452.185 258.679 452.148 259.405 452.135L259.478 456.134C258.839 456.145 258.201 456.179 257.564 456.234L257.556 456.234L255.571 456.39L255.259 452.402L257.228 452.248ZM257.924 537.292L253.97 537.602L253.658 533.614L257.612 533.305L257.924 537.292ZM247.351 453.021L251.305 452.711L251.617 456.699L247.663 457.008L247.351 453.021ZM250.016 537.911L246.062 538.221L245.75 534.233L249.704 533.924L250.016 537.911ZM239.443 453.64L243.397 453.33L243.709 457.318L239.755 457.627L239.443 453.64ZM242.108 538.53L238.154 538.84L237.842 534.852L241.796 534.542L242.108 538.53ZM231.535 454.258L235.489 453.949L235.801 457.937L231.847 458.246L231.535 454.258ZM234.2 539.149L230.247 539.459L229.934 535.471L233.888 535.161L234.2 539.149ZM223.627 454.877L227.581 454.568L227.893 458.556L223.939 458.865L223.627 454.877ZM226.293 539.768L222.339 540.077L222.027 536.09L225.98 535.78L226.293 539.768ZM215.719 455.496L219.673 455.187L219.985 459.175L216.031 459.484L215.719 455.496ZM218.385 540.387L214.431 540.696L214.119 536.708L218.073 536.399L218.385 540.387ZM207.811 456.115L211.765 455.806L212.077 459.793L208.123 460.103L207.811 456.115ZM210.477 541.006L206.523 541.315L206.211 537.327L210.165 537.018L210.477 541.006ZM199.903 456.734L203.857 456.424L204.169 460.412L200.215 460.722L199.903 456.734ZM202.569 541.625L198.615 541.934L198.303 537.946L202.257 537.637L202.569 541.625ZM191.995 457.353L195.949 457.043L196.261 461.031L192.308 461.341L191.995 457.353ZM194.661 542.243L190.707 542.553L190.395 538.565L194.349 538.256L194.661 542.243ZM184.087 457.972L188.041 457.662L188.354 461.65L184.4 461.959L184.087 457.972ZM186.753 542.862L182.799 543.172L182.487 539.184L186.441 538.875L186.753 542.862ZM176.18 458.591L180.134 458.281L180.446 462.269L176.492 462.578L176.18 458.591ZM178.845 543.481L174.891 543.791L174.579 539.803L178.533 539.493L178.845 543.481ZM168.272 459.209L172.226 458.9L172.538 462.888L168.584 463.197L168.272 459.209ZM170.937 544.1L166.983 544.41L166.671 540.422L170.625 540.112L170.937 544.1ZM160.364 459.828L164.318 459.519L164.63 463.507L160.676 463.816L160.364 459.828ZM163.029 544.719L159.075 545.028L158.763 541.041L162.717 540.731L163.029 544.719ZM152.456 460.447L156.41 460.138L156.722 464.126L152.768 464.435L152.456 460.447ZM155.121 545.338L151.167 545.647L150.855 541.659L154.809 541.35L155.121 545.338ZM144.548 461.066L148.502 460.757L148.814 464.744L144.86 465.054L144.548 461.066ZM147.213 545.957L143.259 546.266L142.947 542.278L146.901 541.969L147.213 545.957ZM136.64 461.685L140.594 461.375L140.906 465.363L136.952 465.673L136.64 461.685ZM139.305 546.576L135.351 546.885L135.039 542.897L138.993 542.588L139.305 546.576ZM128.732 462.304L132.686 461.994L132.998 465.982L129.044 466.292L128.732 462.304ZM131.397 547.194L127.443 547.504L127.131 543.516L131.085 543.207L131.397 547.194ZM120.824 462.923L124.778 462.613L125.09 466.601L121.136 466.91L120.824 462.923ZM123.489 547.813L119.535 548.123L119.223 544.135L123.177 543.826L123.489 547.813ZM112.916 463.542L116.87 463.232L117.182 467.22L113.228 467.529L112.916 463.542ZM115.581 548.432L111.628 548.742L111.315 544.754L115.269 544.444L115.581 548.432ZM105.008 464.16L108.962 463.851L109.274 467.839L105.32 468.148L105.008 464.16ZM99.0772 464.625L101.054 464.47L101.366 468.458L99.3893 468.612C98.9914 468.643 98.5999 468.724 98.2193 468.852L96.9467 465.059C97.6331 464.829 98.347 464.682 99.0772 464.625ZM107.674 549.051L105.697 549.206C104.966 549.263 104.238 549.228 103.524 549.108L104.191 545.164C104.587 545.231 104.987 545.249 105.384 545.218L107.361 545.063L107.674 549.051ZM92.0025 468.851C92.4049 468.277 92.8534 467.751 93.3424 467.277L96.1235 470.152C95.8228 470.443 95.5389 470.775 95.2781 471.147C94.9938 471.553 94.7439 471.997 94.5325 472.472L90.8776 470.847C91.1889 470.146 91.5642 469.477 92.0025 468.851ZM99.6189 547.477C99.0622 547.086 98.5372 546.635 98.0504 546.131C97.5201 545.581 97.0452 544.978 96.6287 544.335L99.9864 542.161C100.269 542.598 100.585 542.997 100.929 543.354C101.244 543.681 101.577 543.964 101.919 544.205L99.6189 547.477ZM89.7876 477.406C89.7293 476.661 89.7304 475.917 89.7891 475.184L93.7763 475.504C93.7345 476.026 93.7335 476.559 93.7754 477.094L93.9237 478.989L89.9359 479.301L89.7876 477.406ZM94.8787 540.219C94.7068 539.505 94.59 538.77 94.5316 538.025L94.3833 536.13L98.3712 535.818L98.5194 537.713C98.5613 538.248 98.6451 538.774 98.7678 539.284L94.8787 540.219ZM90.5289 486.878L90.2324 483.089L94.2202 482.777L94.5167 486.566L90.5289 486.878ZM91.1219 494.455L90.8254 490.667L94.8132 490.355L95.1097 494.143L91.1219 494.455ZM91.7149 502.033L91.4184 498.244L95.4062 497.932L95.7027 501.721L91.7149 502.033ZM92.3079 509.61L92.0114 505.821L95.9992 505.509L96.2957 509.298L92.3079 509.61ZM92.9009 517.187L92.6044 513.399L96.5922 513.086L96.8887 516.875L92.9009 517.187ZM93.4939 524.764L93.1974 520.976L97.1852 520.664L97.4817 524.452L93.4939 524.764ZM94.0868 532.342L93.7903 528.553L97.7782 528.241L98.0747 532.03L94.0868 532.342Z" fill="white"/>
</svg>
