<svg width="571" height="571" viewBox="0 0 571 571" fill="none" xmlns="http://www.w3.org/2000/svg">
<rect x="1.5" y="1.5" width="568" height="568" fill="white" stroke="#1E2165" stroke-width="3"/>
<path d="M117.496 291H450.504L568 571H0L117.496 291Z" fill="#1E2165"/>
<path d="M410.5 290.5C410.5 371.512 349.608 435.5 276.5 435.5C203.392 435.5 142.5 371.512 142.5 290.5C142.5 209.488 203.392 145.5 276.5 145.5C349.608 145.5 410.5 209.488 410.5 290.5Z" stroke="#1E2165" stroke-width="27"/>
<path fill-rule="evenodd" clip-rule="evenodd" d="M239.84 433.141L242.893 435.725L241.593 437.262L240.102 436L238.819 437.517L237.256 436.194L239.84 433.141ZM169.584 516.16L167 519.213L170.053 521.797L171.354 520.26L169.864 518.999L171.147 517.483L169.584 516.16ZM188.954 537.792L192.008 540.376L194.592 537.323L193.029 536L191.745 537.517L190.255 536.255L188.954 537.792ZM262.264 457.357L264.848 454.304L261.794 451.72L260.493 453.257L261.984 454.518L260.701 456.034L262.264 457.357ZM244.529 437.109L241.945 440.162L245.071 442.807L247.655 439.754L244.529 437.109ZM250.781 442.399L248.197 445.453L251.323 448.098L253.907 445.045L250.781 442.399ZM257.033 447.69L254.449 450.744L257.575 453.389L260.159 450.336L257.033 447.69ZM260.945 458.915L257.892 456.331L255.291 459.405L258.344 461.989L260.945 458.915ZM255.743 465.063L252.689 462.479L250.088 465.553L253.141 468.137L255.743 465.063ZM250.54 471.211L247.486 468.627L244.885 471.701L247.938 474.285L250.54 471.211ZM245.337 477.359L242.283 474.775L239.682 477.849L242.735 480.433L245.337 477.359ZM240.134 483.507L237.081 480.923L234.479 483.997L237.533 486.581L240.134 483.507ZM234.931 489.655L231.878 487.071L229.276 490.145L232.33 492.729L234.931 489.655ZM229.728 495.803L226.675 493.219L224.073 496.293L227.127 498.877L229.728 495.803ZM224.525 501.951L221.472 499.367L218.871 502.441L221.924 505.025L224.525 501.951ZM219.323 508.099L216.269 505.515L213.668 508.589L216.721 511.173L219.323 508.099ZM214.12 514.247L211.066 511.663L208.465 514.737L211.518 517.321L214.12 514.247ZM208.917 520.395L205.863 517.811L203.262 520.885L206.315 523.469L208.917 520.395ZM203.714 526.543L200.661 523.959L198.059 527.033L201.113 529.617L203.714 526.543ZM198.511 532.691L195.458 530.107L192.856 533.181L195.91 535.765L198.511 532.691ZM187.319 536.408L189.903 533.355L186.777 530.71L184.193 533.763L187.319 536.408ZM181.067 531.118L183.651 528.064L180.525 525.419L177.941 528.472L181.067 531.118ZM174.815 525.827L177.399 522.774L174.273 520.128L171.689 523.182L174.815 525.827ZM170.902 514.602L173.955 517.186L176.557 514.112L173.504 511.528L170.902 514.602ZM176.105 508.454L179.158 511.038L181.76 507.964L178.706 505.38L176.105 508.454ZM181.308 502.306L184.361 504.89L186.963 501.816L183.909 499.232L181.308 502.306ZM186.511 496.158L189.564 498.742L192.165 495.668L189.112 493.084L186.511 496.158ZM191.713 490.01L194.767 492.594L197.368 489.52L194.315 486.936L191.713 490.01ZM196.916 483.862L199.97 486.446L202.571 483.372L199.518 480.788L196.916 483.862ZM202.119 477.714L205.173 480.298L207.774 477.224L204.721 474.64L202.119 477.714ZM207.322 471.566L210.375 474.15L212.977 471.076L209.923 468.492L207.322 471.566ZM212.525 465.418L215.578 468.002L218.18 464.928L215.126 462.344L212.525 465.418ZM217.728 459.27L220.781 461.854L223.383 458.78L220.329 456.196L217.728 459.27ZM222.931 453.122L225.984 455.706L228.585 452.632L225.532 450.048L222.931 453.122ZM228.133 446.974L231.187 449.558L233.788 446.484L230.735 443.9L228.133 446.974ZM233.336 440.826L236.39 443.41L238.991 440.336L235.938 437.752L233.336 440.826Z" fill="white"/>
<path fill-rule="evenodd" clip-rule="evenodd" d="M168.918 467.939L169.82 464.042L167.825 463.581L167.377 465.517L165.475 465.077L165.021 467.038L168.918 467.939ZM162.934 466.555L163.835 462.658L159.845 461.735L158.944 465.633L162.934 466.555ZM154.954 464.71L155.856 460.813L151.866 459.89L150.964 463.787L154.954 464.71ZM146.975 462.864L147.876 458.967L143.886 458.044L142.985 461.942L146.975 462.864ZM140.897 461.459L141.351 459.498L139.449 459.059L139.897 457.122L137.902 456.66L137 460.558L140.897 461.459ZM138.36 454.677L142.258 455.578L143.164 451.657L139.267 450.756L138.36 454.677ZM140.174 446.835L144.071 447.737L144.978 443.816L141.081 442.915L140.174 446.835ZM141.987 438.994L145.885 439.895L146.791 435.975L142.894 435.073L141.987 438.994ZM143.801 431.153L147.698 432.054L148.605 428.133L144.708 427.232L143.801 431.153ZM145.614 423.311L149.512 424.213L150.418 420.292L146.521 419.391L145.614 423.311ZM147.428 415.47L151.325 416.371L152.232 412.451L148.335 411.55L147.428 415.47ZM149.241 407.629L153.139 408.53L154.045 404.61L150.148 403.708L149.241 407.629ZM151.055 399.788L154.952 400.689L155.859 396.768L151.962 395.867L151.055 399.788ZM152.868 391.946L156.765 392.848L157.672 388.927L153.775 388.026L152.868 391.946ZM154.682 384.105L158.579 385.006L159.486 381.086L155.589 380.184L154.682 384.105ZM156.495 376.264L160.392 377.165L161.299 373.244L157.402 372.343L156.495 376.264ZM158.309 368.422L162.206 369.324L163.113 365.403L159.216 364.502L158.309 368.422ZM160.122 360.581L164.019 361.483L164.473 359.522C164.593 359.003 164.736 358.491 164.9 357.988L161.098 356.746C160.897 357.361 160.722 357.986 160.576 358.621L160.122 360.581ZM162.627 353.171L166.151 355.063C166.654 354.127 167.239 353.237 167.898 352.404L164.762 349.921C163.956 350.939 163.242 352.027 162.627 353.171ZM167.436 347.097L170.086 350.094C170.483 349.743 170.896 349.409 171.325 349.093L173.048 347.821L170.674 344.602L168.95 345.874C168.426 346.261 167.921 346.669 167.436 347.097ZM174.121 342.059L176.496 345.278L179.943 342.735L177.568 339.516L174.121 342.059ZM179.48 338.106L180.17 339.44L182.099 338.442L183.39 340.192L184.601 339.299L182.739 335.702L179.48 338.106ZM185.689 341.399L182.137 343.238L184.103 347.037L187.655 345.198L185.689 341.399ZM189.622 348.996L186.069 350.835L187.053 352.734C187.297 353.205 187.519 353.685 187.719 354.173L191.419 352.654C191.175 352.058 190.903 351.471 190.605 350.895L189.622 348.996ZM192.569 356.351L188.66 357.198C188.884 358.233 189.016 359.285 189.055 360.342L193.053 360.194C193.005 358.901 192.843 357.615 192.569 356.351ZM192.049 367.928L192.502 365.967C192.648 365.335 192.766 364.699 192.855 364.061L188.894 363.506C188.821 364.028 188.725 364.548 188.605 365.065L188.151 367.026L192.049 367.928ZM191.141 371.85L187.244 370.948L186.337 374.87L190.234 375.772L191.141 371.85ZM189.327 379.694L185.43 378.792L184.523 382.715L188.42 383.616L189.327 379.694ZM187.513 387.538L183.616 386.637L182.709 390.559L186.606 391.46L187.513 387.538ZM185.699 395.382L181.802 394.481L180.895 398.403L184.792 399.304L185.699 395.382ZM183.885 403.226L179.988 402.325L179.081 406.247L182.978 407.148L183.885 403.226ZM182.071 411.07L178.174 410.169L177.267 414.091L181.164 414.992L182.071 411.07ZM180.257 418.914L176.36 418.013L175.452 421.935L179.35 422.836L180.257 418.914ZM178.443 426.758L174.545 425.857L173.638 429.779L177.535 430.68L178.443 426.758ZM176.628 434.602L172.731 433.701L171.824 437.623L175.721 438.524L176.628 434.602ZM174.814 442.446L170.917 441.545L170.01 445.467L173.907 446.368L174.814 442.446ZM173 450.29L169.103 449.389L168.196 453.311L172.093 454.212L173 450.29ZM171.186 458.134L167.289 457.233L166.382 461.155L170.279 462.056L171.186 458.134Z" fill="white"/>
<path fill-rule="evenodd" clip-rule="evenodd" d="M117.41 404L117.312 407.999L120.037 408.099L120.11 406.109L121.359 406.14L121.408 404.146L117.41 404ZM117.26 410.125L121.258 410.223L121.158 414.307L117.159 414.208L117.26 410.125ZM117.059 418.292L121.058 418.39L120.957 422.473L116.958 422.375L117.059 418.292ZM116.858 426.458L120.857 426.557L120.756 430.64L116.758 430.542L116.858 426.458ZM116.657 434.625L120.656 434.723L120.555 438.807L116.557 438.708L116.657 434.625ZM116.456 442.792L120.455 442.89L120.355 446.973L116.356 446.875L116.456 442.792ZM116.255 450.958L120.254 451.057L120.154 455.14L116.155 455.042L116.255 450.958ZM116.054 459.125L120.053 459.223L119.953 463.307L115.954 463.208L116.054 459.125ZM115.854 467.292L119.852 467.39L119.752 471.473L115.753 471.375L115.854 467.292ZM115.653 475.458L119.652 475.557L119.551 479.64L115.552 479.542L115.653 475.458ZM115.452 483.625L119.451 483.723L119.35 487.807L115.351 487.708L115.452 483.625ZM115.251 491.792L119.25 491.89L119.149 495.973L115.151 495.875L115.251 491.792ZM110.875 502L109.5 502L109.438 504.079L109.5 504.081L109.5 506L110.875 506L110.875 504.122L113.436 504.199L113.498 502.12L110.875 502.041L110.875 502ZM109.313 508.237L113.311 508.357L113.186 512.516L109.188 512.396L109.313 508.237ZM109.063 516.554L113.061 516.674L112.936 520.833L108.938 520.713L109.063 516.554ZM108.813 524.871L112.811 524.991L112.686 529.15L108.688 529.029L108.813 524.871ZM108.563 533.188L112.561 533.308L112.436 537.467L108.438 537.346L108.563 533.188ZM108.313 541.505L112.311 541.625L112.186 545.783L108.188 545.663L108.313 541.505ZM108.063 549.822L109.226 549.857L110.058 548.471L111.433 549.296L111.063 549.912L112.061 549.942L111.998 552.021L109.837 551.956L109.375 552.726L108 551.901L108.063 549.822ZM112.125 554.375L114.183 550.945L116.933 552.595L114.875 556.025L112.125 554.375ZM117.625 557.675L117.997 557.055L116.718 555.214L119.094 553.565L119.629 554.335L119.683 554.245L121.058 555.07L120.632 555.779L121.376 556.85L119 558.5L117.625 557.675ZM126.127 553.551L124.907 551.793L124.505 551.781L124.521 551.238L123.846 550.265L124.565 549.765L124.567 549.702L124.653 549.704L126.221 548.615L127.027 549.776L128.565 549.822L128.503 551.901L126.127 553.551ZM128.69 545.663L124.692 545.543L124.817 541.385L128.815 541.505L128.69 545.663ZM128.94 537.346L124.941 537.226L125.066 533.068L129.064 533.188L128.94 537.346ZM129.189 529.03L125.191 528.91L125.316 524.751L129.314 524.871L129.189 529.03ZM129.439 520.713L125.44 520.593L125.565 516.434L129.563 516.554L129.439 520.713ZM129.688 512.396L125.69 512.276L125.815 508.117L129.813 508.237L129.688 512.396ZM130 502L124.5 502L124.664 498L124.5 498L124.5 499.963L120.587 499.803L120.333 506L125.875 506L125.875 502.056L125.996 502.061L125.939 503.959L128.625 504.04L128.625 506L129.88 506L130 502ZM124.75 495.9L120.753 495.736L120.92 491.67L124.917 491.834L124.75 495.9ZM125.084 487.767L121.087 487.603L121.254 483.537L125.251 483.701L125.084 487.767ZM125.417 479.634L121.421 479.471L121.587 475.404L125.584 475.568L125.417 479.634ZM125.751 471.502L121.754 471.338L121.921 467.271L125.918 467.435L125.751 471.502ZM126.084 463.369L122.088 463.205L122.255 459.138L126.251 459.302L126.084 463.369ZM126.418 455.236L122.421 455.072L122.588 451.006L126.585 451.169L126.418 455.236ZM126.752 447.103L122.755 446.939L122.922 442.873L126.918 443.037L126.752 447.103ZM127.085 438.97L123.089 438.806L123.255 434.74L127.252 434.904L127.085 438.97ZM127.419 430.837L123.422 430.673L123.589 426.607L127.586 426.771L127.419 430.837ZM127.752 422.705L123.756 422.541L123.923 418.474L127.919 418.638L127.752 422.705ZM128.086 414.572L124.089 414.408L124.256 410.341L128.253 410.505L128.086 414.572ZM128.503 404.406L124.506 404.259L124.423 406.275L125.656 406.325L125.584 408.301L128.339 408.402L128.503 404.406ZM113.625 502L113.625 506L118.903 506L119.049 500.057L115.05 499.958L115 502L113.625 502Z" fill="white"/>
<path fill-rule="evenodd" clip-rule="evenodd" d="M205.248 524.538L202.664 527.591L201.119 526.283L202.593 524.542L201.085 523.266L202.195 521.954L205.248 524.538ZM197.521 517.999L200.612 520.615L198.028 523.668L194.937 521.052L197.521 517.999ZM194.512 537.225L191.928 540.278L188.874 537.694L189.984 536.383L191.492 537.659L192.966 535.917L194.512 537.225ZM170.255 521.938L167.202 519.354L169.786 516.301L171.331 517.608L169.857 519.35L171.365 520.626L170.255 521.938ZM177.939 506.667L180.523 503.614L183.576 506.198L182.466 507.509L180.958 506.233L179.484 507.975L177.939 506.667ZM194.431 515.384L191.847 518.437L188.756 515.821L191.34 512.768L194.431 515.384ZM188.249 510.152L185.665 513.206L182.575 510.59L185.159 507.537L188.249 510.152ZM177.192 507.549L180.246 510.133L178.026 512.756L174.972 510.172L177.192 507.549ZM172.752 512.796L175.806 515.38L173.586 518.003L170.532 515.419L172.752 512.796ZM171.838 523.277L174.422 520.224L177.513 522.84L174.929 525.893L171.838 523.277ZM178.019 528.508L180.603 525.455L183.694 528.071L181.11 531.124L178.019 528.508ZM184.201 533.739L186.785 530.686L189.876 533.302L187.292 536.355L184.201 533.739ZM195.258 536.343L192.204 533.759L194.424 531.136L197.478 533.72L195.258 536.343ZM199.698 531.096L196.644 528.512L198.865 525.889L201.918 528.473L199.698 531.096Z" fill="white"/>
<path fill-rule="evenodd" clip-rule="evenodd" d="M245.256 433.676L248.656 431.314L249.507 432.034L247.878 433.958L249.174 435.825L248.416 436.351L245.256 433.676ZM250.256 437.908L252.84 434.855L256.174 437.676L253.59 440.729L250.256 437.908ZM256.924 443.551L259.508 440.497L262.841 443.318L260.258 446.372L256.924 443.551ZM262.205 448.02L263.548 446.432L264.935 447.605L266.175 446.14L267.842 447.55L265.258 450.604L262.205 448.02ZM269.289 445.841L266.235 443.257L268.923 440.081L271.976 442.665L269.289 445.841ZM274.663 439.49L271.61 436.906L274.297 433.731L277.35 436.315L274.663 439.49ZM280.037 433.139L276.984 430.555L278.328 428.968C278.497 428.767 278.625 428.565 278.721 428.367L282.326 430.099C282.083 430.605 281.769 431.093 281.381 431.552L280.037 433.139ZM282.955 426.722L278.967 427.031C278.93 426.554 278.769 426.087 278.504 425.689L281.833 423.472C282.477 424.439 282.865 425.563 282.955 426.722ZM279.255 421.203L277.486 424.79C277.288 424.692 277.063 424.612 276.806 424.559C276.342 424.464 275.877 424.384 275.412 424.32L275.955 420.357C276.509 420.433 277.063 420.528 277.615 420.642C278.204 420.764 278.752 420.954 279.255 421.203ZM272.596 420.126L272.592 424.126C271.647 424.126 270.705 424.189 269.772 424.315L269.237 420.351C270.348 420.201 271.47 420.125 272.596 420.126ZM265.939 421.025L267.003 424.881C266.095 425.131 265.204 425.443 264.335 425.815L262.761 422.138C263.796 421.695 264.858 421.323 265.939 421.025ZM259.763 423.668L261.818 427.1C261.415 427.342 261.018 427.597 260.63 427.867L258.993 429.004L256.711 425.719L258.348 424.582C258.81 424.261 259.282 423.956 259.763 423.668ZM253.438 427.993L255.72 431.278L252.447 433.551L250.165 430.266L253.438 427.993Z" fill="white"/>
<path fill-rule="evenodd" clip-rule="evenodd" d="M429.834 452.448L427.535 455.722C427.043 455.376 426.542 455.039 426.033 454.709C425.523 454.38 425.01 454.062 424.492 453.755L426.532 450.314C427.093 450.647 427.651 450.992 428.204 451.35C428.757 451.707 429.3 452.073 429.834 452.448ZM423.079 448.445L421.314 452.035C420.226 451.5 419.125 451.012 418.014 450.57L419.491 446.853C420.7 447.333 421.897 447.864 423.079 448.445ZM415.787 445.547L414.608 449.37C413.453 449.013 412.29 448.705 411.12 448.443L411.994 444.539C413.266 444.824 414.531 445.16 415.787 445.547ZM408.131 443.834C406.831 443.65 405.528 443.517 404.225 443.436L403.976 447.428C405.175 447.503 406.373 447.625 407.568 447.794L408.131 443.834ZM400.3 443.345L400.365 447.345C399.159 447.365 397.955 447.431 396.757 447.545L396.379 443.563C397.681 443.44 398.989 443.367 400.3 443.345ZM392.488 444.086L393.175 448.027C391.988 448.234 390.809 448.487 389.642 448.786L388.649 444.911C389.917 444.586 391.198 444.311 392.488 444.086ZM384.887 446.033L386.178 449.819C385.039 450.207 383.914 450.641 382.807 451.119L381.223 447.446C382.426 446.927 383.649 446.455 384.887 446.033ZM377.681 449.141L379.549 452.678C378.486 453.239 377.444 453.842 376.424 454.488L374.284 451.109C375.393 450.406 376.527 449.75 377.681 449.141ZM371.052 453.339L373.452 456.539C372.494 457.258 371.56 458.017 370.653 458.817L368.008 455.817C368.994 454.947 370.009 454.121 371.052 453.339ZM365.167 458.529L368.042 461.31C367.21 462.17 366.407 463.067 365.635 464.002L362.551 461.455C363.39 460.439 364.263 459.463 365.167 458.529ZM360.171 464.578L363.444 466.877C363.098 467.369 362.761 467.869 362.431 468.379C362.102 468.889 361.784 469.402 361.478 469.919L358.037 467.88C358.369 467.318 358.714 466.761 359.072 466.208C359.429 465.655 359.795 465.112 360.171 464.578ZM356.168 471.333L359.757 473.098C359.222 474.186 358.734 475.287 358.292 476.398L354.575 474.921C355.055 473.712 355.586 472.515 356.168 471.333ZM353.27 478.624L357.092 479.804C356.735 480.959 356.427 482.122 356.165 483.291L352.262 482.418C352.546 481.146 352.882 479.881 353.27 478.624ZM351.556 486.281L355.517 486.844C355.347 488.039 355.225 489.237 355.15 490.436L351.158 490.187C351.239 488.884 351.372 487.581 351.556 486.281ZM351.068 494.112L355.067 494.047C355.087 495.253 355.154 496.457 355.267 497.655L351.285 498.033C351.162 496.731 351.089 495.423 351.068 494.112ZM351.808 501.924L355.749 501.237C355.956 502.424 356.209 503.603 356.508 504.77L352.633 505.763C352.308 504.494 352.033 503.214 351.808 501.924ZM353.755 509.525L357.541 508.233C357.93 509.373 358.363 510.497 358.841 511.605L355.168 513.189C354.649 511.985 354.178 510.763 353.755 509.525ZM356.863 516.73L360.4 514.863C360.961 515.925 361.565 516.968 362.21 517.988L358.831 520.128C358.129 519.019 357.472 517.885 356.863 516.73ZM361.061 523.36L364.261 520.96C364.98 521.918 365.74 522.852 366.539 523.759L363.539 526.404C362.669 525.418 361.843 524.402 361.061 523.36ZM366.251 529.245L369.033 526.37C369.892 527.202 370.789 528.005 371.724 528.777L369.177 531.861C368.161 531.022 367.185 530.149 366.251 529.245ZM372.3 534.241C372.834 534.616 373.377 534.983 373.93 535.34C374.483 535.697 375.041 536.042 375.602 536.375L377.642 532.934C377.124 532.628 376.611 532.31 376.101 531.98C375.592 531.651 375.091 531.314 374.599 530.968L372.3 534.241ZM379.055 538.244L380.82 534.655C381.908 535.19 383.009 535.678 384.12 536.12L382.643 539.837C381.434 539.356 380.237 538.826 379.055 538.244ZM386.347 541.142L387.526 537.32C388.681 537.676 389.844 537.985 391.013 538.247L390.14 542.15C388.868 541.866 387.603 541.53 386.347 541.142ZM394.003 542.856L394.566 538.895C395.761 539.065 396.959 539.187 398.158 539.262L397.909 543.254C396.606 543.173 395.303 543.04 394.003 542.856ZM401.834 543.344L401.769 539.345C402.975 539.325 404.179 539.258 405.377 539.144L405.755 543.127C404.453 543.25 403.145 543.323 401.834 543.344ZM409.646 542.604L408.959 538.663C410.146 538.456 411.325 538.203 412.492 537.904L413.485 541.778C412.217 542.103 410.936 542.379 409.646 542.604ZM417.247 540.657L415.956 536.871C417.095 536.482 418.22 536.049 419.327 535.571L420.911 539.244C419.707 539.763 418.485 540.234 417.247 540.657ZM424.453 537.549L422.585 534.012C423.648 533.451 424.69 532.847 425.71 532.201L427.85 535.581C426.741 536.283 425.607 536.939 424.453 537.549ZM431.082 533.35L428.682 530.151C429.64 529.432 430.574 528.672 431.481 527.873L434.126 530.873C433.14 531.742 432.125 532.568 431.082 533.35ZM436.967 528.161L434.092 525.379C434.924 524.52 435.727 523.622 436.499 522.688L439.583 525.235C438.744 526.251 437.871 527.226 436.967 528.161ZM441.963 522.112L438.69 519.813C439.036 519.321 439.373 518.82 439.703 518.311C440.032 517.801 440.35 517.287 440.656 516.77L444.097 518.81C443.765 519.371 443.42 519.929 443.062 520.481C442.705 521.034 442.339 521.578 441.963 522.112ZM445.966 515.357L442.377 513.591C442.912 512.504 443.4 511.403 443.842 510.291L447.559 511.769C447.079 512.978 446.548 514.174 445.966 515.357ZM448.864 508.065L445.042 506.886C445.399 505.731 445.707 504.568 445.969 503.398L449.872 504.272C449.588 505.544 449.252 506.809 448.864 508.065ZM450.578 500.408L446.617 499.846C446.787 498.651 446.909 497.453 446.984 496.254L450.976 496.503C450.895 497.806 450.762 499.109 450.578 500.408ZM451.066 492.578L447.067 492.643C447.047 491.436 446.98 490.233 446.867 489.035L450.849 488.657C450.972 489.959 451.045 491.267 451.066 492.578ZM450.326 484.766L446.385 485.453C446.178 484.266 445.925 483.087 445.626 481.919L449.501 480.927C449.825 482.195 450.101 483.476 450.326 484.766ZM448.379 477.164L444.593 478.456C444.204 477.317 443.771 476.192 443.293 475.085L446.966 473.501C447.485 474.704 447.956 475.927 448.379 477.164ZM445.271 469.959L441.734 471.827C441.173 470.764 440.569 469.722 439.924 468.702L443.303 466.562C444.005 467.671 444.662 468.804 445.271 469.959ZM441.073 463.33L437.873 465.73C437.154 464.771 436.394 463.838 435.595 462.931L438.595 460.285C439.465 461.271 440.291 462.287 441.073 463.33ZM435.883 457.445L433.101 460.319C432.242 459.488 431.345 458.685 430.41 457.913L432.957 454.828C433.973 455.667 434.948 456.541 435.883 457.445Z" fill="white"/>
<path fill-rule="evenodd" clip-rule="evenodd" d="M383.899 363.235L381.6 366.509C381.108 366.163 380.607 365.826 380.098 365.496C379.588 365.167 379.074 364.849 378.557 364.543L380.597 361.102C381.158 361.434 381.716 361.779 382.269 362.137C382.822 362.494 383.365 362.86 383.899 363.235ZM377.144 359.233L375.379 362.822C374.291 362.287 373.19 361.799 372.079 361.357L373.556 357.64C374.765 358.12 375.962 358.651 377.144 359.233ZM369.852 356.335L368.673 360.157C367.518 359.8 366.355 359.492 365.185 359.23L366.059 355.327C367.331 355.611 368.596 355.947 369.852 356.335ZM362.196 354.621C360.896 354.437 359.593 354.304 358.29 354.223L358.041 358.215C359.24 358.29 360.438 358.412 361.633 358.581L362.196 354.621ZM354.365 354.133L354.43 358.132C353.224 358.152 352.02 358.219 350.822 358.332L350.444 354.35C351.746 354.227 353.054 354.154 354.365 354.133ZM346.553 354.873L347.24 358.814C346.053 359.021 344.874 359.274 343.706 359.573L342.714 355.698C343.982 355.373 345.263 355.098 346.553 354.873ZM338.951 356.82L340.243 360.606C339.104 360.995 337.979 361.428 336.872 361.906L335.288 358.233C336.491 357.714 337.714 357.243 338.951 356.82ZM331.746 359.928L333.614 363.465C332.551 364.026 331.509 364.629 330.489 365.275L328.349 361.896C329.458 361.194 330.592 360.537 331.746 359.928ZM325.117 364.126L327.517 367.326C326.558 368.045 325.625 368.805 324.718 369.604L322.073 366.604C323.059 365.734 324.074 364.908 325.117 364.126ZM319.232 369.316L322.106 372.098C321.275 372.957 320.472 373.854 319.7 374.789L316.616 372.242C317.455 371.226 318.328 370.25 319.232 369.316ZM314.235 375.365L317.509 377.664C317.163 378.156 316.826 378.657 316.496 379.166C316.167 379.676 315.849 380.189 315.543 380.706L312.102 378.667C312.434 378.106 312.779 377.548 313.137 376.995C313.494 376.442 313.86 375.899 314.235 375.365ZM310.233 382.12L313.822 383.885C313.287 384.973 312.799 386.074 312.357 387.185L308.64 385.708C309.12 384.499 309.651 383.302 310.233 382.12ZM307.335 389.412L311.157 390.591C310.8 391.746 310.492 392.909 310.23 394.078L306.327 393.205C306.611 391.933 306.947 390.668 307.335 389.412ZM305.621 397.068L309.581 397.631C309.412 398.826 309.29 400.024 309.215 401.223L305.223 400.974C305.304 399.671 305.437 398.368 305.621 397.068ZM305.133 404.899L309.132 404.834C309.152 406.04 309.219 407.244 309.332 408.442L305.35 408.82C305.227 407.518 305.154 406.21 305.133 404.899ZM305.873 412.711L309.814 412.024C310.021 413.211 310.274 414.39 310.573 415.557L306.698 416.55C306.373 415.282 306.098 414.001 305.873 412.711ZM307.82 420.312L311.606 419.021C311.995 420.16 312.428 421.285 312.906 422.392L309.233 423.976C308.714 422.772 308.243 421.55 307.82 420.312ZM310.928 427.517L314.465 425.65C315.026 426.713 315.629 427.755 316.275 428.775L312.896 430.915C312.194 429.806 311.537 428.672 310.928 427.517ZM315.126 434.147L318.326 431.747C319.045 432.705 319.805 433.639 320.604 434.546L317.604 437.191C316.734 436.205 315.908 435.19 315.126 434.147ZM320.316 440.032L323.098 437.157C323.957 437.989 324.854 438.792 325.789 439.564L323.242 442.648C322.226 441.809 321.25 440.936 320.316 440.032ZM326.365 445.028C326.899 445.403 327.442 445.77 327.995 446.127C328.548 446.484 329.106 446.829 329.667 447.162L331.707 443.721C331.189 443.415 330.676 443.097 330.166 442.768C329.657 442.438 329.156 442.101 328.664 441.755L326.365 445.028ZM333.12 449.031L334.885 445.442C335.973 445.977 337.074 446.465 338.185 446.907L336.708 450.624C335.499 450.143 334.302 449.613 333.12 449.031ZM340.412 451.929L341.591 448.107C342.746 448.463 343.909 448.772 345.078 449.034L344.205 452.937C342.933 452.653 341.668 452.317 340.412 451.929ZM348.068 453.643L348.631 449.682C349.826 449.852 351.024 449.974 352.223 450.049L351.974 454.041C350.671 453.96 349.368 453.827 348.068 453.643ZM355.899 454.131L355.834 450.132C357.04 450.112 358.244 450.045 359.442 449.932L359.82 453.914C358.518 454.037 357.21 454.11 355.899 454.131ZM363.711 453.391L363.024 449.45C364.211 449.243 365.39 448.99 366.557 448.691L367.55 452.566C366.282 452.89 365.001 453.166 363.711 453.391ZM371.312 451.444L370.021 447.658C371.16 447.269 372.285 446.836 373.392 446.358L374.976 450.031C373.772 450.55 372.55 451.021 371.312 451.444ZM378.517 448.336L376.65 444.799C377.713 444.238 378.755 443.634 379.775 442.989L381.915 446.368C380.806 447.07 379.672 447.726 378.517 448.336ZM385.147 444.138L382.747 440.938C383.705 440.219 384.639 439.459 385.546 438.66L388.191 441.66C387.205 442.529 386.19 443.356 385.147 444.138ZM391.032 438.948L388.157 436.166C388.989 435.307 389.792 434.41 390.564 433.475L393.648 436.022C392.809 437.038 391.936 438.013 391.032 438.948ZM396.028 432.899L392.755 430.6C393.101 430.108 393.438 429.607 393.768 429.098C394.097 428.588 394.415 428.074 394.721 427.557L398.162 429.597C397.829 430.158 397.484 430.716 397.127 431.269C396.77 431.822 396.403 432.365 396.028 432.899ZM400.031 426.144L396.442 424.379C396.977 423.291 397.465 422.19 397.907 421.079L401.624 422.556C401.143 423.765 400.613 424.961 400.031 426.144ZM402.929 418.852L399.107 417.673C399.463 416.518 399.772 415.355 400.034 414.185L403.937 415.059C403.653 416.331 403.317 417.596 402.929 418.852ZM404.643 411.196L400.682 410.633C400.852 409.438 400.974 408.24 401.049 407.041L405.041 407.29C404.96 408.593 404.827 409.896 404.643 411.196ZM405.131 403.365L401.132 403.43C401.112 402.224 401.045 401.02 400.932 399.822L404.914 399.444C405.037 400.746 405.11 402.054 405.131 403.365ZM404.391 395.553L400.45 396.24C400.243 395.053 399.99 393.874 399.691 392.706L403.566 391.714C403.89 392.982 404.166 394.263 404.391 395.553ZM402.444 387.951L398.658 389.243C398.269 388.104 397.836 386.979 397.358 385.872L401.031 384.288C401.55 385.491 402.021 386.714 402.444 387.951ZM399.336 380.746L395.799 382.614C395.238 381.551 394.634 380.509 393.989 379.489L397.368 377.349C398.07 378.458 398.726 379.591 399.336 380.746ZM395.138 374.117L391.938 376.517C391.219 375.558 390.459 374.625 389.66 373.718L392.66 371.073C393.529 372.059 394.356 373.074 395.138 374.117ZM389.948 368.232L387.166 371.106C386.307 370.275 385.41 369.472 384.475 368.7L387.022 365.616C388.038 366.455 389.013 367.328 389.948 368.232Z" fill="white"/>
<path fill-rule="evenodd" clip-rule="evenodd" d="M422.86 463.443L420.507 466.678C420.01 466.316 419.5 465.966 418.977 465.628C418.454 465.29 417.925 464.969 417.391 464.664L419.373 461.19C419.971 461.531 420.563 461.89 421.148 462.269C421.733 462.647 422.304 463.038 422.86 463.443ZM415.659 459.338L414.077 463.012C412.935 462.52 411.775 462.097 410.604 461.743L411.761 457.914C413.076 458.312 414.377 458.786 415.659 459.338ZM407.728 456.94C406.361 456.69 404.986 456.519 403.611 456.426L403.339 460.417C404.566 460.5 405.792 460.652 407.01 460.875L407.728 456.94ZM399.461 456.377L399.638 460.373C398.403 460.428 397.173 460.551 395.954 460.743L395.333 456.792C396.698 456.577 398.077 456.438 399.461 456.377ZM391.276 457.664L392.333 461.521C391.143 461.848 389.97 462.24 388.822 462.698L387.341 458.982C388.628 458.469 389.942 458.029 391.276 457.664ZM383.578 460.731L385.465 464.258C384.381 464.838 383.327 465.481 382.307 466.184L380.035 462.892C381.179 462.103 382.362 461.382 383.578 460.731ZM376.759 465.437L379.388 468.452C378.465 469.257 377.581 470.118 376.742 471.036L373.79 468.337C374.732 467.307 375.724 466.34 376.759 465.437ZM371.165 471.551L374.4 473.905C374.038 474.402 373.688 474.912 373.35 475.435C373.012 475.958 372.691 476.487 372.386 477.02L368.912 475.038C369.253 474.441 369.612 473.849 369.99 473.264C370.368 472.679 370.76 472.108 371.165 471.551ZM367.059 478.753L370.733 480.334C370.241 481.477 369.819 482.637 369.465 483.808L365.636 482.65C366.034 481.336 366.508 480.034 367.059 478.753ZM364.662 486.683L368.597 487.402C368.374 488.62 368.222 489.846 368.138 491.072L364.148 490.801C364.241 489.425 364.412 488.051 364.662 486.683ZM364.099 494.95L368.095 494.774C368.149 496.009 368.273 497.239 368.465 498.458L364.513 499.079C364.299 497.713 364.16 496.335 364.099 494.95ZM365.385 503.136L369.243 502.079C369.569 503.269 369.962 504.442 370.42 505.59L366.704 507.071C366.191 505.783 365.751 504.47 365.385 503.136ZM368.453 510.834L371.98 508.947C372.56 510.031 373.203 511.085 373.906 512.105L370.614 514.377C369.824 513.233 369.104 512.049 368.453 510.834ZM373.159 517.653L376.174 515.024C376.978 515.947 377.84 516.83 378.758 517.67L376.058 520.622C375.029 519.68 374.062 518.688 373.159 517.653ZM379.273 523.247C379.83 523.652 380.401 524.043 380.986 524.421C381.571 524.8 382.162 525.159 382.76 525.5L384.742 522.026C384.209 521.721 383.68 521.4 383.157 521.062C382.633 520.724 382.123 520.374 381.626 520.012L379.273 523.247ZM386.474 527.352L388.056 523.678C389.199 524.17 390.359 524.593 391.53 524.947L390.372 528.776C389.058 528.378 387.756 527.904 386.474 527.352ZM394.405 529.75L395.124 525.815C396.342 526.038 397.568 526.19 398.794 526.273L398.523 530.264C397.147 530.171 395.772 530 394.405 529.75ZM402.672 530.313L402.495 526.317C403.731 526.262 404.961 526.139 406.18 525.947L406.801 529.898C405.435 530.113 404.057 530.252 402.672 530.313ZM410.858 529.026L409.801 525.169C410.991 524.842 412.163 524.45 413.312 523.992L414.793 527.708C413.505 528.221 412.191 528.661 410.858 529.026ZM418.556 525.959L416.668 522.432C417.752 521.852 418.807 521.209 419.827 520.506L422.098 523.798C420.954 524.587 419.771 525.308 418.556 525.959ZM425.375 521.253L422.746 518.238C423.668 517.433 424.552 516.572 425.392 515.654L428.343 518.353C427.402 519.383 426.41 520.35 425.375 521.253ZM430.969 515.138L427.734 512.785C428.096 512.288 428.446 511.778 428.784 511.255C429.122 510.732 429.443 510.203 429.747 509.67L433.222 511.652C432.881 512.249 432.521 512.841 432.143 513.426C431.765 514.011 431.373 514.582 430.969 515.138ZM435.074 507.937L431.4 506.356C431.892 505.213 432.315 504.053 432.669 502.882L436.498 504.04C436.1 505.354 435.626 506.656 435.074 507.937ZM437.472 500.007L433.537 499.288C433.76 498.07 433.912 496.844 433.995 495.618L437.986 495.889C437.893 497.265 437.722 498.639 437.472 500.007ZM438.035 491.74L434.039 491.916C433.984 490.681 433.86 489.451 433.669 488.232L437.62 487.611C437.835 488.977 437.974 490.355 438.035 491.74ZM436.748 483.554L432.89 484.611C432.564 483.421 432.172 482.248 431.714 481.1L435.43 479.619C435.943 480.907 436.383 482.22 436.748 483.554ZM433.68 475.856L430.154 477.743C429.574 476.659 428.931 475.605 428.228 474.585L431.52 472.313C432.309 473.457 433.03 474.641 433.68 475.856ZM428.974 469.037L425.959 471.666C425.155 470.743 424.294 469.86 423.376 469.02L426.075 466.068C427.105 467.01 428.072 468.002 428.974 469.037Z" fill="white"/>
<path fill-rule="evenodd" clip-rule="evenodd" d="M382 497.277L383.881 500.808L385.69 499.844L384.515 497.637L386.236 496.72L385.53 495.397L382 497.277ZM391.046 492.458L387.428 494.386L389.309 497.916L392.927 495.988L391.046 492.458ZM385.761 504.338L387.642 507.868L391.172 505.987L390.467 504.664L388.746 505.58L387.571 503.374L385.761 504.338ZM420.297 490.471L423.828 488.591L421.947 485.06L420.138 486.024L421.313 488.231L419.592 489.148L420.297 490.471ZM420.066 481.53L418.185 478L414.655 479.881L415.36 481.204L417.081 480.288L418.257 482.494L420.066 481.53ZM394.665 490.53L396.546 494.061L400.164 492.133L398.283 488.602L394.665 490.53ZM401.902 486.675L403.783 490.205L407.401 488.277L405.52 484.747L401.902 486.675ZM409.139 482.819L411.02 486.35L414.638 484.422L412.758 480.892L409.139 482.819ZM420.301 481.971L416.771 483.852L418.181 486.5L421.712 484.619L420.301 481.971ZM418.4 491.482L416.519 487.952L412.9 489.88L414.781 493.41L418.4 491.482ZM411.163 495.338L409.282 491.808L405.663 493.735L407.544 497.266L411.163 495.338ZM403.926 499.193L402.045 495.663L398.426 497.591L400.307 501.121L403.926 499.193ZM396.689 503.049L394.808 499.519L391.189 501.446L393.07 504.977L396.689 503.049ZM385.526 503.897L389.057 502.016L387.646 499.368L384.116 501.249L385.526 503.897Z" fill="white"/>
<path fill-rule="evenodd" clip-rule="evenodd" d="M123 360.5L121.515 362.834L122.75 362.273L124.235 363.218L123 360.5ZM126.875 366H125.5L124.875 364.625L122.25 365.818L120.375 364.625L119.5 366H115L116.125 369.375V367.292L118.375 366.542V369.875L116.5 370.5L117 372L116.5 373.5L120.295 374.765L121.216 372L120.55 370H121.696L122.412 368.874L122.924 370H125.877L125.377 372L125.994 374.47L129.875 373.5L129.5 372L129.875 370.5L126.875 369.75V366.562L129.625 367.25V370H130L131 366H126.877L126.875 366.008V366ZM130.625 376.5L129.347 376.819L127.745 375.675L127.12 376.55L127.977 377.162L126.744 377.47L127.119 378.97L129.63 378.343L130.375 378.875L131 378L130.625 376.5ZM129.125 380.625L125.87 378.3L123.845 381.135L125.547 384.539L129.125 382.75L128.5 381.5L129.125 380.625ZM130.375 385.25L129.214 385.83L127.255 385.096L126.88 386.096L127.911 386.482L126.797 387.039L127.422 388.289L129.696 387.152L130.625 387.5L131 386.5L130.375 385.25ZM129.875 389.5L126.13 388.096L125.281 390.358L126.044 392.899L129.875 391.75L129.5 390.5L129.875 389.5ZM130.625 394.25L126.794 395.399L127 396.087V397.375H131V395.5L130.625 394.25ZM131 399H129V401.125H127V403H131V399ZM125 403V399H121V403H125ZM119 403V401.125H117V399H115V403H119ZM115 397.375H119V396.27L119.214 395.736L119 395.65V395.5H118.625L115.5 394.25L115 395.5V397.375ZM116.5 391.75L120.214 393.236L121.381 390.318L120.078 387.711L116.5 389.5L117 390.5L116.5 391.75ZM115.5 387.5L116.389 387.056L118.714 387.986L119.214 386.736L118 386.25L119.078 385.711L118.578 384.711L116.611 385.694L115.5 385.25L115 386.5L115.5 387.5ZM116.5 382.75L120.214 384.236L121.431 381.192L119.973 378.64L116.5 380.625L117 381.5L116.5 382.75ZM115.5 378.875L116.283 378.428L118.795 379.265L119.295 377.765L118.125 377.375L118.973 376.89L118.473 376.015L116.842 376.947L115.5 376.5L115 378L115.5 378.875Z" fill="white"/>
</svg>
