<svg width="571" height="571" viewBox="0 0 571 571" fill="none" xmlns="http://www.w3.org/2000/svg">
<rect x="1.5" y="1.5" width="568" height="568" fill="white" stroke="#1E2165" stroke-width="3"/>
<path d="M21 15H550V219.5C550 365.579 431.579 484 285.5 484C139.421 484 21 365.579 21 219.5V15Z" fill="#FF5858"/>
<path d="M242.685 373.437L239.37 331.718C239.057 327.786 241.086 324.037 244.549 322.147L270.972 307.734C275.374 305.333 280.873 306.562 283.833 310.609L301.832 335.22C304.156 338.398 304.399 342.643 302.454 346.066L281.906 382.208C281.49 382.94 280.411 382.862 280.105 382.078L275.459 370.192C275.155 369.414 274.089 369.329 273.666 370.049L257.154 398.124L256.242 366.142C256.218 365.304 255.235 364.865 254.595 365.408L244.329 374.121C243.707 374.648 242.749 374.25 242.685 373.437Z" fill="white"/>
<ellipse cx="193" cy="154.5" rx="15" ry="30.5" fill="#1E2165"/>
<ellipse cx="376" cy="154.5" rx="22" ry="30.5" fill="#1E2165"/>
<path d="M208.798 238.067C236.886 207.729 275.464 223.758 291.242 235.564C283.175 281.826 260.184 302.083 205.871 309.934C151.559 317.785 81.4637 309.031 74.7838 236.889C68.1038 164.747 150.612 146.197 175.057 174.916C194.614 197.892 176.216 217.959 164.573 225.121C212.822 175.401 115.005 160.437 119.183 211.834C121.014 234.356 173.689 275.99 208.798 238.067Z" fill="white"/>
<path d="M370.357 263.516C351.924 226.509 310.397 231.054 291.937 237.952C286.682 284.617 303.056 310.517 352.975 333.311C402.895 356.105 472.626 367.396 499.305 300.037C525.984 232.677 452.01 191.693 420.481 212.388C395.257 228.944 407.276 253.372 416.439 263.516C384.101 202.243 482.182 215.363 463.733 263.516C455.648 284.617 393.398 309.775 370.357 263.516Z" fill="white"/>
<path d="M134.826 79.584L214.96 107.694C224.853 111.165 228.908 122.966 223.236 131.784C216.537 142.201 201.107 141.575 195.274 130.649L185.363 112.087L134.826 79.584Z" fill="white"/>
<path d="M429.931 102.813L363.57 49.8245C355.377 43.2825 343.223 46.111 338.761 55.5984C333.49 66.8058 342.211 79.5491 354.566 78.6931L375.558 77.2387L429.931 102.813Z" fill="white"/>
</svg>
