<svg width="571" height="571" viewBox="0 0 571 571" fill="none" xmlns="http://www.w3.org/2000/svg">
<rect x="1.5" y="1.5" width="568" height="568" fill="white" stroke="#1E2165" stroke-width="3"/>
<path d="M21 15H550V219.5C550 365.579 431.579 484 285.5 484C139.421 484 21 365.579 21 219.5V15Z" fill="#FF5858"/>
<ellipse cx="198" cy="154.5" rx="10" ry="30.5" fill="black"/>
<ellipse cx="3" cy="10.5" rx="3" ry="10.5" transform="matrix(-1 0 0 1 201 144)" fill="#FF0000"/>
<ellipse cx="376" cy="154.5" rx="22" ry="30.5" fill="black"/>
<ellipse cx="376" cy="154.5" rx="8" ry="10.5" fill="#FF0000"/>
<rect x="148" y="124" width="78" height="14" fill="black"/>
<rect x="348" y="124" width="78" height="14" fill="black"/>
<path d="M226 334L216.474 298H235.526L226 334Z" fill="white"/>
<path d="M354 331L344.474 295H363.526L354 331Z" fill="white"/>
<path d="M220.713 235H355.457L376 310H204L220.713 235Z" fill="black"/>
<path d="M289.5 352L263.086 316H315.914L289.5 352Z" fill="black"/>
</svg>
