<svg width="324" height="72" viewBox="0 0 324 72" fill="none" xmlns="http://www.w3.org/2000/svg">
<rect width="324" height="72" fill="white"/>
<rect width="324" height="72" stroke="#1E2165"/>
<path d="M27.972 29.288C29.796 29.288 31.236 29.42 32.292 29.684C33.372 29.948 34.152 30.416 34.632 31.088C35.112 31.76 35.352 32.72 35.352 33.968C35.352 35.216 35.052 36.164 34.452 36.812C33.876 37.436 32.916 37.808 31.572 37.928V38.036C33.204 38.156 34.344 38.612 34.992 39.404C35.64 40.172 35.964 41.264 35.964 42.68C35.964 43.88 35.724 44.816 35.244 45.488C34.788 46.136 34.044 46.592 33.012 46.856C32.004 47.12 30.648 47.252 28.944 47.252C27.72 47.252 26.652 47.24 25.74 47.216C24.828 47.216 23.988 47.192 23.22 47.144C22.476 47.12 21.684 47.084 20.844 47.036L21.276 44.768C21.756 44.792 22.644 44.816 23.94 44.84C25.236 44.84 26.76 44.84 28.512 44.84C29.592 44.84 30.456 44.768 31.104 44.624C31.752 44.456 32.208 44.168 32.472 43.76C32.76 43.352 32.904 42.776 32.904 42.032C32.904 40.904 32.568 40.136 31.896 39.728C31.224 39.296 30.036 39.08 28.332 39.08H21.24V36.884H28.332C29.34 36.884 30.144 36.812 30.744 36.668C31.344 36.524 31.776 36.26 32.04 35.876C32.304 35.468 32.436 34.916 32.436 34.22C32.436 33.548 32.292 33.032 32.004 32.672C31.716 32.312 31.236 32.06 30.564 31.916C29.892 31.772 28.992 31.7 27.864 31.7C26.832 31.676 25.896 31.664 25.056 31.664C24.24 31.664 23.52 31.676 22.896 31.7C22.272 31.7 21.732 31.724 21.276 31.772L20.844 29.504C21.588 29.432 22.296 29.384 22.968 29.36C23.64 29.336 24.372 29.324 25.164 29.324C25.956 29.3 26.892 29.288 27.972 29.288ZM23.724 29.504V47.036H20.844V29.504H23.724ZM47.9056 36.272C49.6576 36.272 51.0256 36.44 52.0096 36.776C52.9936 37.112 53.6896 37.688 54.0976 38.504C54.5296 39.296 54.7456 40.376 54.7456 41.744C54.7456 43.16 54.5296 44.276 54.0976 45.092C53.6656 45.884 52.9816 46.436 52.0456 46.748C51.1096 47.06 49.8856 47.216 48.3736 47.216C47.2216 47.216 46.2256 47.204 45.3856 47.18C44.5456 47.18 43.7776 47.156 43.0816 47.108C42.3856 47.084 41.6536 47.048 40.8856 47L41.2816 44.696C41.7136 44.72 42.5176 44.744 43.6936 44.768C44.8936 44.792 46.2976 44.804 47.9056 44.804C48.8416 44.804 49.5736 44.72 50.1016 44.552C50.6536 44.384 51.0496 44.072 51.2896 43.616C51.5296 43.16 51.6496 42.5 51.6496 41.636C51.6496 40.484 51.3856 39.68 50.8576 39.224C50.3536 38.768 49.3696 38.54 47.9056 38.54H41.2456V36.272H47.9056ZM43.7656 29.468V47H40.7776V29.468H43.7656ZM61.0456 29.468V47H57.9496V29.468H61.0456ZM80.9069 20.468L81.6269 22.844C80.9069 23.3 80.2349 23.648 79.6109 23.888C78.9869 24.128 78.3749 24.308 77.7749 24.428C77.1989 24.548 76.5989 24.668 75.9749 24.788C75.3749 24.884 74.7389 25.028 74.0669 25.22C72.8429 25.556 71.8829 26.036 71.1869 26.66C70.5149 27.284 70.0229 27.98 69.7109 28.748C69.3989 29.516 69.1829 30.32 69.0629 31.16C68.9669 31.712 68.8949 32.216 68.8469 32.672C68.7989 33.128 68.7629 33.476 68.7389 33.716H68.8109C69.0029 33.284 69.2429 32.852 69.5309 32.42C69.8429 31.964 70.2389 31.556 70.7189 31.196C71.2229 30.836 71.8589 30.548 72.6269 30.332C73.3949 30.116 74.3549 30.008 75.5069 30.008C77.2349 30.008 78.6029 30.296 79.6109 30.872C80.6429 31.448 81.3749 32.36 81.8069 33.608C82.2629 34.832 82.4909 36.452 82.4909 38.468C82.4909 40.316 82.2749 41.912 81.8429 43.256C81.4109 44.6 80.6069 45.632 79.4309 46.352C78.2789 47.072 76.6229 47.432 74.4629 47.432C72.9509 47.432 71.7029 47.252 70.7189 46.892C69.7349 46.532 68.9549 46.028 68.3789 45.38C67.8029 44.732 67.3709 43.952 67.0829 43.04C66.8189 42.128 66.6389 41.12 66.5429 40.016C66.4709 38.888 66.4349 37.688 66.4349 36.416C66.4349 34.52 66.5069 32.828 66.6509 31.34C66.8189 29.852 67.1189 28.556 67.5509 27.452C68.0069 26.348 68.6789 25.424 69.5669 24.68C70.4549 23.912 71.6189 23.312 73.0589 22.88C73.7549 22.664 74.4149 22.496 75.0389 22.376C75.6869 22.256 76.3229 22.136 76.9469 22.016C77.5709 21.896 78.2069 21.728 78.8549 21.512C79.5029 21.272 80.1869 20.924 80.9069 20.468ZM74.7149 32.6C73.2749 32.6 72.1829 32.828 71.4389 33.284C70.7189 33.74 70.2269 34.4 69.9629 35.264C69.7229 36.128 69.6029 37.196 69.6029 38.468C69.6029 40.076 69.7589 41.348 70.0709 42.284C70.3829 43.22 70.8989 43.88 71.6189 44.264C72.3389 44.648 73.2989 44.84 74.4989 44.84C75.6749 44.84 76.6109 44.648 77.3069 44.264C78.0029 43.88 78.5069 43.232 78.8189 42.32C79.1309 41.384 79.2869 40.1 79.2869 38.468C79.2869 36.956 79.1429 35.78 78.8549 34.94C78.5909 34.076 78.1229 33.476 77.4509 33.14C76.8029 32.78 75.8909 32.6 74.7149 32.6ZM97.4388 29.036C99.5988 29.036 101.147 29.828 102.083 31.412C103.019 32.972 103.487 35.276 103.487 38.324C103.487 40.58 103.247 42.38 102.767 43.724C102.287 45.044 101.555 45.992 100.571 46.568C99.5868 47.144 98.3508 47.432 96.8628 47.432C95.7108 47.432 94.5708 47.276 93.4428 46.964C92.3148 46.652 91.2348 46.172 90.2028 45.524L90.3828 43.688C91.5108 44 92.4948 44.264 93.3348 44.48C94.1988 44.672 95.1108 44.768 96.0708 44.768C97.1028 44.768 97.9188 44.588 98.5188 44.228C99.1428 43.868 99.5988 43.22 99.8868 42.284C100.175 41.348 100.319 40.028 100.319 38.324C100.319 36.668 100.187 35.36 99.9228 34.4C99.6828 33.44 99.2748 32.756 98.6988 32.348C98.1468 31.916 97.4028 31.7 96.4668 31.7C95.5068 31.7 94.5588 31.928 93.6228 32.384C92.6868 32.84 91.5948 33.536 90.3468 34.472L90.0228 32.42C90.6708 31.724 91.4028 31.124 92.2188 30.62C93.0348 30.116 93.8868 29.732 94.7748 29.468C95.6868 29.18 96.5748 29.036 97.4388 29.036ZM89.9148 29.468L90.2748 33.104L90.4548 33.572V44.804L90.3108 45.236C90.3828 45.908 90.4308 46.556 90.4548 47.18C90.4788 47.804 90.4788 48.464 90.4548 49.16V54.236H87.4308V29.468H89.9148ZM116.699 29.036C117.995 29.036 119.087 29.216 119.975 29.576C120.863 29.912 121.535 30.488 121.991 31.304C122.447 32.12 122.675 33.236 122.675 34.652V47H120.263L119.795 43.184L119.615 42.788V34.652C119.591 33.572 119.339 32.804 118.859 32.348C118.379 31.868 117.443 31.628 116.051 31.628C115.115 31.628 113.951 31.676 112.559 31.772C111.191 31.868 109.835 31.976 108.491 32.096L108.203 29.828C109.019 29.684 109.919 29.552 110.903 29.432C111.887 29.312 112.883 29.216 113.891 29.144C114.899 29.072 115.835 29.036 116.699 29.036ZM121.235 36.2L121.199 38.504L112.847 38.54C112.007 38.564 111.407 38.792 111.047 39.224C110.711 39.632 110.543 40.208 110.543 40.952V42.068C110.543 42.98 110.759 43.652 111.191 44.084C111.647 44.492 112.343 44.696 113.279 44.696C113.951 44.696 114.707 44.576 115.547 44.336C116.411 44.072 117.275 43.676 118.139 43.148C119.003 42.62 119.795 41.948 120.515 41.132V43.4C120.275 43.736 119.903 44.132 119.399 44.588C118.919 45.02 118.331 45.452 117.635 45.884C116.963 46.292 116.207 46.64 115.367 46.928C114.527 47.192 113.627 47.324 112.667 47.324C111.635 47.324 110.723 47.144 109.931 46.784C109.139 46.4 108.527 45.848 108.095 45.128C107.663 44.384 107.447 43.484 107.447 42.428V40.52C107.447 39.152 107.867 38.096 108.707 37.352C109.571 36.584 110.771 36.2 112.307 36.2H121.235ZM135.77 29.468V47H132.71V29.468H135.77ZM142.106 29.468V31.988H126.338V29.468H142.106ZM153.023 36.272C154.823 36.272 156.227 36.44 157.235 36.776C158.267 37.112 158.999 37.688 159.431 38.504C159.863 39.296 160.079 40.376 160.079 41.744C160.079 43.16 159.851 44.276 159.395 45.092C158.963 45.884 158.255 46.436 157.271 46.748C156.311 47.06 155.051 47.216 153.491 47.216C152.339 47.216 151.343 47.204 150.503 47.18C149.663 47.18 148.895 47.156 148.199 47.108C147.503 47.084 146.771 47.048 146.003 47L146.399 44.696C146.831 44.72 147.635 44.744 148.811 44.768C150.011 44.792 151.415 44.804 153.023 44.804C153.983 44.804 154.751 44.72 155.327 44.552C155.903 44.384 156.311 44.072 156.551 43.616C156.815 43.16 156.947 42.5 156.947 41.636C156.947 40.868 156.827 40.256 156.587 39.8C156.371 39.344 155.975 39.02 155.399 38.828C154.847 38.636 154.055 38.54 153.023 38.54H146.363V36.272H153.023ZM148.883 29.468V47H145.895V29.468H148.883ZM179.961 29.036C180.489 29.036 181.077 29.06 181.725 29.108C182.397 29.156 183.069 29.24 183.741 29.36C184.413 29.48 185.037 29.648 185.613 29.864L185.217 31.844C184.425 31.772 183.585 31.724 182.697 31.7C181.833 31.652 181.089 31.628 180.465 31.628C179.097 31.628 177.993 31.82 177.153 32.204C176.337 32.588 175.749 33.26 175.389 34.22C175.029 35.18 174.849 36.512 174.849 38.216C174.849 39.92 175.029 41.264 175.389 42.248C175.749 43.208 176.337 43.88 177.153 44.264C177.993 44.648 179.097 44.84 180.465 44.84C180.825 44.84 181.293 44.828 181.869 44.804C182.469 44.78 183.093 44.744 183.741 44.696C184.413 44.648 185.049 44.576 185.649 44.48L185.937 46.532C185.073 46.844 184.113 47.072 183.057 47.216C182.025 47.36 180.993 47.432 179.961 47.432C177.945 47.432 176.325 47.132 175.101 46.532C173.877 45.932 172.989 44.96 172.437 43.616C171.909 42.272 171.645 40.472 171.645 38.216C171.645 35.96 171.909 34.16 172.437 32.816C172.989 31.472 173.877 30.512 175.101 29.936C176.325 29.336 177.945 29.036 179.961 29.036ZM197.716 29.468V47H194.656V29.468H197.716ZM204.052 29.468V31.988H188.284V29.468H204.052ZM216.156 29.036C217.452 29.036 218.544 29.216 219.432 29.576C220.32 29.912 220.992 30.488 221.448 31.304C221.904 32.12 222.132 33.236 222.132 34.652V47H219.72L219.252 43.184L219.072 42.788V34.652C219.048 33.572 218.796 32.804 218.316 32.348C217.836 31.868 216.9 31.628 215.508 31.628C214.572 31.628 213.408 31.676 212.016 31.772C210.648 31.868 209.292 31.976 207.948 32.096L207.66 29.828C208.476 29.684 209.376 29.552 210.36 29.432C211.344 29.312 212.34 29.216 213.348 29.144C214.356 29.072 215.292 29.036 216.156 29.036ZM220.692 36.2L220.656 38.504L212.304 38.54C211.464 38.564 210.864 38.792 210.504 39.224C210.168 39.632 210 40.208 210 40.952V42.068C210 42.98 210.216 43.652 210.648 44.084C211.104 44.492 211.8 44.696 212.736 44.696C213.408 44.696 214.164 44.576 215.004 44.336C215.868 44.072 216.732 43.676 217.596 43.148C218.46 42.62 219.252 41.948 219.972 41.132V43.4C219.732 43.736 219.36 44.132 218.856 44.588C218.376 45.02 217.788 45.452 217.092 45.884C216.42 46.292 215.664 46.64 214.824 46.928C213.984 47.192 213.084 47.324 212.124 47.324C211.092 47.324 210.18 47.144 209.388 46.784C208.596 46.4 207.984 45.848 207.552 45.128C207.12 44.384 206.904 43.484 206.904 42.428V40.52C206.904 39.152 207.324 38.096 208.164 37.352C209.028 36.584 210.228 36.2 211.764 36.2H220.692ZM237.747 29.036C239.907 29.036 241.455 29.828 242.391 31.412C243.327 32.972 243.795 35.276 243.795 38.324C243.795 40.58 243.555 42.38 243.075 43.724C242.595 45.044 241.863 45.992 240.879 46.568C239.895 47.144 238.659 47.432 237.171 47.432C236.019 47.432 234.879 47.276 233.751 46.964C232.623 46.652 231.543 46.172 230.511 45.524L230.691 43.688C231.819 44 232.803 44.264 233.643 44.48C234.507 44.672 235.419 44.768 236.379 44.768C237.411 44.768 238.227 44.588 238.827 44.228C239.451 43.868 239.907 43.22 240.195 42.284C240.483 41.348 240.627 40.028 240.627 38.324C240.627 36.668 240.495 35.36 240.231 34.4C239.991 33.44 239.583 32.756 239.007 32.348C238.455 31.916 237.711 31.7 236.775 31.7C235.815 31.7 234.867 31.928 233.931 32.384C232.995 32.84 231.903 33.536 230.655 34.472L230.331 32.42C230.979 31.724 231.711 31.124 232.527 30.62C233.343 30.116 234.195 29.732 235.083 29.468C235.995 29.18 236.883 29.036 237.747 29.036ZM230.223 29.468L230.583 33.104L230.763 33.572V44.804L230.619 45.236C230.691 45.908 230.739 46.556 230.763 47.18C230.787 47.804 230.787 48.464 230.763 49.16V54.236H227.739V29.468H230.223ZM264.1 29.468V47H261.328V35.372C261.328 34.988 261.34 34.616 261.364 34.256C261.388 33.872 261.412 33.464 261.436 33.032H261.364C261.22 33.368 261.028 33.728 260.788 34.112C260.572 34.472 260.356 34.796 260.14 35.084L251.212 47H248.692V29.468H251.464V41.096C251.464 41.48 251.452 41.864 251.428 42.248C251.428 42.608 251.404 43.004 251.356 43.436H251.428C251.62 43.076 251.824 42.716 252.04 42.356C252.256 41.996 252.472 41.684 252.688 41.42L261.616 29.468H264.1ZM284.545 29.468C284.161 30.5 283.789 31.448 283.429 32.312C283.093 33.152 282.745 33.896 282.385 34.544C282.049 35.192 281.665 35.744 281.233 36.2C280.825 36.656 280.345 37.028 279.793 37.316C279.241 37.58 278.593 37.748 277.849 37.82V37.928C278.641 38 279.325 38.168 279.901 38.432C280.477 38.696 280.981 39.068 281.413 39.548C281.869 40.004 282.277 40.58 282.637 41.276C283.021 41.972 283.405 42.8 283.789 43.76C284.173 44.696 284.593 45.776 285.049 47H281.845C281.413 45.872 281.017 44.876 280.657 44.012C280.297 43.124 279.937 42.368 279.577 41.744C279.241 41.12 278.869 40.616 278.461 40.232C278.053 39.824 277.573 39.536 277.021 39.368C276.493 39.176 275.869 39.08 275.149 39.08V36.704C276.013 36.704 276.745 36.548 277.345 36.236C277.945 35.9 278.461 35.42 278.893 34.796C279.349 34.172 279.769 33.416 280.153 32.528C280.537 31.64 280.945 30.62 281.377 29.468H284.545ZM272.881 29.468V34.688C272.881 35.216 272.845 35.744 272.773 36.272C272.701 36.8 272.593 37.316 272.449 37.82C272.593 38.324 272.701 38.828 272.773 39.332C272.845 39.836 272.881 40.316 272.881 40.772V47H269.821V29.468H272.881ZM276.301 36.704V39.08H271.981V36.704H276.301ZM297.437 29.036C298.733 29.036 299.825 29.216 300.713 29.576C301.601 29.912 302.273 30.488 302.729 31.304C303.185 32.12 303.413 33.236 303.413 34.652V47H301.001L300.533 43.184L300.353 42.788V34.652C300.329 33.572 300.077 32.804 299.597 32.348C299.117 31.868 298.181 31.628 296.789 31.628C295.853 31.628 294.689 31.676 293.297 31.772C291.929 31.868 290.573 31.976 289.229 32.096L288.941 29.828C289.757 29.684 290.657 29.552 291.641 29.432C292.625 29.312 293.621 29.216 294.629 29.144C295.637 29.072 296.573 29.036 297.437 29.036ZM301.973 36.2L301.937 38.504L293.585 38.54C292.745 38.564 292.145 38.792 291.785 39.224C291.449 39.632 291.281 40.208 291.281 40.952V42.068C291.281 42.98 291.497 43.652 291.929 44.084C292.385 44.492 293.081 44.696 294.017 44.696C294.689 44.696 295.445 44.576 296.285 44.336C297.149 44.072 298.013 43.676 298.877 43.148C299.741 42.62 300.533 41.948 301.253 41.132V43.4C301.013 43.736 300.641 44.132 300.137 44.588C299.657 45.02 299.069 45.452 298.373 45.884C297.701 46.292 296.945 46.64 296.105 46.928C295.265 47.192 294.365 47.324 293.405 47.324C292.373 47.324 291.461 47.144 290.669 46.784C289.877 46.4 289.265 45.848 288.833 45.128C288.401 44.384 288.185 43.484 288.185 42.428V40.52C288.185 39.152 288.605 38.096 289.445 37.352C290.309 36.584 291.509 36.2 293.045 36.2H301.973Z" fill="#1E2165"/>
</svg>
