<svg width="571" height="571" viewBox="0 0 571 571" fill="none" xmlns="http://www.w3.org/2000/svg">
<rect x="1.5" y="1.5" width="568" height="568" fill="#FF5858" stroke="#1E2165" stroke-width="3"/>
<rect x="75.3267" y="92" width="422.673" height="119.546" rx="59.7728" fill="#A60000"/>
<rect x="495.673" y="438.523" width="422.673" height="85.3897" rx="42.6948" transform="rotate(-180 495.673 438.523)" fill="#A60000"/>
<path d="M222.681 211.546H283.949V260.009C283.949 276.928 270.234 290.643 253.315 290.643V290.643C236.396 290.643 222.681 276.928 222.681 260.009V211.546Z" fill="white"/>
<path d="M348.319 353.134H287.051V325.343C287.051 308.425 300.766 294.709 317.685 294.709V294.709C334.604 294.709 348.319 308.425 348.319 325.343V353.134Z" fill="white"/>
<path d="M287.051 211.546H348.32V260.009C348.32 276.928 334.604 290.643 317.685 290.643V290.643C300.767 290.643 287.051 276.928 287.051 260.009V211.546Z" fill="white"/>
<path d="M283.949 353.134H222.68V325.343C222.68 308.425 236.396 294.709 253.315 294.709V294.709C270.233 294.709 283.949 308.425 283.949 325.343V353.134Z" fill="white"/>
<path d="M351.421 211.546H397.954V250.299C397.954 263.149 387.537 273.565 374.688 273.565V273.565C361.838 273.565 351.421 263.149 351.421 250.299V211.546Z" fill="white"/>
<path d="M219.929 352.891H173.396V314.138C173.396 301.288 183.813 290.871 196.663 290.871V290.871C209.512 290.871 219.929 301.288 219.929 314.138V352.891Z" fill="white"/>
<path d="M404.934 211.546H451.467V250.299C451.467 263.149 441.05 273.565 428.201 273.565V273.565C415.351 273.565 404.934 263.149 404.934 250.299V211.546Z" fill="white"/>
<path d="M166.417 352.663H119.884L119.884 313.91C119.884 301.06 130.301 290.643 143.151 290.643V290.643C156 290.643 166.417 301.06 166.417 313.91V352.663Z" fill="white"/>
<path d="M173 212H220V247.5C220 260.479 209.479 271 196.5 271V271C183.521 271 173 260.479 173 247.5V212Z" fill="white"/>
<path d="M398 353H352V317C352 304.297 362.297 294 375 294V294C387.703 294 398 304.297 398 317V353Z" fill="white"/>
<path d="M120 212H166V248C166 260.703 155.703 271 143 271V271C130.297 271 120 260.703 120 248V212Z" fill="white"/>
<path d="M452 353H405V318.5C405 305.521 415.521 295 428.5 295V295C441.479 295 452 305.521 452 318.5V353Z" fill="white"/>
</svg>
