<svg width="571" height="571" viewBox="0 0 571 571" fill="none" xmlns="http://www.w3.org/2000/svg">
<rect x="1.5" y="1.5" width="568" height="568" fill="#FF5858" stroke="#1E2165" stroke-width="3"/>
<rect x="81.3267" y="105" width="422.673" height="119.546" rx="59.7728" fill="#1E2165"/>
<rect x="501.673" y="451.523" width="422.673" height="85.3897" rx="42.6948" transform="rotate(-180 501.673 451.523)" fill="#1E2165"/>
<path d="M228.681 224.546H289.949V273.009C289.949 289.928 276.234 303.643 259.315 303.643C242.396 303.643 228.681 289.928 228.681 273.009V224.546Z" fill="white"/>
<path d="M354.319 366.134H293.051V338.343C293.051 321.425 306.766 307.709 323.685 307.709C340.604 307.709 354.319 321.425 354.319 338.343V366.134Z" fill="white"/>
<path d="M293.051 224.546H354.319V273.009C354.319 289.928 340.604 303.643 323.685 303.643C306.766 303.643 293.051 289.928 293.051 273.009V224.546Z" fill="white"/>
<path d="M289.949 366.134H228.681V338.343C228.681 321.425 242.396 307.709 259.315 307.709C276.234 307.709 289.949 321.425 289.949 338.343V366.134Z" fill="white"/>
<path d="M357.422 224.546H403.954V263.299C403.954 276.149 393.538 286.565 380.688 286.565C367.838 286.565 357.422 276.149 357.422 263.299V224.546Z" fill="#FFE600"/>
<path d="M225.929 365.891H179.396V327.138C179.396 314.288 189.813 303.871 202.663 303.871C215.512 303.871 225.929 314.288 225.929 327.138V365.891Z" fill="#FFE600"/>
<path d="M410.934 224.546H457.467V263.299C457.467 276.149 447.05 286.565 434.201 286.565C421.351 286.565 410.934 276.149 410.934 263.299V224.546Z" fill="white"/>
<path d="M172.417 365.663H125.884L125.884 326.91C125.884 314.06 136.301 303.643 149.151 303.643C162 303.643 172.417 314.06 172.417 326.91V365.663Z" fill="white"/>
<path d="M179 225H226V260.5C226 273.479 215.479 284 202.5 284C189.521 284 179 273.479 179 260.5V225Z" fill="#FFE600"/>
<path d="M404 366H358V330C358 317.297 368.297 307 381 307C393.703 307 404 317.297 404 330V366Z" fill="#FFE600"/>
<path d="M126 225H172V261C172 273.703 161.703 284 149 284C136.297 284 126 273.703 126 261V225Z" fill="white"/>
<path d="M458 366H411V331.5C411 318.521 421.521 308 434.5 308C447.479 308 458 318.521 458 331.5V366Z" fill="white"/>
<path d="M203 228L208.164 243.893H224.874L211.355 253.715L216.519 269.607L203 259.785L189.481 269.607L194.645 253.715L181.126 243.893H197.836L203 228Z" fill="white"/>
<path d="M382 228L387.164 243.893H403.874L390.355 253.715L395.519 269.607L382 259.785L368.481 269.607L373.645 253.715L360.126 243.893H376.836L382 228Z" fill="white"/>
<path d="M202 316L207.164 331.893H223.874L210.355 341.715L215.519 357.607L202 347.785L188.481 357.607L193.645 341.715L180.126 331.893H196.836L202 316Z" fill="white"/>
<path d="M381 316L386.164 331.893H402.874L389.355 341.715L394.519 357.607L381 347.785L367.481 357.607L372.645 341.715L359.126 331.893H375.836L381 316Z" fill="white"/>
</svg>
