<svg width="571" height="571" viewBox="0 0 571 571" fill="none" xmlns="http://www.w3.org/2000/svg">
<rect x="1.5" y="1.5" width="568" height="568" fill="#FF5858" stroke="#1E2165" stroke-width="3"/>
<path d="M142.5 297L119.55 240H165.45L142.5 297Z" fill="white"/>
<path d="M142.5 304L165.45 382H119.55L142.5 304Z" fill="white"/>
<path d="M428.5 304L451.45 382H405.55L428.5 304Z" fill="white"/>
<path d="M196.5 320L219.45 381.5H173.55L196.5 320Z" fill="white"/>
<path d="M375.5 321L398.45 382.5H352.55L375.5 321Z" fill="white"/>
<path d="M318 324L347.445 382.5H288.555L318 324Z" fill="white"/>
<path d="M253 324L282.445 382.5H223.555L253 324Z" fill="white"/>
<path d="M428.5 297L405.55 240H451.45L428.5 297Z" fill="white"/>
<path d="M196.5 297L172.684 240H220.316L196.5 297Z" fill="white"/>
<path d="M196.5 289L187.407 266.5H205.593L196.5 289Z" fill="#FF0000"/>
<path d="M374.5 297L350.684 240H398.316L374.5 297Z" fill="white"/>
<path d="M253.5 320L222.756 240.5H284.244L253.5 320Z" fill="white"/>
<path d="M317.5 320L286.756 240.5H348.244L317.5 320Z" fill="white"/>
<path d="M374.5 289L365.407 266.5H383.593L374.5 289Z" fill="#FF0000"/>
<rect x="75.3267" y="121" width="422.673" height="119.546" rx="59.7728" fill="black"/>
<rect x="495.673" y="467.523" width="422.673" height="85.3897" rx="42.6948" transform="rotate(-180 495.673 467.523)" fill="black"/>
</svg>
